M48
;GenerationSoftware,Autodesk,EAGLE,9.5.2*%
;CreationDate,2020-05-27T20:34:27Z*%
FMAT,2
ICI,OFF
METRIC,TZ,000.000
T3C0.381
T2C1.016
T1C3.302
%
G90
M71
T1
X80264Y28448
X100584Y152400
X2540Y2540
X22860Y2540
X22860Y22860
X2540Y22860
X28448Y2540
X48768Y2540
X48768Y22860
X28448Y22860
X54356Y2540
X74676Y2540
X74676Y22860
X54356Y22860
X80264Y2540
X100584Y2540
X100584Y22860
X80264Y22860
X2540Y28448
X22860Y28448
X22860Y48768
X2540Y48768
X28448Y28448
X48768Y28448
X48768Y48768
X28448Y48768
X54356Y28448
X74676Y28448
X74676Y48768
X54356Y48768
X74676Y100584
X100584Y28448
X100584Y48768
X80264Y48768
X2540Y54356
X22860Y54356
X22860Y74676
X2540Y74676
X28448Y54356
X48768Y54356
X48768Y74676
X28448Y74676
X54356Y54356
X74676Y54356
X74676Y74676
X54356Y74676
X80264Y54356
X100584Y54356
X100584Y74676
X80264Y74676
X2540Y80264
X22860Y80264
X22860Y100584
X2540Y100584
X28448Y80264
X48768Y80264
X48768Y100584
X28448Y100584
X54356Y80264
X74676Y80264
X80264Y152400
X54356Y100584
X80264Y80264
X100584Y80264
X100584Y100584
X80264Y100584
X2540Y106172
X22860Y106172
X22860Y126492
X2540Y126492
X28448Y106172
X48768Y106172
X48768Y126492
X28448Y126492
X54356Y106172
X74676Y106172
X74676Y126492
X54356Y126492
X80264Y106172
X100584Y106172
X100584Y126492
X80264Y126492
X2540Y132080
X22860Y132080
X22860Y152400
X2540Y152400
X28448Y132080
X48768Y132080
X48768Y152400
X28448Y152400
X54356Y132080
X74676Y132080
X74676Y152400
X54356Y152400
X80264Y132080
X100584Y132080
T2
X89154Y1270
X96774Y130810
X6350Y1270
X8890Y1270
X11430Y1270
X13970Y1270
X16510Y1270
X19050Y1270
X32258Y1270
X34798Y1270
X37338Y1270
X39878Y1270
X42418Y1270
X44958Y1270
X58166Y1270
X60706Y1270
X63246Y1270
X65786Y1270
X68326Y1270
X70866Y1270
X84074Y1270
X86614Y1270
X91694Y1270
X94234Y1270
X96774Y1270
X6350Y27178
X8890Y27178
X11430Y27178
X13970Y27178
X16510Y27178
X19050Y27178
X32258Y27178
X34798Y27178
X37338Y27178
X39878Y27178
X42418Y27178
X44958Y27178
X58166Y27178
X60706Y27178
X63246Y27178
X65786Y27178
X68326Y27178
X70866Y27178
X84074Y27178
X86614Y27178
X89154Y27178
X91694Y27178
X94234Y27178
X96774Y27178
X6350Y53086
X8890Y53086
X11430Y53086
X13970Y53086
X16510Y53086
X19050Y53086
X32258Y53086
X34798Y53086
X37338Y53086
X39878Y53086
X42418Y53086
X44958Y53086
X58166Y53086
X60706Y53086
X63246Y53086
X65786Y53086
X68326Y53086
X70866Y53086
X84074Y53086
X86614Y53086
X89154Y53086
X91694Y53086
X94234Y53086
X96774Y53086
X6350Y78994
X8890Y78994
X11430Y78994
X13970Y78994
X16510Y78994
X19050Y78994
X32258Y78994
X34798Y78994
X37338Y78994
X39878Y78994
X42418Y78994
X44958Y78994
X58166Y78994
X60706Y78994
X63246Y78994
X65786Y78994
X68326Y78994
X70866Y78994
X84074Y78994
X86614Y78994
X89154Y78994
X91694Y78994
X94234Y78994
X96774Y78994
X6350Y104902
X8890Y104902
X11430Y104902
X13970Y104902
X16510Y104902
X19050Y104902
X32258Y104902
X34798Y104902
X37338Y104902
X39878Y104902
X42418Y104902
X44958Y104902
X58166Y104902
X60706Y104902
X63246Y104902
X65786Y104902
X68326Y104902
X70866Y104902
X84074Y104902
X86614Y104902
X89154Y104902
X91694Y104902
X94234Y104902
X96774Y104902
X6350Y130810
X8890Y130810
X11430Y130810
X13970Y130810
X16510Y130810
X19050Y130810
X32258Y130810
X34798Y130810
X37338Y130810
X39878Y130810
X42418Y130810
X44958Y130810
X58166Y130810
X60706Y130810
X63246Y130810
X65786Y130810
X68326Y130810
X70866Y130810
X84074Y130810
X86614Y130810
X89154Y130810
X91694Y130810
X94234Y130810
T3
X99314Y44958
X98196Y32969
X101549Y32233
X81331Y39116
X96583Y33414
X84557Y32106
X80247Y44983
X82652Y43409
X11074Y58547
X15342Y62916
X18009Y60147
X19609Y61595
X5258Y67005
X12725Y74320
X7595Y64872
X18796Y60858
X22835Y65557
X22835Y63830
X14453Y70739
X18948Y70206
X8788Y66827
X8992Y72847
X6426Y64008
X18085Y64516
X18821Y66015
X8026Y63271
X12497Y66929
X16713Y74701
X16434Y63576
X17755Y73635
X9829Y58725
X21590Y70866
X20472Y58877
X23825Y58141
X3607Y65024
X18860Y59322
X6833Y58014
X2523Y70891
X4928Y69317
X36982Y58547
X41250Y62916
X43917Y60147
X45517Y61595
X31166Y67005
X38633Y74320
X33503Y64872
X44704Y60858
X48743Y65557
X48743Y63830
X40361Y70739
X44856Y70206
X34696Y66827
X34900Y72847
X32334Y64008
X43993Y64516
X44729Y66015
X33934Y63271
X38405Y66929
X42621Y74701
X42342Y63576
X43663Y73635
X35737Y58725
X47498Y70866
X46380Y58877
X49733Y58141
X29515Y65024
X44767Y59322
X32741Y58014
X28431Y70891
X30836Y69317
X62890Y58547
X67158Y62916
X69825Y60147
X71425Y61595
X57074Y67005
X64541Y74320
X59411Y64872
X70612Y60858
X74651Y65557
X74651Y63830
X66269Y70739
X70764Y70206
X60604Y66827
X60808Y72847
X58242Y64008
X69901Y64516
X70637Y66015
X59842Y63271
X64313Y66929
X68529Y74701
X68250Y63576
X69571Y73635
X61645Y58725
X73406Y70866
X72288Y58877
X75641Y58141
X55423Y65024
X70676Y59322
X58649Y58014
X54339Y70891
X56744Y69317
X88798Y58547
X93066Y62916
X95733Y60147
X97333Y61595
X82982Y67005
X90449Y74320
X85319Y64872
X96520Y60858
X100559Y65557
X100559Y63830
X92177Y70739
X96672Y70206
X86512Y66827
X86716Y72847
X84150Y64008
X95809Y64516
X96545Y66015
X85750Y63271
X90221Y66929
X94437Y74701
X94158Y63576
X95479Y73635
X87553Y58725
X99314Y70866
X98196Y58877
X101549Y58141
X81331Y65024
X96583Y59322
X84557Y58014
X80247Y70891
X82652Y69317
X11074Y84455
X15342Y88824
X18009Y86055
X19609Y87503
X5258Y92913
X12725Y100228
X7595Y90780
X18796Y86766
X22835Y91465
X22835Y89738
X14453Y96647
X18948Y96114
X8788Y92735
X8992Y98755
X6426Y89916
X18085Y90424
X18821Y91923
X8026Y89179
X12497Y92837
X16713Y100609
X16434Y89484
X17755Y99543
X9829Y84633
X21590Y96774
X20472Y84785
X23825Y84049
X3607Y90932
X18860Y85230
X6833Y83922
X2523Y96799
X4928Y95225
X36982Y84455
X41250Y88824
X43917Y86055
X45517Y87503
X31166Y92913
X38633Y100228
X33503Y90780
X44704Y86766
X48743Y91465
X48743Y89738
X40361Y96647
X44856Y96114
X34696Y92735
X34900Y98755
X32334Y89916
X43993Y90424
X44729Y91923
X33934Y89179
X38405Y92837
X42621Y100609
X42342Y89484
X43663Y99543
X35737Y84633
X47498Y96774
X46380Y84785
X49733Y84049
X29515Y90932
X44767Y85230
X32741Y83922
X28431Y96799
X30836Y95225
X62890Y84455
X67158Y88824
X69825Y86055
X71425Y87503
X57074Y92913
X64541Y100228
X59411Y90780
X70612Y86766
X74651Y91465
X74651Y89738
X66269Y96647
X70764Y96114
X60604Y92735
X60808Y98755
X58242Y89916
X69901Y90424
X70637Y91923
X59842Y89179
X64313Y92837
X68529Y100609
X68250Y89484
X69571Y99543
X61645Y84633
X73406Y96774
X72288Y84785
X75641Y84049
X55423Y90932
X70676Y85230
X58649Y83922
X54339Y96799
X56744Y95225
X88798Y84455
X93066Y88824
X95733Y86055
X97333Y87503
X82982Y92913
X90449Y100228
X85319Y90780
X96520Y86766
X100559Y91465
X100559Y89738
X92177Y96647
X96672Y96114
X86512Y92735
X86716Y98755
X84150Y89916
X95809Y90424
X96545Y91923
X85750Y89179
X90221Y92837
X94437Y100609
X94158Y89484
X95479Y99543
X87553Y84633
X99314Y96774
X98196Y84785
X101549Y84049
X81331Y90932
X82652Y17501
X84557Y83922
X80247Y96799
X82652Y95225
X11074Y110363
X15342Y114732
X18009Y111963
X19609Y113411
X5258Y118821
X12725Y126136
X7595Y116688
X18796Y112674
X22835Y117373
X22835Y115646
X14453Y122555
X18948Y122022
X8788Y118643
X8992Y124663
X6426Y115824
X18085Y116332
X18821Y117831
X8026Y115087
X12497Y118745
X16713Y126517
X16434Y115392
X17755Y125451
X9829Y110541
X21590Y122682
X20472Y110693
X23825Y109957
X3607Y116840
X18860Y111138
X6833Y109830
X2523Y122707
X4928Y121133
X36982Y110363
X41250Y114732
X43917Y111963
X45517Y113411
X31166Y118821
X38633Y126136
X33503Y116688
X44704Y112674
X48743Y117373
X48743Y115646
X40361Y122555
X44856Y122022
X34696Y118643
X34900Y124663
X32334Y115824
X43993Y116332
X44729Y117831
X33934Y115087
X38405Y118745
X42621Y126517
X42342Y115392
X43663Y125451
X35737Y110541
X47498Y122682
X46380Y110693
X49733Y109957
X29515Y116840
X44767Y111138
X32741Y109830
X28431Y122707
X30836Y121133
X62890Y110363
X67158Y114732
X69825Y111963
X71425Y113411
X57074Y118821
X64541Y126136
X59411Y116688
X70612Y112674
X74651Y117373
X74651Y115646
X66269Y122555
X70764Y122022
X60604Y118643
X60808Y124663
X58242Y115824
X69901Y116332
X70637Y117831
X59842Y115087
X64313Y118745
X68529Y126517
X68250Y115392
X69571Y125451
X61645Y110541
X73406Y122682
X72288Y110693
X75641Y109957
X55423Y116840
X70676Y111138
X58649Y109830
X54339Y122707
X56744Y121133
X88798Y110363
X93066Y114732
X95733Y111963
X97333Y113411
X82982Y118821
X90449Y126136
X85319Y116688
X96520Y112674
X100559Y117373
X100559Y115646
X92177Y122555
X96672Y122022
X86512Y118643
X86716Y124663
X84150Y115824
X95809Y116332
X96545Y117831
X85750Y115087
X90221Y118745
X94437Y126517
X94158Y115392
X95479Y125451
X87553Y110541
X99314Y122682
X98196Y110693
X101549Y109957
X81331Y116840
X96583Y111138
X84557Y109830
X80247Y122707
X82652Y121133
X11074Y136271
X15342Y140640
X18009Y137871
X19609Y139319
X5258Y144729
X12725Y152044
X7595Y142596
X18796Y138582
X22835Y143281
X22835Y141554
X14453Y148463
X18948Y147930
X8788Y144551
X8992Y150571
X6426Y141732
X18085Y142240
X18821Y143739
X8026Y140995
X12497Y144653
X16713Y152425
X16434Y141300
X17755Y151359
X9829Y136449
X21590Y148590
X20472Y136601
X23825Y135865
X3607Y142748
X18860Y137046
X6833Y135738
X2523Y148615
X4928Y147041
X36982Y136271
X41250Y140640
X43917Y137871
X45517Y139319
X31166Y144729
X38633Y152044
X33503Y142596
X44704Y138582
X48743Y143281
X48743Y141554
X40361Y148463
X44856Y147930
X34696Y144551
X34900Y150571
X32334Y141732
X43993Y142240
X44729Y143739
X33934Y140995
X38405Y144653
X42621Y152425
X42342Y141300
X43663Y151359
X35737Y136449
X47498Y148590
X46380Y136601
X49733Y135865
X29515Y142748
X44767Y137046
X32741Y135738
X28431Y148615
X30836Y147041
X62890Y136271
X67158Y140640
X69825Y137871
X71425Y139319
X57074Y144729
X64541Y152044
X59411Y142596
X70612Y138582
X74651Y143281
X74651Y141554
X66269Y148463
X70764Y147930
X60604Y144551
X60808Y150571
X58242Y141732
X69901Y142240
X70637Y143739
X59842Y140995
X64313Y144653
X68529Y152425
X68250Y141300
X69571Y151359
X61645Y136449
X73406Y148590
X72288Y136601
X75641Y135865
X55423Y142748
X70676Y137046
X58649Y135738
X54339Y148615
X56744Y147041
X88798Y136271
X93066Y140640
X95733Y137871
X97333Y139319
X82982Y144729
X90449Y152044
X85319Y142596
X96520Y138582
X100559Y143281
X100559Y141554
X92177Y148463
X96672Y147930
X86512Y144551
X86716Y150571
X84150Y141732
X95809Y142240
X96545Y143739
X85750Y140995
X90221Y144653
X94437Y152425
X94158Y141300
X95479Y151359
X87553Y136449
X99314Y148590
X11074Y6731
X101549Y135865
X81331Y142748
X96583Y137046
X84557Y135738
X80247Y148615
X82652Y147041
X15342Y11100
X18009Y8331
X19609Y9779
X5258Y15189
X12725Y22504
X7595Y13056
X18796Y9042
X22835Y13741
X22835Y12014
X14453Y18923
X18948Y18390
X8788Y15011
X8992Y21031
X6426Y12192
X18085Y12700
X18821Y14199
X8026Y11455
X12497Y15113
X16713Y22885
X16434Y11760
X17755Y21819
X9829Y6909
X21590Y19050
X20472Y7061
X23825Y6325
X3607Y13208
X18860Y7506
X6833Y6198
X2523Y19075
X4928Y17501
X36982Y6731
X41250Y11100
X43917Y8331
X45517Y9779
X31166Y15189
X38633Y22504
X33503Y13056
X44704Y9042
X48743Y13741
X48743Y12014
X40361Y18923
X44856Y18390
X34696Y15011
X34900Y21031
X32334Y12192
X43993Y12700
X44729Y14199
X33934Y11455
X38405Y15113
X42621Y22885
X42342Y11760
X43663Y21819
X35737Y6909
X47498Y19050
X46380Y7061
X49733Y6325
X29515Y13208
X44767Y7506
X32741Y6198
X28431Y19075
X30836Y17501
X62890Y6731
X67158Y11100
X69825Y8331
X71425Y9779
X57074Y15189
X64541Y22504
X59411Y13056
X70612Y9042
X74651Y13741
X74651Y12014
X66269Y18923
X70764Y18390
X60604Y15011
X60808Y21031
X58242Y12192
X69901Y12700
X70637Y14199
X59842Y11455
X64313Y15113
X68529Y22885
X68250Y11760
X69571Y21819
X61645Y6909
X73406Y19050
X72288Y7061
X75641Y6325
X55423Y13208
X70676Y7506
X58649Y6198
X54339Y19075
X56744Y17501
X88798Y6731
X93066Y11100
X95733Y8331
X97333Y9779
X82982Y15189
X90449Y22504
X85319Y13056
X96520Y9042
X100559Y13741
X100559Y12014
X92177Y18923
X96672Y18390
X86512Y15011
X86716Y21031
X84150Y12192
X95809Y12700
X96545Y14199
X85750Y11455
X90221Y15113
X94437Y22885
X94158Y11760
X95479Y21819
X87553Y6909
X99314Y19050
X96583Y85230
X98196Y7061
X101549Y6325
X81331Y13208
X96583Y7506
X84557Y6198
X80247Y19075
X11074Y32639
X15342Y37008
X18009Y34239
X19609Y35687
X5258Y41097
X12725Y48412
X7595Y38964
X18796Y34950
X22835Y39649
X22835Y37922
X14453Y44831
X18948Y44298
X8788Y40919
X8992Y46939
X6426Y38100
X18085Y38608
X18821Y40107
X8026Y37363
X12497Y41021
X16713Y48793
X16434Y37668
X17755Y47727
X9829Y32817
X21590Y44958
X20472Y32969
X23825Y32233
X3607Y39116
X18860Y33414
X6833Y32106
X2523Y44983
X4928Y43409
X36982Y32639
X41250Y37008
X43917Y34239
X45517Y35687
X31166Y41097
X38633Y48412
X33503Y38964
X44704Y34950
X48743Y39649
X48743Y37922
X40361Y44831
X44856Y44298
X34696Y40919
X34900Y46939
X32334Y38100
X43993Y38608
X44729Y40107
X33934Y37363
X38405Y41021
X42621Y48793
X42342Y37668
X43663Y47727
X35737Y32817
X47498Y44958
X46380Y32969
X49733Y32233
X29515Y39116
X44767Y33414
X32741Y32106
X28431Y44983
X30836Y43409
X62890Y32639
X67158Y37008
X69825Y34239
X71425Y35687
X57074Y41097
X64541Y48412
X59411Y38964
X70612Y34950
X74651Y39649
X74651Y37922
X66269Y44831
X70764Y44298
X60604Y40919
X60808Y46939
X58242Y38100
X69901Y38608
X70637Y40107
X59842Y37363
X64313Y41021
X68529Y48793
X68250Y37668
X69571Y47727
X61645Y32817
X73406Y44958
X72288Y32969
X75641Y32233
X55423Y39116
X70676Y33414
X58649Y32106
X54339Y44983
X56744Y43409
X88798Y32639
X93066Y37008
X95733Y34239
X97333Y35687
X82982Y41097
X90449Y48412
X85319Y38964
X96520Y34950
X100559Y39649
X100559Y37922
X92177Y44831
X96672Y44298
X86512Y40919
X86716Y46939
X84150Y38100
X95809Y38608
X96545Y40107
X85750Y37363
X90221Y41021
X94437Y48793
X94158Y37668
X95479Y47727
X87553Y32817
X98196Y136601
M30