G04 EAGLE Gerber RS-274X export*
G75*
%MOMM*%
%FSLAX34Y34*%
%LPD*%
%INSoldermask Top*%
%IPPOS*%
%AMOC8*
5,1,8,0,0,1.08239X$1,22.5*%
G01*
%ADD10C,3.505200*%
%ADD11C,1.203200*%
%ADD12R,1.103200X1.053200*%
%ADD13R,1.203200X1.303200*%
%ADD14R,0.603200X0.953200*%
%ADD15R,1.303200X1.203200*%
%ADD16C,2.082800*%
%ADD17R,2.203200X1.403200*%
%ADD18R,1.553200X0.803200*%
%ADD19C,0.505344*%
%ADD20R,0.853200X0.663200*%
%ADD21R,1.303200X0.603200*%
%ADD22R,1.403200X1.003200*%
%ADD23R,2.003200X1.003200*%
%ADD24R,0.553200X0.953200*%
%ADD25R,1.053200X1.103200*%
%ADD26C,1.270000*%
%ADD27C,1.703200*%


D10*
X25400Y25400D03*
X228600Y25400D03*
X228600Y228600D03*
X25400Y228600D03*
D11*
X204470Y243840D03*
X12700Y50800D03*
D12*
X88900Y96986D03*
X88900Y85386D03*
X146050Y83100D03*
X146050Y94700D03*
D13*
X107950Y97400D03*
X107950Y80400D03*
D14*
X120500Y80650D03*
X127000Y80650D03*
X133500Y80650D03*
X133500Y97150D03*
X120500Y97150D03*
D15*
X217560Y78740D03*
X234560Y78740D03*
D13*
X165100Y80400D03*
X165100Y97400D03*
D16*
X63500Y12700D03*
X88900Y12700D03*
X114300Y12700D03*
X139700Y12700D03*
D17*
X239950Y99000D03*
X239950Y155000D03*
D18*
X203200Y112000D03*
X203200Y122000D03*
X203200Y132000D03*
X203200Y142000D03*
D16*
X165100Y12700D03*
D17*
X14050Y155000D03*
X14050Y99000D03*
D18*
X50800Y142000D03*
X50800Y132000D03*
X50800Y122000D03*
X50800Y112000D03*
D19*
X20120Y86040D02*
X20120Y79060D01*
X13140Y79060D01*
X13140Y86040D01*
X20120Y86040D01*
X20120Y83860D02*
X13140Y83860D01*
X37660Y86040D02*
X37660Y79060D01*
X30680Y79060D01*
X30680Y86040D01*
X37660Y86040D01*
X37660Y83860D02*
X30680Y83860D01*
D15*
X68190Y82550D03*
X51190Y82550D03*
D20*
X99900Y122000D03*
X99900Y132000D03*
X88400Y127000D03*
D13*
X114300Y135500D03*
X114300Y118500D03*
X14478Y173618D03*
X14478Y190618D03*
D20*
X154100Y132000D03*
X154100Y122000D03*
X165600Y127000D03*
D13*
X139700Y118500D03*
X139700Y135500D03*
X36322Y173364D03*
X36322Y190364D03*
D16*
X190500Y12700D03*
D21*
X133498Y160684D03*
X133498Y167184D03*
X133498Y173684D03*
X133498Y180184D03*
X88498Y180184D03*
X88498Y173684D03*
X88498Y167184D03*
X88498Y160684D03*
D13*
X72136Y202302D03*
X72136Y185302D03*
D15*
X107560Y195326D03*
X90560Y195326D03*
X157616Y182118D03*
X174616Y182118D03*
D22*
X69596Y169274D03*
X69596Y151274D03*
D23*
X153924Y168258D03*
X153924Y150258D03*
D24*
X151088Y236715D03*
X143088Y236715D03*
X135088Y236715D03*
X127088Y236715D03*
X119088Y236715D03*
X111088Y236715D03*
X103088Y236715D03*
X103088Y212715D03*
X111088Y212715D03*
X119088Y212715D03*
X127088Y212715D03*
X135088Y212715D03*
X143088Y212715D03*
X151088Y212715D03*
D15*
X82922Y230378D03*
X65922Y230378D03*
D25*
X134832Y197104D03*
X123232Y197104D03*
D10*
X284480Y25400D03*
X487680Y25400D03*
X487680Y228600D03*
X284480Y228600D03*
D11*
X463550Y243840D03*
X271780Y50800D03*
D12*
X347980Y96986D03*
X347980Y85386D03*
X405130Y83100D03*
X405130Y94700D03*
D13*
X367030Y97400D03*
X367030Y80400D03*
D14*
X379580Y80650D03*
X386080Y80650D03*
X392580Y80650D03*
X392580Y97150D03*
X379580Y97150D03*
D15*
X476640Y78740D03*
X493640Y78740D03*
D13*
X424180Y80400D03*
X424180Y97400D03*
D16*
X322580Y12700D03*
X347980Y12700D03*
X373380Y12700D03*
X398780Y12700D03*
D17*
X499030Y99000D03*
X499030Y155000D03*
D18*
X462280Y112000D03*
X462280Y122000D03*
X462280Y132000D03*
X462280Y142000D03*
D16*
X424180Y12700D03*
D17*
X273130Y155000D03*
X273130Y99000D03*
D18*
X309880Y142000D03*
X309880Y132000D03*
X309880Y122000D03*
X309880Y112000D03*
D19*
X279200Y86040D02*
X279200Y79060D01*
X272220Y79060D01*
X272220Y86040D01*
X279200Y86040D01*
X279200Y83860D02*
X272220Y83860D01*
X296740Y86040D02*
X296740Y79060D01*
X289760Y79060D01*
X289760Y86040D01*
X296740Y86040D01*
X296740Y83860D02*
X289760Y83860D01*
D15*
X327270Y82550D03*
X310270Y82550D03*
D20*
X358980Y122000D03*
X358980Y132000D03*
X347480Y127000D03*
D13*
X373380Y135500D03*
X373380Y118500D03*
X273558Y173618D03*
X273558Y190618D03*
D20*
X413180Y132000D03*
X413180Y122000D03*
X424680Y127000D03*
D13*
X398780Y118500D03*
X398780Y135500D03*
X295402Y173364D03*
X295402Y190364D03*
D16*
X449580Y12700D03*
D21*
X392578Y160684D03*
X392578Y167184D03*
X392578Y173684D03*
X392578Y180184D03*
X347578Y180184D03*
X347578Y173684D03*
X347578Y167184D03*
X347578Y160684D03*
D13*
X331216Y202302D03*
X331216Y185302D03*
D15*
X366640Y195326D03*
X349640Y195326D03*
X416696Y182118D03*
X433696Y182118D03*
D22*
X328676Y169274D03*
X328676Y151274D03*
D23*
X413004Y168258D03*
X413004Y150258D03*
D24*
X410168Y236715D03*
X402168Y236715D03*
X394168Y236715D03*
X386168Y236715D03*
X378168Y236715D03*
X370168Y236715D03*
X362168Y236715D03*
X362168Y212715D03*
X370168Y212715D03*
X378168Y212715D03*
X386168Y212715D03*
X394168Y212715D03*
X402168Y212715D03*
X410168Y212715D03*
D15*
X342002Y230378D03*
X325002Y230378D03*
D25*
X393912Y197104D03*
X382312Y197104D03*
D10*
X543560Y25400D03*
X746760Y25400D03*
X746760Y228600D03*
X543560Y228600D03*
D11*
X722630Y243840D03*
X530860Y50800D03*
D12*
X607060Y96986D03*
X607060Y85386D03*
X664210Y83100D03*
X664210Y94700D03*
D13*
X626110Y97400D03*
X626110Y80400D03*
D14*
X638660Y80650D03*
X645160Y80650D03*
X651660Y80650D03*
X651660Y97150D03*
X638660Y97150D03*
D15*
X735720Y78740D03*
X752720Y78740D03*
D13*
X683260Y80400D03*
X683260Y97400D03*
D16*
X581660Y12700D03*
X607060Y12700D03*
X632460Y12700D03*
X657860Y12700D03*
D17*
X758110Y99000D03*
X758110Y155000D03*
D18*
X721360Y112000D03*
X721360Y122000D03*
X721360Y132000D03*
X721360Y142000D03*
D16*
X683260Y12700D03*
D17*
X532210Y155000D03*
X532210Y99000D03*
D18*
X568960Y142000D03*
X568960Y132000D03*
X568960Y122000D03*
X568960Y112000D03*
D19*
X538280Y86040D02*
X538280Y79060D01*
X531300Y79060D01*
X531300Y86040D01*
X538280Y86040D01*
X538280Y83860D02*
X531300Y83860D01*
X555820Y86040D02*
X555820Y79060D01*
X548840Y79060D01*
X548840Y86040D01*
X555820Y86040D01*
X555820Y83860D02*
X548840Y83860D01*
D15*
X586350Y82550D03*
X569350Y82550D03*
D20*
X618060Y122000D03*
X618060Y132000D03*
X606560Y127000D03*
D13*
X632460Y135500D03*
X632460Y118500D03*
X532638Y173618D03*
X532638Y190618D03*
D20*
X672260Y132000D03*
X672260Y122000D03*
X683760Y127000D03*
D13*
X657860Y118500D03*
X657860Y135500D03*
X554482Y173364D03*
X554482Y190364D03*
D16*
X708660Y12700D03*
D21*
X651658Y160684D03*
X651658Y167184D03*
X651658Y173684D03*
X651658Y180184D03*
X606658Y180184D03*
X606658Y173684D03*
X606658Y167184D03*
X606658Y160684D03*
D13*
X590296Y202302D03*
X590296Y185302D03*
D15*
X625720Y195326D03*
X608720Y195326D03*
X675776Y182118D03*
X692776Y182118D03*
D22*
X587756Y169274D03*
X587756Y151274D03*
D23*
X672084Y168258D03*
X672084Y150258D03*
D24*
X669248Y236715D03*
X661248Y236715D03*
X653248Y236715D03*
X645248Y236715D03*
X637248Y236715D03*
X629248Y236715D03*
X621248Y236715D03*
X621248Y212715D03*
X629248Y212715D03*
X637248Y212715D03*
X645248Y212715D03*
X653248Y212715D03*
X661248Y212715D03*
X669248Y212715D03*
D15*
X601082Y230378D03*
X584082Y230378D03*
D25*
X652992Y197104D03*
X641392Y197104D03*
D10*
X802640Y25400D03*
X1005840Y25400D03*
X1005840Y228600D03*
X802640Y228600D03*
D11*
X981710Y243840D03*
X789940Y50800D03*
D12*
X866140Y96986D03*
X866140Y85386D03*
X923290Y83100D03*
X923290Y94700D03*
D13*
X885190Y97400D03*
X885190Y80400D03*
D14*
X897740Y80650D03*
X904240Y80650D03*
X910740Y80650D03*
X910740Y97150D03*
X897740Y97150D03*
D15*
X994800Y78740D03*
X1011800Y78740D03*
D13*
X942340Y80400D03*
X942340Y97400D03*
D16*
X840740Y12700D03*
X866140Y12700D03*
X891540Y12700D03*
X916940Y12700D03*
D17*
X1017190Y99000D03*
X1017190Y155000D03*
D18*
X980440Y112000D03*
X980440Y122000D03*
X980440Y132000D03*
X980440Y142000D03*
D16*
X942340Y12700D03*
D17*
X791290Y155000D03*
X791290Y99000D03*
D18*
X828040Y142000D03*
X828040Y132000D03*
X828040Y122000D03*
X828040Y112000D03*
D19*
X797360Y86040D02*
X797360Y79060D01*
X790380Y79060D01*
X790380Y86040D01*
X797360Y86040D01*
X797360Y83860D02*
X790380Y83860D01*
X814900Y86040D02*
X814900Y79060D01*
X807920Y79060D01*
X807920Y86040D01*
X814900Y86040D01*
X814900Y83860D02*
X807920Y83860D01*
D15*
X845430Y82550D03*
X828430Y82550D03*
D20*
X877140Y122000D03*
X877140Y132000D03*
X865640Y127000D03*
D13*
X891540Y135500D03*
X891540Y118500D03*
X791718Y173618D03*
X791718Y190618D03*
D20*
X931340Y132000D03*
X931340Y122000D03*
X942840Y127000D03*
D13*
X916940Y118500D03*
X916940Y135500D03*
X813562Y173364D03*
X813562Y190364D03*
D16*
X967740Y12700D03*
D21*
X910738Y160684D03*
X910738Y167184D03*
X910738Y173684D03*
X910738Y180184D03*
X865738Y180184D03*
X865738Y173684D03*
X865738Y167184D03*
X865738Y160684D03*
D13*
X849376Y202302D03*
X849376Y185302D03*
D15*
X884800Y195326D03*
X867800Y195326D03*
X934856Y182118D03*
X951856Y182118D03*
D22*
X846836Y169274D03*
X846836Y151274D03*
D23*
X931164Y168258D03*
X931164Y150258D03*
D24*
X928328Y236715D03*
X920328Y236715D03*
X912328Y236715D03*
X904328Y236715D03*
X896328Y236715D03*
X888328Y236715D03*
X880328Y236715D03*
X880328Y212715D03*
X888328Y212715D03*
X896328Y212715D03*
X904328Y212715D03*
X912328Y212715D03*
X920328Y212715D03*
X928328Y212715D03*
D15*
X860162Y230378D03*
X843162Y230378D03*
D25*
X912072Y197104D03*
X900472Y197104D03*
D10*
X25400Y284480D03*
X228600Y284480D03*
X228600Y487680D03*
X25400Y487680D03*
D11*
X204470Y502920D03*
X12700Y309880D03*
D12*
X88900Y356066D03*
X88900Y344466D03*
X146050Y342180D03*
X146050Y353780D03*
D13*
X107950Y356480D03*
X107950Y339480D03*
D14*
X120500Y339730D03*
X127000Y339730D03*
X133500Y339730D03*
X133500Y356230D03*
X120500Y356230D03*
D15*
X217560Y337820D03*
X234560Y337820D03*
D13*
X165100Y339480D03*
X165100Y356480D03*
D16*
X63500Y271780D03*
X88900Y271780D03*
X114300Y271780D03*
X139700Y271780D03*
D17*
X239950Y358080D03*
X239950Y414080D03*
D18*
X203200Y371080D03*
X203200Y381080D03*
X203200Y391080D03*
X203200Y401080D03*
D16*
X165100Y271780D03*
D17*
X14050Y414080D03*
X14050Y358080D03*
D18*
X50800Y401080D03*
X50800Y391080D03*
X50800Y381080D03*
X50800Y371080D03*
D19*
X20120Y345120D02*
X20120Y338140D01*
X13140Y338140D01*
X13140Y345120D01*
X20120Y345120D01*
X20120Y342940D02*
X13140Y342940D01*
X37660Y345120D02*
X37660Y338140D01*
X30680Y338140D01*
X30680Y345120D01*
X37660Y345120D01*
X37660Y342940D02*
X30680Y342940D01*
D15*
X68190Y341630D03*
X51190Y341630D03*
D20*
X99900Y381080D03*
X99900Y391080D03*
X88400Y386080D03*
D13*
X114300Y394580D03*
X114300Y377580D03*
X14478Y432698D03*
X14478Y449698D03*
D20*
X154100Y391080D03*
X154100Y381080D03*
X165600Y386080D03*
D13*
X139700Y377580D03*
X139700Y394580D03*
X36322Y432444D03*
X36322Y449444D03*
D16*
X190500Y271780D03*
D21*
X133498Y419764D03*
X133498Y426264D03*
X133498Y432764D03*
X133498Y439264D03*
X88498Y439264D03*
X88498Y432764D03*
X88498Y426264D03*
X88498Y419764D03*
D13*
X72136Y461382D03*
X72136Y444382D03*
D15*
X107560Y454406D03*
X90560Y454406D03*
X157616Y441198D03*
X174616Y441198D03*
D22*
X69596Y428354D03*
X69596Y410354D03*
D23*
X153924Y427338D03*
X153924Y409338D03*
D24*
X151088Y495795D03*
X143088Y495795D03*
X135088Y495795D03*
X127088Y495795D03*
X119088Y495795D03*
X111088Y495795D03*
X103088Y495795D03*
X103088Y471795D03*
X111088Y471795D03*
X119088Y471795D03*
X127088Y471795D03*
X135088Y471795D03*
X143088Y471795D03*
X151088Y471795D03*
D15*
X82922Y489458D03*
X65922Y489458D03*
D25*
X134832Y456184D03*
X123232Y456184D03*
D10*
X284480Y284480D03*
X487680Y284480D03*
X487680Y487680D03*
X284480Y487680D03*
D11*
X463550Y502920D03*
X271780Y309880D03*
D12*
X347980Y356066D03*
X347980Y344466D03*
X405130Y342180D03*
X405130Y353780D03*
D13*
X367030Y356480D03*
X367030Y339480D03*
D14*
X379580Y339730D03*
X386080Y339730D03*
X392580Y339730D03*
X392580Y356230D03*
X379580Y356230D03*
D15*
X476640Y337820D03*
X493640Y337820D03*
D13*
X424180Y339480D03*
X424180Y356480D03*
D16*
X322580Y271780D03*
X347980Y271780D03*
X373380Y271780D03*
X398780Y271780D03*
D17*
X499030Y358080D03*
X499030Y414080D03*
D18*
X462280Y371080D03*
X462280Y381080D03*
X462280Y391080D03*
X462280Y401080D03*
D16*
X424180Y271780D03*
D17*
X273130Y414080D03*
X273130Y358080D03*
D18*
X309880Y401080D03*
X309880Y391080D03*
X309880Y381080D03*
X309880Y371080D03*
D19*
X279200Y345120D02*
X279200Y338140D01*
X272220Y338140D01*
X272220Y345120D01*
X279200Y345120D01*
X279200Y342940D02*
X272220Y342940D01*
X296740Y345120D02*
X296740Y338140D01*
X289760Y338140D01*
X289760Y345120D01*
X296740Y345120D01*
X296740Y342940D02*
X289760Y342940D01*
D15*
X327270Y341630D03*
X310270Y341630D03*
D20*
X358980Y381080D03*
X358980Y391080D03*
X347480Y386080D03*
D13*
X373380Y394580D03*
X373380Y377580D03*
X273558Y432698D03*
X273558Y449698D03*
D20*
X413180Y391080D03*
X413180Y381080D03*
X424680Y386080D03*
D13*
X398780Y377580D03*
X398780Y394580D03*
X295402Y432444D03*
X295402Y449444D03*
D16*
X449580Y271780D03*
D21*
X392578Y419764D03*
X392578Y426264D03*
X392578Y432764D03*
X392578Y439264D03*
X347578Y439264D03*
X347578Y432764D03*
X347578Y426264D03*
X347578Y419764D03*
D13*
X331216Y461382D03*
X331216Y444382D03*
D15*
X366640Y454406D03*
X349640Y454406D03*
X416696Y441198D03*
X433696Y441198D03*
D22*
X328676Y428354D03*
X328676Y410354D03*
D23*
X413004Y427338D03*
X413004Y409338D03*
D24*
X410168Y495795D03*
X402168Y495795D03*
X394168Y495795D03*
X386168Y495795D03*
X378168Y495795D03*
X370168Y495795D03*
X362168Y495795D03*
X362168Y471795D03*
X370168Y471795D03*
X378168Y471795D03*
X386168Y471795D03*
X394168Y471795D03*
X402168Y471795D03*
X410168Y471795D03*
D15*
X342002Y489458D03*
X325002Y489458D03*
D25*
X393912Y456184D03*
X382312Y456184D03*
D10*
X543560Y284480D03*
X746760Y284480D03*
X746760Y487680D03*
X543560Y487680D03*
D11*
X722630Y502920D03*
X530860Y309880D03*
D12*
X607060Y356066D03*
X607060Y344466D03*
X664210Y342180D03*
X664210Y353780D03*
D13*
X626110Y356480D03*
X626110Y339480D03*
D14*
X638660Y339730D03*
X645160Y339730D03*
X651660Y339730D03*
X651660Y356230D03*
X638660Y356230D03*
D15*
X735720Y337820D03*
X752720Y337820D03*
D13*
X683260Y339480D03*
X683260Y356480D03*
D16*
X581660Y271780D03*
X607060Y271780D03*
X632460Y271780D03*
X657860Y271780D03*
D17*
X758110Y358080D03*
X758110Y414080D03*
D18*
X721360Y371080D03*
X721360Y381080D03*
X721360Y391080D03*
X721360Y401080D03*
D16*
X683260Y271780D03*
D17*
X532210Y414080D03*
X532210Y358080D03*
D18*
X568960Y401080D03*
X568960Y391080D03*
X568960Y381080D03*
X568960Y371080D03*
D19*
X538280Y345120D02*
X538280Y338140D01*
X531300Y338140D01*
X531300Y345120D01*
X538280Y345120D01*
X538280Y342940D02*
X531300Y342940D01*
X555820Y345120D02*
X555820Y338140D01*
X548840Y338140D01*
X548840Y345120D01*
X555820Y345120D01*
X555820Y342940D02*
X548840Y342940D01*
D15*
X586350Y341630D03*
X569350Y341630D03*
D20*
X618060Y381080D03*
X618060Y391080D03*
X606560Y386080D03*
D13*
X632460Y394580D03*
X632460Y377580D03*
X532638Y432698D03*
X532638Y449698D03*
D20*
X672260Y391080D03*
X672260Y381080D03*
X683760Y386080D03*
D13*
X657860Y377580D03*
X657860Y394580D03*
X554482Y432444D03*
X554482Y449444D03*
D16*
X708660Y271780D03*
D21*
X651658Y419764D03*
X651658Y426264D03*
X651658Y432764D03*
X651658Y439264D03*
X606658Y439264D03*
X606658Y432764D03*
X606658Y426264D03*
X606658Y419764D03*
D13*
X590296Y461382D03*
X590296Y444382D03*
D15*
X625720Y454406D03*
X608720Y454406D03*
X675776Y441198D03*
X692776Y441198D03*
D22*
X587756Y428354D03*
X587756Y410354D03*
D23*
X672084Y427338D03*
X672084Y409338D03*
D24*
X669248Y495795D03*
X661248Y495795D03*
X653248Y495795D03*
X645248Y495795D03*
X637248Y495795D03*
X629248Y495795D03*
X621248Y495795D03*
X621248Y471795D03*
X629248Y471795D03*
X637248Y471795D03*
X645248Y471795D03*
X653248Y471795D03*
X661248Y471795D03*
X669248Y471795D03*
D15*
X601082Y489458D03*
X584082Y489458D03*
D25*
X652992Y456184D03*
X641392Y456184D03*
D10*
X802640Y284480D03*
X1005840Y284480D03*
X1005840Y487680D03*
X802640Y487680D03*
D11*
X981710Y502920D03*
X789940Y309880D03*
D12*
X866140Y356066D03*
X866140Y344466D03*
X923290Y342180D03*
X923290Y353780D03*
D13*
X885190Y356480D03*
X885190Y339480D03*
D14*
X897740Y339730D03*
X904240Y339730D03*
X910740Y339730D03*
X910740Y356230D03*
X897740Y356230D03*
D15*
X994800Y337820D03*
X1011800Y337820D03*
D13*
X942340Y339480D03*
X942340Y356480D03*
D16*
X840740Y271780D03*
X866140Y271780D03*
X891540Y271780D03*
X916940Y271780D03*
D17*
X1017190Y358080D03*
X1017190Y414080D03*
D18*
X980440Y371080D03*
X980440Y381080D03*
X980440Y391080D03*
X980440Y401080D03*
D16*
X942340Y271780D03*
D17*
X791290Y414080D03*
X791290Y358080D03*
D18*
X828040Y401080D03*
X828040Y391080D03*
X828040Y381080D03*
X828040Y371080D03*
D19*
X797360Y345120D02*
X797360Y338140D01*
X790380Y338140D01*
X790380Y345120D01*
X797360Y345120D01*
X797360Y342940D02*
X790380Y342940D01*
X814900Y345120D02*
X814900Y338140D01*
X807920Y338140D01*
X807920Y345120D01*
X814900Y345120D01*
X814900Y342940D02*
X807920Y342940D01*
D15*
X845430Y341630D03*
X828430Y341630D03*
D20*
X877140Y381080D03*
X877140Y391080D03*
X865640Y386080D03*
D13*
X891540Y394580D03*
X891540Y377580D03*
X791718Y432698D03*
X791718Y449698D03*
D20*
X931340Y391080D03*
X931340Y381080D03*
X942840Y386080D03*
D13*
X916940Y377580D03*
X916940Y394580D03*
X813562Y432444D03*
X813562Y449444D03*
D16*
X967740Y271780D03*
D21*
X910738Y419764D03*
X910738Y426264D03*
X910738Y432764D03*
X910738Y439264D03*
X865738Y439264D03*
X865738Y432764D03*
X865738Y426264D03*
X865738Y419764D03*
D13*
X849376Y461382D03*
X849376Y444382D03*
D15*
X884800Y454406D03*
X867800Y454406D03*
X934856Y441198D03*
X951856Y441198D03*
D22*
X846836Y428354D03*
X846836Y410354D03*
D23*
X931164Y427338D03*
X931164Y409338D03*
D24*
X928328Y495795D03*
X920328Y495795D03*
X912328Y495795D03*
X904328Y495795D03*
X896328Y495795D03*
X888328Y495795D03*
X880328Y495795D03*
X880328Y471795D03*
X888328Y471795D03*
X896328Y471795D03*
X904328Y471795D03*
X912328Y471795D03*
X920328Y471795D03*
X928328Y471795D03*
D15*
X860162Y489458D03*
X843162Y489458D03*
D25*
X912072Y456184D03*
X900472Y456184D03*
D10*
X25400Y543560D03*
X228600Y543560D03*
X228600Y746760D03*
X25400Y746760D03*
D11*
X204470Y762000D03*
X12700Y568960D03*
D12*
X88900Y615146D03*
X88900Y603546D03*
X146050Y601260D03*
X146050Y612860D03*
D13*
X107950Y615560D03*
X107950Y598560D03*
D14*
X120500Y598810D03*
X127000Y598810D03*
X133500Y598810D03*
X133500Y615310D03*
X120500Y615310D03*
D15*
X217560Y596900D03*
X234560Y596900D03*
D13*
X165100Y598560D03*
X165100Y615560D03*
D16*
X63500Y530860D03*
X88900Y530860D03*
X114300Y530860D03*
X139700Y530860D03*
D17*
X239950Y617160D03*
X239950Y673160D03*
D18*
X203200Y630160D03*
X203200Y640160D03*
X203200Y650160D03*
X203200Y660160D03*
D16*
X165100Y530860D03*
D17*
X14050Y673160D03*
X14050Y617160D03*
D18*
X50800Y660160D03*
X50800Y650160D03*
X50800Y640160D03*
X50800Y630160D03*
D19*
X20120Y604200D02*
X20120Y597220D01*
X13140Y597220D01*
X13140Y604200D01*
X20120Y604200D01*
X20120Y602020D02*
X13140Y602020D01*
X37660Y604200D02*
X37660Y597220D01*
X30680Y597220D01*
X30680Y604200D01*
X37660Y604200D01*
X37660Y602020D02*
X30680Y602020D01*
D15*
X68190Y600710D03*
X51190Y600710D03*
D20*
X99900Y640160D03*
X99900Y650160D03*
X88400Y645160D03*
D13*
X114300Y653660D03*
X114300Y636660D03*
X14478Y691778D03*
X14478Y708778D03*
D20*
X154100Y650160D03*
X154100Y640160D03*
X165600Y645160D03*
D13*
X139700Y636660D03*
X139700Y653660D03*
X36322Y691524D03*
X36322Y708524D03*
D16*
X190500Y530860D03*
D21*
X133498Y678844D03*
X133498Y685344D03*
X133498Y691844D03*
X133498Y698344D03*
X88498Y698344D03*
X88498Y691844D03*
X88498Y685344D03*
X88498Y678844D03*
D13*
X72136Y720462D03*
X72136Y703462D03*
D15*
X107560Y713486D03*
X90560Y713486D03*
X157616Y700278D03*
X174616Y700278D03*
D22*
X69596Y687434D03*
X69596Y669434D03*
D23*
X153924Y686418D03*
X153924Y668418D03*
D24*
X151088Y754875D03*
X143088Y754875D03*
X135088Y754875D03*
X127088Y754875D03*
X119088Y754875D03*
X111088Y754875D03*
X103088Y754875D03*
X103088Y730875D03*
X111088Y730875D03*
X119088Y730875D03*
X127088Y730875D03*
X135088Y730875D03*
X143088Y730875D03*
X151088Y730875D03*
D15*
X82922Y748538D03*
X65922Y748538D03*
D25*
X134832Y715264D03*
X123232Y715264D03*
D10*
X284480Y543560D03*
X487680Y543560D03*
X487680Y746760D03*
X284480Y746760D03*
D11*
X463550Y762000D03*
X271780Y568960D03*
D12*
X347980Y615146D03*
X347980Y603546D03*
X405130Y601260D03*
X405130Y612860D03*
D13*
X367030Y615560D03*
X367030Y598560D03*
D14*
X379580Y598810D03*
X386080Y598810D03*
X392580Y598810D03*
X392580Y615310D03*
X379580Y615310D03*
D15*
X476640Y596900D03*
X493640Y596900D03*
D13*
X424180Y598560D03*
X424180Y615560D03*
D16*
X322580Y530860D03*
X347980Y530860D03*
X373380Y530860D03*
X398780Y530860D03*
D17*
X499030Y617160D03*
X499030Y673160D03*
D18*
X462280Y630160D03*
X462280Y640160D03*
X462280Y650160D03*
X462280Y660160D03*
D16*
X424180Y530860D03*
D17*
X273130Y673160D03*
X273130Y617160D03*
D18*
X309880Y660160D03*
X309880Y650160D03*
X309880Y640160D03*
X309880Y630160D03*
D19*
X279200Y604200D02*
X279200Y597220D01*
X272220Y597220D01*
X272220Y604200D01*
X279200Y604200D01*
X279200Y602020D02*
X272220Y602020D01*
X296740Y604200D02*
X296740Y597220D01*
X289760Y597220D01*
X289760Y604200D01*
X296740Y604200D01*
X296740Y602020D02*
X289760Y602020D01*
D15*
X327270Y600710D03*
X310270Y600710D03*
D20*
X358980Y640160D03*
X358980Y650160D03*
X347480Y645160D03*
D13*
X373380Y653660D03*
X373380Y636660D03*
X273558Y691778D03*
X273558Y708778D03*
D20*
X413180Y650160D03*
X413180Y640160D03*
X424680Y645160D03*
D13*
X398780Y636660D03*
X398780Y653660D03*
X295402Y691524D03*
X295402Y708524D03*
D16*
X449580Y530860D03*
D21*
X392578Y678844D03*
X392578Y685344D03*
X392578Y691844D03*
X392578Y698344D03*
X347578Y698344D03*
X347578Y691844D03*
X347578Y685344D03*
X347578Y678844D03*
D13*
X331216Y720462D03*
X331216Y703462D03*
D15*
X366640Y713486D03*
X349640Y713486D03*
X416696Y700278D03*
X433696Y700278D03*
D22*
X328676Y687434D03*
X328676Y669434D03*
D23*
X413004Y686418D03*
X413004Y668418D03*
D24*
X410168Y754875D03*
X402168Y754875D03*
X394168Y754875D03*
X386168Y754875D03*
X378168Y754875D03*
X370168Y754875D03*
X362168Y754875D03*
X362168Y730875D03*
X370168Y730875D03*
X378168Y730875D03*
X386168Y730875D03*
X394168Y730875D03*
X402168Y730875D03*
X410168Y730875D03*
D15*
X342002Y748538D03*
X325002Y748538D03*
D25*
X393912Y715264D03*
X382312Y715264D03*
D10*
X543560Y543560D03*
X746760Y543560D03*
X746760Y746760D03*
X543560Y746760D03*
D11*
X722630Y762000D03*
X530860Y568960D03*
D12*
X607060Y615146D03*
X607060Y603546D03*
X664210Y601260D03*
X664210Y612860D03*
D13*
X626110Y615560D03*
X626110Y598560D03*
D14*
X638660Y598810D03*
X645160Y598810D03*
X651660Y598810D03*
X651660Y615310D03*
X638660Y615310D03*
D15*
X735720Y596900D03*
X752720Y596900D03*
D13*
X683260Y598560D03*
X683260Y615560D03*
D16*
X581660Y530860D03*
X607060Y530860D03*
X632460Y530860D03*
X657860Y530860D03*
D17*
X758110Y617160D03*
X758110Y673160D03*
D18*
X721360Y630160D03*
X721360Y640160D03*
X721360Y650160D03*
X721360Y660160D03*
D16*
X683260Y530860D03*
D17*
X532210Y673160D03*
X532210Y617160D03*
D18*
X568960Y660160D03*
X568960Y650160D03*
X568960Y640160D03*
X568960Y630160D03*
D19*
X538280Y604200D02*
X538280Y597220D01*
X531300Y597220D01*
X531300Y604200D01*
X538280Y604200D01*
X538280Y602020D02*
X531300Y602020D01*
X555820Y604200D02*
X555820Y597220D01*
X548840Y597220D01*
X548840Y604200D01*
X555820Y604200D01*
X555820Y602020D02*
X548840Y602020D01*
D15*
X586350Y600710D03*
X569350Y600710D03*
D20*
X618060Y640160D03*
X618060Y650160D03*
X606560Y645160D03*
D13*
X632460Y653660D03*
X632460Y636660D03*
X532638Y691778D03*
X532638Y708778D03*
D20*
X672260Y650160D03*
X672260Y640160D03*
X683760Y645160D03*
D13*
X657860Y636660D03*
X657860Y653660D03*
X554482Y691524D03*
X554482Y708524D03*
D16*
X708660Y530860D03*
D21*
X651658Y678844D03*
X651658Y685344D03*
X651658Y691844D03*
X651658Y698344D03*
X606658Y698344D03*
X606658Y691844D03*
X606658Y685344D03*
X606658Y678844D03*
D13*
X590296Y720462D03*
X590296Y703462D03*
D15*
X625720Y713486D03*
X608720Y713486D03*
X675776Y700278D03*
X692776Y700278D03*
D22*
X587756Y687434D03*
X587756Y669434D03*
D23*
X672084Y686418D03*
X672084Y668418D03*
D24*
X669248Y754875D03*
X661248Y754875D03*
X653248Y754875D03*
X645248Y754875D03*
X637248Y754875D03*
X629248Y754875D03*
X621248Y754875D03*
X621248Y730875D03*
X629248Y730875D03*
X637248Y730875D03*
X645248Y730875D03*
X653248Y730875D03*
X661248Y730875D03*
X669248Y730875D03*
D15*
X601082Y748538D03*
X584082Y748538D03*
D25*
X652992Y715264D03*
X641392Y715264D03*
D10*
X802640Y543560D03*
X1005840Y543560D03*
X1005840Y746760D03*
X802640Y746760D03*
D11*
X981710Y762000D03*
X789940Y568960D03*
D12*
X866140Y615146D03*
X866140Y603546D03*
X923290Y601260D03*
X923290Y612860D03*
D13*
X885190Y615560D03*
X885190Y598560D03*
D14*
X897740Y598810D03*
X904240Y598810D03*
X910740Y598810D03*
X910740Y615310D03*
X897740Y615310D03*
D15*
X994800Y596900D03*
X1011800Y596900D03*
D13*
X942340Y598560D03*
X942340Y615560D03*
D16*
X840740Y530860D03*
X866140Y530860D03*
X891540Y530860D03*
X916940Y530860D03*
D17*
X1017190Y617160D03*
X1017190Y673160D03*
D18*
X980440Y630160D03*
X980440Y640160D03*
X980440Y650160D03*
X980440Y660160D03*
D16*
X942340Y530860D03*
D17*
X791290Y673160D03*
X791290Y617160D03*
D18*
X828040Y660160D03*
X828040Y650160D03*
X828040Y640160D03*
X828040Y630160D03*
D19*
X797360Y604200D02*
X797360Y597220D01*
X790380Y597220D01*
X790380Y604200D01*
X797360Y604200D01*
X797360Y602020D02*
X790380Y602020D01*
X814900Y604200D02*
X814900Y597220D01*
X807920Y597220D01*
X807920Y604200D01*
X814900Y604200D01*
X814900Y602020D02*
X807920Y602020D01*
D15*
X845430Y600710D03*
X828430Y600710D03*
D20*
X877140Y640160D03*
X877140Y650160D03*
X865640Y645160D03*
D13*
X891540Y653660D03*
X891540Y636660D03*
X791718Y691778D03*
X791718Y708778D03*
D20*
X931340Y650160D03*
X931340Y640160D03*
X942840Y645160D03*
D13*
X916940Y636660D03*
X916940Y653660D03*
X813562Y691524D03*
X813562Y708524D03*
D16*
X967740Y530860D03*
D21*
X910738Y678844D03*
X910738Y685344D03*
X910738Y691844D03*
X910738Y698344D03*
X865738Y698344D03*
X865738Y691844D03*
X865738Y685344D03*
X865738Y678844D03*
D13*
X849376Y720462D03*
X849376Y703462D03*
D15*
X884800Y713486D03*
X867800Y713486D03*
X934856Y700278D03*
X951856Y700278D03*
D22*
X846836Y687434D03*
X846836Y669434D03*
D23*
X931164Y686418D03*
X931164Y668418D03*
D24*
X928328Y754875D03*
X920328Y754875D03*
X912328Y754875D03*
X904328Y754875D03*
X896328Y754875D03*
X888328Y754875D03*
X880328Y754875D03*
X880328Y730875D03*
X888328Y730875D03*
X896328Y730875D03*
X904328Y730875D03*
X912328Y730875D03*
X920328Y730875D03*
X928328Y730875D03*
D15*
X860162Y748538D03*
X843162Y748538D03*
D25*
X912072Y715264D03*
X900472Y715264D03*
D10*
X25400Y802640D03*
X228600Y802640D03*
X228600Y1005840D03*
X25400Y1005840D03*
D11*
X204470Y1021080D03*
X12700Y828040D03*
D12*
X88900Y874226D03*
X88900Y862626D03*
X146050Y860340D03*
X146050Y871940D03*
D13*
X107950Y874640D03*
X107950Y857640D03*
D14*
X120500Y857890D03*
X127000Y857890D03*
X133500Y857890D03*
X133500Y874390D03*
X120500Y874390D03*
D15*
X217560Y855980D03*
X234560Y855980D03*
D13*
X165100Y857640D03*
X165100Y874640D03*
D16*
X63500Y789940D03*
X88900Y789940D03*
X114300Y789940D03*
X139700Y789940D03*
D17*
X239950Y876240D03*
X239950Y932240D03*
D18*
X203200Y889240D03*
X203200Y899240D03*
X203200Y909240D03*
X203200Y919240D03*
D16*
X165100Y789940D03*
D17*
X14050Y932240D03*
X14050Y876240D03*
D18*
X50800Y919240D03*
X50800Y909240D03*
X50800Y899240D03*
X50800Y889240D03*
D19*
X20120Y863280D02*
X20120Y856300D01*
X13140Y856300D01*
X13140Y863280D01*
X20120Y863280D01*
X20120Y861100D02*
X13140Y861100D01*
X37660Y863280D02*
X37660Y856300D01*
X30680Y856300D01*
X30680Y863280D01*
X37660Y863280D01*
X37660Y861100D02*
X30680Y861100D01*
D15*
X68190Y859790D03*
X51190Y859790D03*
D20*
X99900Y899240D03*
X99900Y909240D03*
X88400Y904240D03*
D13*
X114300Y912740D03*
X114300Y895740D03*
X14478Y950858D03*
X14478Y967858D03*
D20*
X154100Y909240D03*
X154100Y899240D03*
X165600Y904240D03*
D13*
X139700Y895740D03*
X139700Y912740D03*
X36322Y950604D03*
X36322Y967604D03*
D16*
X190500Y789940D03*
D21*
X133498Y937924D03*
X133498Y944424D03*
X133498Y950924D03*
X133498Y957424D03*
X88498Y957424D03*
X88498Y950924D03*
X88498Y944424D03*
X88498Y937924D03*
D13*
X72136Y979542D03*
X72136Y962542D03*
D15*
X107560Y972566D03*
X90560Y972566D03*
X157616Y959358D03*
X174616Y959358D03*
D22*
X69596Y946514D03*
X69596Y928514D03*
D23*
X153924Y945498D03*
X153924Y927498D03*
D24*
X151088Y1013955D03*
X143088Y1013955D03*
X135088Y1013955D03*
X127088Y1013955D03*
X119088Y1013955D03*
X111088Y1013955D03*
X103088Y1013955D03*
X103088Y989955D03*
X111088Y989955D03*
X119088Y989955D03*
X127088Y989955D03*
X135088Y989955D03*
X143088Y989955D03*
X151088Y989955D03*
D15*
X82922Y1007618D03*
X65922Y1007618D03*
D25*
X134832Y974344D03*
X123232Y974344D03*
D10*
X284480Y802640D03*
X487680Y802640D03*
X487680Y1005840D03*
X284480Y1005840D03*
D11*
X463550Y1021080D03*
X271780Y828040D03*
D12*
X347980Y874226D03*
X347980Y862626D03*
X405130Y860340D03*
X405130Y871940D03*
D13*
X367030Y874640D03*
X367030Y857640D03*
D14*
X379580Y857890D03*
X386080Y857890D03*
X392580Y857890D03*
X392580Y874390D03*
X379580Y874390D03*
D15*
X476640Y855980D03*
X493640Y855980D03*
D13*
X424180Y857640D03*
X424180Y874640D03*
D16*
X322580Y789940D03*
X347980Y789940D03*
X373380Y789940D03*
X398780Y789940D03*
D17*
X499030Y876240D03*
X499030Y932240D03*
D18*
X462280Y889240D03*
X462280Y899240D03*
X462280Y909240D03*
X462280Y919240D03*
D16*
X424180Y789940D03*
D17*
X273130Y932240D03*
X273130Y876240D03*
D18*
X309880Y919240D03*
X309880Y909240D03*
X309880Y899240D03*
X309880Y889240D03*
D19*
X279200Y863280D02*
X279200Y856300D01*
X272220Y856300D01*
X272220Y863280D01*
X279200Y863280D01*
X279200Y861100D02*
X272220Y861100D01*
X296740Y863280D02*
X296740Y856300D01*
X289760Y856300D01*
X289760Y863280D01*
X296740Y863280D01*
X296740Y861100D02*
X289760Y861100D01*
D15*
X327270Y859790D03*
X310270Y859790D03*
D20*
X358980Y899240D03*
X358980Y909240D03*
X347480Y904240D03*
D13*
X373380Y912740D03*
X373380Y895740D03*
X273558Y950858D03*
X273558Y967858D03*
D20*
X413180Y909240D03*
X413180Y899240D03*
X424680Y904240D03*
D13*
X398780Y895740D03*
X398780Y912740D03*
X295402Y950604D03*
X295402Y967604D03*
D16*
X449580Y789940D03*
D21*
X392578Y937924D03*
X392578Y944424D03*
X392578Y950924D03*
X392578Y957424D03*
X347578Y957424D03*
X347578Y950924D03*
X347578Y944424D03*
X347578Y937924D03*
D13*
X331216Y979542D03*
X331216Y962542D03*
D15*
X366640Y972566D03*
X349640Y972566D03*
X416696Y959358D03*
X433696Y959358D03*
D22*
X328676Y946514D03*
X328676Y928514D03*
D23*
X413004Y945498D03*
X413004Y927498D03*
D24*
X410168Y1013955D03*
X402168Y1013955D03*
X394168Y1013955D03*
X386168Y1013955D03*
X378168Y1013955D03*
X370168Y1013955D03*
X362168Y1013955D03*
X362168Y989955D03*
X370168Y989955D03*
X378168Y989955D03*
X386168Y989955D03*
X394168Y989955D03*
X402168Y989955D03*
X410168Y989955D03*
D15*
X342002Y1007618D03*
X325002Y1007618D03*
D25*
X393912Y974344D03*
X382312Y974344D03*
D10*
X543560Y802640D03*
X746760Y802640D03*
X746760Y1005840D03*
X543560Y1005840D03*
D11*
X722630Y1021080D03*
X530860Y828040D03*
D12*
X607060Y874226D03*
X607060Y862626D03*
X664210Y860340D03*
X664210Y871940D03*
D13*
X626110Y874640D03*
X626110Y857640D03*
D14*
X638660Y857890D03*
X645160Y857890D03*
X651660Y857890D03*
X651660Y874390D03*
X638660Y874390D03*
D15*
X735720Y855980D03*
X752720Y855980D03*
D13*
X683260Y857640D03*
X683260Y874640D03*
D16*
X581660Y789940D03*
X607060Y789940D03*
X632460Y789940D03*
X657860Y789940D03*
D17*
X758110Y876240D03*
X758110Y932240D03*
D18*
X721360Y889240D03*
X721360Y899240D03*
X721360Y909240D03*
X721360Y919240D03*
D16*
X683260Y789940D03*
D17*
X532210Y932240D03*
X532210Y876240D03*
D18*
X568960Y919240D03*
X568960Y909240D03*
X568960Y899240D03*
X568960Y889240D03*
D19*
X538280Y863280D02*
X538280Y856300D01*
X531300Y856300D01*
X531300Y863280D01*
X538280Y863280D01*
X538280Y861100D02*
X531300Y861100D01*
X555820Y863280D02*
X555820Y856300D01*
X548840Y856300D01*
X548840Y863280D01*
X555820Y863280D01*
X555820Y861100D02*
X548840Y861100D01*
D15*
X586350Y859790D03*
X569350Y859790D03*
D20*
X618060Y899240D03*
X618060Y909240D03*
X606560Y904240D03*
D13*
X632460Y912740D03*
X632460Y895740D03*
X532638Y950858D03*
X532638Y967858D03*
D20*
X672260Y909240D03*
X672260Y899240D03*
X683760Y904240D03*
D13*
X657860Y895740D03*
X657860Y912740D03*
X554482Y950604D03*
X554482Y967604D03*
D16*
X708660Y789940D03*
D21*
X651658Y937924D03*
X651658Y944424D03*
X651658Y950924D03*
X651658Y957424D03*
X606658Y957424D03*
X606658Y950924D03*
X606658Y944424D03*
X606658Y937924D03*
D13*
X590296Y979542D03*
X590296Y962542D03*
D15*
X625720Y972566D03*
X608720Y972566D03*
X675776Y959358D03*
X692776Y959358D03*
D22*
X587756Y946514D03*
X587756Y928514D03*
D23*
X672084Y945498D03*
X672084Y927498D03*
D24*
X669248Y1013955D03*
X661248Y1013955D03*
X653248Y1013955D03*
X645248Y1013955D03*
X637248Y1013955D03*
X629248Y1013955D03*
X621248Y1013955D03*
X621248Y989955D03*
X629248Y989955D03*
X637248Y989955D03*
X645248Y989955D03*
X653248Y989955D03*
X661248Y989955D03*
X669248Y989955D03*
D15*
X601082Y1007618D03*
X584082Y1007618D03*
D25*
X652992Y974344D03*
X641392Y974344D03*
D10*
X802640Y802640D03*
X1005840Y802640D03*
X1005840Y1005840D03*
X802640Y1005840D03*
D11*
X981710Y1021080D03*
X789940Y828040D03*
D12*
X866140Y874226D03*
X866140Y862626D03*
X923290Y860340D03*
X923290Y871940D03*
D13*
X885190Y874640D03*
X885190Y857640D03*
D14*
X897740Y857890D03*
X904240Y857890D03*
X910740Y857890D03*
X910740Y874390D03*
X897740Y874390D03*
D15*
X994800Y855980D03*
X1011800Y855980D03*
D13*
X942340Y857640D03*
X942340Y874640D03*
D16*
X840740Y789940D03*
X866140Y789940D03*
X891540Y789940D03*
X916940Y789940D03*
D17*
X1017190Y876240D03*
X1017190Y932240D03*
D18*
X980440Y889240D03*
X980440Y899240D03*
X980440Y909240D03*
X980440Y919240D03*
D16*
X942340Y789940D03*
D17*
X791290Y932240D03*
X791290Y876240D03*
D18*
X828040Y919240D03*
X828040Y909240D03*
X828040Y899240D03*
X828040Y889240D03*
D19*
X797360Y863280D02*
X797360Y856300D01*
X790380Y856300D01*
X790380Y863280D01*
X797360Y863280D01*
X797360Y861100D02*
X790380Y861100D01*
X814900Y863280D02*
X814900Y856300D01*
X807920Y856300D01*
X807920Y863280D01*
X814900Y863280D01*
X814900Y861100D02*
X807920Y861100D01*
D15*
X845430Y859790D03*
X828430Y859790D03*
D20*
X877140Y899240D03*
X877140Y909240D03*
X865640Y904240D03*
D13*
X891540Y912740D03*
X891540Y895740D03*
X791718Y950858D03*
X791718Y967858D03*
D20*
X931340Y909240D03*
X931340Y899240D03*
X942840Y904240D03*
D13*
X916940Y895740D03*
X916940Y912740D03*
X813562Y950604D03*
X813562Y967604D03*
D16*
X967740Y789940D03*
D21*
X910738Y937924D03*
X910738Y944424D03*
X910738Y950924D03*
X910738Y957424D03*
X865738Y957424D03*
X865738Y950924D03*
X865738Y944424D03*
X865738Y937924D03*
D13*
X849376Y979542D03*
X849376Y962542D03*
D15*
X884800Y972566D03*
X867800Y972566D03*
X934856Y959358D03*
X951856Y959358D03*
D22*
X846836Y946514D03*
X846836Y928514D03*
D23*
X931164Y945498D03*
X931164Y927498D03*
D24*
X928328Y1013955D03*
X920328Y1013955D03*
X912328Y1013955D03*
X904328Y1013955D03*
X896328Y1013955D03*
X888328Y1013955D03*
X880328Y1013955D03*
X880328Y989955D03*
X888328Y989955D03*
X896328Y989955D03*
X904328Y989955D03*
X912328Y989955D03*
X920328Y989955D03*
X928328Y989955D03*
D15*
X860162Y1007618D03*
X843162Y1007618D03*
D25*
X912072Y974344D03*
X900472Y974344D03*
D10*
X25400Y1061720D03*
X228600Y1061720D03*
X228600Y1264920D03*
X25400Y1264920D03*
D11*
X204470Y1280160D03*
X12700Y1087120D03*
D12*
X88900Y1133306D03*
X88900Y1121706D03*
X146050Y1119420D03*
X146050Y1131020D03*
D13*
X107950Y1133720D03*
X107950Y1116720D03*
D14*
X120500Y1116970D03*
X127000Y1116970D03*
X133500Y1116970D03*
X133500Y1133470D03*
X120500Y1133470D03*
D15*
X217560Y1115060D03*
X234560Y1115060D03*
D13*
X165100Y1116720D03*
X165100Y1133720D03*
D16*
X63500Y1049020D03*
X88900Y1049020D03*
X114300Y1049020D03*
X139700Y1049020D03*
D17*
X239950Y1135320D03*
X239950Y1191320D03*
D18*
X203200Y1148320D03*
X203200Y1158320D03*
X203200Y1168320D03*
X203200Y1178320D03*
D16*
X165100Y1049020D03*
D17*
X14050Y1191320D03*
X14050Y1135320D03*
D18*
X50800Y1178320D03*
X50800Y1168320D03*
X50800Y1158320D03*
X50800Y1148320D03*
D19*
X20120Y1122360D02*
X20120Y1115380D01*
X13140Y1115380D01*
X13140Y1122360D01*
X20120Y1122360D01*
X20120Y1120180D02*
X13140Y1120180D01*
X37660Y1122360D02*
X37660Y1115380D01*
X30680Y1115380D01*
X30680Y1122360D01*
X37660Y1122360D01*
X37660Y1120180D02*
X30680Y1120180D01*
D15*
X68190Y1118870D03*
X51190Y1118870D03*
D20*
X99900Y1158320D03*
X99900Y1168320D03*
X88400Y1163320D03*
D13*
X114300Y1171820D03*
X114300Y1154820D03*
X14478Y1209938D03*
X14478Y1226938D03*
D20*
X154100Y1168320D03*
X154100Y1158320D03*
X165600Y1163320D03*
D13*
X139700Y1154820D03*
X139700Y1171820D03*
X36322Y1209684D03*
X36322Y1226684D03*
D16*
X190500Y1049020D03*
D21*
X133498Y1197004D03*
X133498Y1203504D03*
X133498Y1210004D03*
X133498Y1216504D03*
X88498Y1216504D03*
X88498Y1210004D03*
X88498Y1203504D03*
X88498Y1197004D03*
D13*
X72136Y1238622D03*
X72136Y1221622D03*
D15*
X107560Y1231646D03*
X90560Y1231646D03*
X157616Y1218438D03*
X174616Y1218438D03*
D22*
X69596Y1205594D03*
X69596Y1187594D03*
D23*
X153924Y1204578D03*
X153924Y1186578D03*
D24*
X151088Y1273035D03*
X143088Y1273035D03*
X135088Y1273035D03*
X127088Y1273035D03*
X119088Y1273035D03*
X111088Y1273035D03*
X103088Y1273035D03*
X103088Y1249035D03*
X111088Y1249035D03*
X119088Y1249035D03*
X127088Y1249035D03*
X135088Y1249035D03*
X143088Y1249035D03*
X151088Y1249035D03*
D15*
X82922Y1266698D03*
X65922Y1266698D03*
D25*
X134832Y1233424D03*
X123232Y1233424D03*
D10*
X284480Y1061720D03*
X487680Y1061720D03*
X487680Y1264920D03*
X284480Y1264920D03*
D11*
X463550Y1280160D03*
X271780Y1087120D03*
D12*
X347980Y1133306D03*
X347980Y1121706D03*
X405130Y1119420D03*
X405130Y1131020D03*
D13*
X367030Y1133720D03*
X367030Y1116720D03*
D14*
X379580Y1116970D03*
X386080Y1116970D03*
X392580Y1116970D03*
X392580Y1133470D03*
X379580Y1133470D03*
D15*
X476640Y1115060D03*
X493640Y1115060D03*
D13*
X424180Y1116720D03*
X424180Y1133720D03*
D16*
X322580Y1049020D03*
X347980Y1049020D03*
X373380Y1049020D03*
X398780Y1049020D03*
D17*
X499030Y1135320D03*
X499030Y1191320D03*
D18*
X462280Y1148320D03*
X462280Y1158320D03*
X462280Y1168320D03*
X462280Y1178320D03*
D16*
X424180Y1049020D03*
D17*
X273130Y1191320D03*
X273130Y1135320D03*
D18*
X309880Y1178320D03*
X309880Y1168320D03*
X309880Y1158320D03*
X309880Y1148320D03*
D19*
X279200Y1122360D02*
X279200Y1115380D01*
X272220Y1115380D01*
X272220Y1122360D01*
X279200Y1122360D01*
X279200Y1120180D02*
X272220Y1120180D01*
X296740Y1122360D02*
X296740Y1115380D01*
X289760Y1115380D01*
X289760Y1122360D01*
X296740Y1122360D01*
X296740Y1120180D02*
X289760Y1120180D01*
D15*
X327270Y1118870D03*
X310270Y1118870D03*
D20*
X358980Y1158320D03*
X358980Y1168320D03*
X347480Y1163320D03*
D13*
X373380Y1171820D03*
X373380Y1154820D03*
X273558Y1209938D03*
X273558Y1226938D03*
D20*
X413180Y1168320D03*
X413180Y1158320D03*
X424680Y1163320D03*
D13*
X398780Y1154820D03*
X398780Y1171820D03*
X295402Y1209684D03*
X295402Y1226684D03*
D16*
X449580Y1049020D03*
D21*
X392578Y1197004D03*
X392578Y1203504D03*
X392578Y1210004D03*
X392578Y1216504D03*
X347578Y1216504D03*
X347578Y1210004D03*
X347578Y1203504D03*
X347578Y1197004D03*
D13*
X331216Y1238622D03*
X331216Y1221622D03*
D15*
X366640Y1231646D03*
X349640Y1231646D03*
X416696Y1218438D03*
X433696Y1218438D03*
D22*
X328676Y1205594D03*
X328676Y1187594D03*
D23*
X413004Y1204578D03*
X413004Y1186578D03*
D24*
X410168Y1273035D03*
X402168Y1273035D03*
X394168Y1273035D03*
X386168Y1273035D03*
X378168Y1273035D03*
X370168Y1273035D03*
X362168Y1273035D03*
X362168Y1249035D03*
X370168Y1249035D03*
X378168Y1249035D03*
X386168Y1249035D03*
X394168Y1249035D03*
X402168Y1249035D03*
X410168Y1249035D03*
D15*
X342002Y1266698D03*
X325002Y1266698D03*
D25*
X393912Y1233424D03*
X382312Y1233424D03*
D10*
X543560Y1061720D03*
X746760Y1061720D03*
X746760Y1264920D03*
X543560Y1264920D03*
D11*
X722630Y1280160D03*
X530860Y1087120D03*
D12*
X607060Y1133306D03*
X607060Y1121706D03*
X664210Y1119420D03*
X664210Y1131020D03*
D13*
X626110Y1133720D03*
X626110Y1116720D03*
D14*
X638660Y1116970D03*
X645160Y1116970D03*
X651660Y1116970D03*
X651660Y1133470D03*
X638660Y1133470D03*
D15*
X735720Y1115060D03*
X752720Y1115060D03*
D13*
X683260Y1116720D03*
X683260Y1133720D03*
D16*
X581660Y1049020D03*
X607060Y1049020D03*
X632460Y1049020D03*
X657860Y1049020D03*
D17*
X758110Y1135320D03*
X758110Y1191320D03*
D18*
X721360Y1148320D03*
X721360Y1158320D03*
X721360Y1168320D03*
X721360Y1178320D03*
D16*
X683260Y1049020D03*
D17*
X532210Y1191320D03*
X532210Y1135320D03*
D18*
X568960Y1178320D03*
X568960Y1168320D03*
X568960Y1158320D03*
X568960Y1148320D03*
D19*
X538280Y1122360D02*
X538280Y1115380D01*
X531300Y1115380D01*
X531300Y1122360D01*
X538280Y1122360D01*
X538280Y1120180D02*
X531300Y1120180D01*
X555820Y1122360D02*
X555820Y1115380D01*
X548840Y1115380D01*
X548840Y1122360D01*
X555820Y1122360D01*
X555820Y1120180D02*
X548840Y1120180D01*
D15*
X586350Y1118870D03*
X569350Y1118870D03*
D20*
X618060Y1158320D03*
X618060Y1168320D03*
X606560Y1163320D03*
D13*
X632460Y1171820D03*
X632460Y1154820D03*
X532638Y1209938D03*
X532638Y1226938D03*
D20*
X672260Y1168320D03*
X672260Y1158320D03*
X683760Y1163320D03*
D13*
X657860Y1154820D03*
X657860Y1171820D03*
X554482Y1209684D03*
X554482Y1226684D03*
D16*
X708660Y1049020D03*
D21*
X651658Y1197004D03*
X651658Y1203504D03*
X651658Y1210004D03*
X651658Y1216504D03*
X606658Y1216504D03*
X606658Y1210004D03*
X606658Y1203504D03*
X606658Y1197004D03*
D13*
X590296Y1238622D03*
X590296Y1221622D03*
D15*
X625720Y1231646D03*
X608720Y1231646D03*
X675776Y1218438D03*
X692776Y1218438D03*
D22*
X587756Y1205594D03*
X587756Y1187594D03*
D23*
X672084Y1204578D03*
X672084Y1186578D03*
D24*
X669248Y1273035D03*
X661248Y1273035D03*
X653248Y1273035D03*
X645248Y1273035D03*
X637248Y1273035D03*
X629248Y1273035D03*
X621248Y1273035D03*
X621248Y1249035D03*
X629248Y1249035D03*
X637248Y1249035D03*
X645248Y1249035D03*
X653248Y1249035D03*
X661248Y1249035D03*
X669248Y1249035D03*
D15*
X601082Y1266698D03*
X584082Y1266698D03*
D25*
X652992Y1233424D03*
X641392Y1233424D03*
D10*
X802640Y1061720D03*
X1005840Y1061720D03*
X1005840Y1264920D03*
X802640Y1264920D03*
D11*
X981710Y1280160D03*
X789940Y1087120D03*
D12*
X866140Y1133306D03*
X866140Y1121706D03*
X923290Y1119420D03*
X923290Y1131020D03*
D13*
X885190Y1133720D03*
X885190Y1116720D03*
D14*
X897740Y1116970D03*
X904240Y1116970D03*
X910740Y1116970D03*
X910740Y1133470D03*
X897740Y1133470D03*
D15*
X994800Y1115060D03*
X1011800Y1115060D03*
D13*
X942340Y1116720D03*
X942340Y1133720D03*
D16*
X840740Y1049020D03*
X866140Y1049020D03*
X891540Y1049020D03*
X916940Y1049020D03*
D17*
X1017190Y1135320D03*
X1017190Y1191320D03*
D18*
X980440Y1148320D03*
X980440Y1158320D03*
X980440Y1168320D03*
X980440Y1178320D03*
D16*
X942340Y1049020D03*
D17*
X791290Y1191320D03*
X791290Y1135320D03*
D18*
X828040Y1178320D03*
X828040Y1168320D03*
X828040Y1158320D03*
X828040Y1148320D03*
D19*
X797360Y1122360D02*
X797360Y1115380D01*
X790380Y1115380D01*
X790380Y1122360D01*
X797360Y1122360D01*
X797360Y1120180D02*
X790380Y1120180D01*
X814900Y1122360D02*
X814900Y1115380D01*
X807920Y1115380D01*
X807920Y1122360D01*
X814900Y1122360D01*
X814900Y1120180D02*
X807920Y1120180D01*
D15*
X845430Y1118870D03*
X828430Y1118870D03*
D20*
X877140Y1158320D03*
X877140Y1168320D03*
X865640Y1163320D03*
D13*
X891540Y1171820D03*
X891540Y1154820D03*
X791718Y1209938D03*
X791718Y1226938D03*
D20*
X931340Y1168320D03*
X931340Y1158320D03*
X942840Y1163320D03*
D13*
X916940Y1154820D03*
X916940Y1171820D03*
X813562Y1209684D03*
X813562Y1226684D03*
D16*
X967740Y1049020D03*
D21*
X910738Y1197004D03*
X910738Y1203504D03*
X910738Y1210004D03*
X910738Y1216504D03*
X865738Y1216504D03*
X865738Y1210004D03*
X865738Y1203504D03*
X865738Y1197004D03*
D13*
X849376Y1238622D03*
X849376Y1221622D03*
D15*
X884800Y1231646D03*
X867800Y1231646D03*
X934856Y1218438D03*
X951856Y1218438D03*
D22*
X846836Y1205594D03*
X846836Y1187594D03*
D23*
X931164Y1204578D03*
X931164Y1186578D03*
D24*
X928328Y1273035D03*
X920328Y1273035D03*
X912328Y1273035D03*
X904328Y1273035D03*
X896328Y1273035D03*
X888328Y1273035D03*
X880328Y1273035D03*
X880328Y1249035D03*
X888328Y1249035D03*
X896328Y1249035D03*
X904328Y1249035D03*
X912328Y1249035D03*
X920328Y1249035D03*
X928328Y1249035D03*
D15*
X860162Y1266698D03*
X843162Y1266698D03*
D25*
X912072Y1233424D03*
X900472Y1233424D03*
D10*
X25400Y1320800D03*
X228600Y1320800D03*
X228600Y1524000D03*
X25400Y1524000D03*
D11*
X204470Y1539240D03*
X12700Y1346200D03*
D12*
X88900Y1392386D03*
X88900Y1380786D03*
X146050Y1378500D03*
X146050Y1390100D03*
D13*
X107950Y1392800D03*
X107950Y1375800D03*
D14*
X120500Y1376050D03*
X127000Y1376050D03*
X133500Y1376050D03*
X133500Y1392550D03*
X120500Y1392550D03*
D15*
X217560Y1374140D03*
X234560Y1374140D03*
D13*
X165100Y1375800D03*
X165100Y1392800D03*
D16*
X63500Y1308100D03*
X88900Y1308100D03*
X114300Y1308100D03*
X139700Y1308100D03*
D17*
X239950Y1394400D03*
X239950Y1450400D03*
D18*
X203200Y1407400D03*
X203200Y1417400D03*
X203200Y1427400D03*
X203200Y1437400D03*
D16*
X165100Y1308100D03*
D17*
X14050Y1450400D03*
X14050Y1394400D03*
D18*
X50800Y1437400D03*
X50800Y1427400D03*
X50800Y1417400D03*
X50800Y1407400D03*
D19*
X20120Y1381440D02*
X20120Y1374460D01*
X13140Y1374460D01*
X13140Y1381440D01*
X20120Y1381440D01*
X20120Y1379260D02*
X13140Y1379260D01*
X37660Y1381440D02*
X37660Y1374460D01*
X30680Y1374460D01*
X30680Y1381440D01*
X37660Y1381440D01*
X37660Y1379260D02*
X30680Y1379260D01*
D15*
X68190Y1377950D03*
X51190Y1377950D03*
D20*
X99900Y1417400D03*
X99900Y1427400D03*
X88400Y1422400D03*
D13*
X114300Y1430900D03*
X114300Y1413900D03*
X14478Y1469018D03*
X14478Y1486018D03*
D20*
X154100Y1427400D03*
X154100Y1417400D03*
X165600Y1422400D03*
D13*
X139700Y1413900D03*
X139700Y1430900D03*
X36322Y1468764D03*
X36322Y1485764D03*
D16*
X190500Y1308100D03*
D21*
X133498Y1456084D03*
X133498Y1462584D03*
X133498Y1469084D03*
X133498Y1475584D03*
X88498Y1475584D03*
X88498Y1469084D03*
X88498Y1462584D03*
X88498Y1456084D03*
D13*
X72136Y1497702D03*
X72136Y1480702D03*
D15*
X107560Y1490726D03*
X90560Y1490726D03*
X157616Y1477518D03*
X174616Y1477518D03*
D22*
X69596Y1464674D03*
X69596Y1446674D03*
D23*
X153924Y1463658D03*
X153924Y1445658D03*
D24*
X151088Y1532115D03*
X143088Y1532115D03*
X135088Y1532115D03*
X127088Y1532115D03*
X119088Y1532115D03*
X111088Y1532115D03*
X103088Y1532115D03*
X103088Y1508115D03*
X111088Y1508115D03*
X119088Y1508115D03*
X127088Y1508115D03*
X135088Y1508115D03*
X143088Y1508115D03*
X151088Y1508115D03*
D15*
X82922Y1525778D03*
X65922Y1525778D03*
D25*
X134832Y1492504D03*
X123232Y1492504D03*
D10*
X284480Y1320800D03*
X487680Y1320800D03*
X487680Y1524000D03*
X284480Y1524000D03*
D11*
X463550Y1539240D03*
X271780Y1346200D03*
D12*
X347980Y1392386D03*
X347980Y1380786D03*
X405130Y1378500D03*
X405130Y1390100D03*
D13*
X367030Y1392800D03*
X367030Y1375800D03*
D14*
X379580Y1376050D03*
X386080Y1376050D03*
X392580Y1376050D03*
X392580Y1392550D03*
X379580Y1392550D03*
D15*
X476640Y1374140D03*
X493640Y1374140D03*
D13*
X424180Y1375800D03*
X424180Y1392800D03*
D16*
X322580Y1308100D03*
X347980Y1308100D03*
X373380Y1308100D03*
X398780Y1308100D03*
D17*
X499030Y1394400D03*
X499030Y1450400D03*
D18*
X462280Y1407400D03*
X462280Y1417400D03*
X462280Y1427400D03*
X462280Y1437400D03*
D16*
X424180Y1308100D03*
D17*
X273130Y1450400D03*
X273130Y1394400D03*
D18*
X309880Y1437400D03*
X309880Y1427400D03*
X309880Y1417400D03*
X309880Y1407400D03*
D19*
X279200Y1381440D02*
X279200Y1374460D01*
X272220Y1374460D01*
X272220Y1381440D01*
X279200Y1381440D01*
X279200Y1379260D02*
X272220Y1379260D01*
X296740Y1381440D02*
X296740Y1374460D01*
X289760Y1374460D01*
X289760Y1381440D01*
X296740Y1381440D01*
X296740Y1379260D02*
X289760Y1379260D01*
D15*
X327270Y1377950D03*
X310270Y1377950D03*
D20*
X358980Y1417400D03*
X358980Y1427400D03*
X347480Y1422400D03*
D13*
X373380Y1430900D03*
X373380Y1413900D03*
X273558Y1469018D03*
X273558Y1486018D03*
D20*
X413180Y1427400D03*
X413180Y1417400D03*
X424680Y1422400D03*
D13*
X398780Y1413900D03*
X398780Y1430900D03*
X295402Y1468764D03*
X295402Y1485764D03*
D16*
X449580Y1308100D03*
D21*
X392578Y1456084D03*
X392578Y1462584D03*
X392578Y1469084D03*
X392578Y1475584D03*
X347578Y1475584D03*
X347578Y1469084D03*
X347578Y1462584D03*
X347578Y1456084D03*
D13*
X331216Y1497702D03*
X331216Y1480702D03*
D15*
X366640Y1490726D03*
X349640Y1490726D03*
X416696Y1477518D03*
X433696Y1477518D03*
D22*
X328676Y1464674D03*
X328676Y1446674D03*
D23*
X413004Y1463658D03*
X413004Y1445658D03*
D24*
X410168Y1532115D03*
X402168Y1532115D03*
X394168Y1532115D03*
X386168Y1532115D03*
X378168Y1532115D03*
X370168Y1532115D03*
X362168Y1532115D03*
X362168Y1508115D03*
X370168Y1508115D03*
X378168Y1508115D03*
X386168Y1508115D03*
X394168Y1508115D03*
X402168Y1508115D03*
X410168Y1508115D03*
D15*
X342002Y1525778D03*
X325002Y1525778D03*
D25*
X393912Y1492504D03*
X382312Y1492504D03*
D10*
X543560Y1320800D03*
X746760Y1320800D03*
X746760Y1524000D03*
X543560Y1524000D03*
D11*
X722630Y1539240D03*
X530860Y1346200D03*
D12*
X607060Y1392386D03*
X607060Y1380786D03*
X664210Y1378500D03*
X664210Y1390100D03*
D13*
X626110Y1392800D03*
X626110Y1375800D03*
D14*
X638660Y1376050D03*
X645160Y1376050D03*
X651660Y1376050D03*
X651660Y1392550D03*
X638660Y1392550D03*
D15*
X735720Y1374140D03*
X752720Y1374140D03*
D13*
X683260Y1375800D03*
X683260Y1392800D03*
D16*
X581660Y1308100D03*
X607060Y1308100D03*
X632460Y1308100D03*
X657860Y1308100D03*
D17*
X758110Y1394400D03*
X758110Y1450400D03*
D18*
X721360Y1407400D03*
X721360Y1417400D03*
X721360Y1427400D03*
X721360Y1437400D03*
D16*
X683260Y1308100D03*
D17*
X532210Y1450400D03*
X532210Y1394400D03*
D18*
X568960Y1437400D03*
X568960Y1427400D03*
X568960Y1417400D03*
X568960Y1407400D03*
D19*
X538280Y1381440D02*
X538280Y1374460D01*
X531300Y1374460D01*
X531300Y1381440D01*
X538280Y1381440D01*
X538280Y1379260D02*
X531300Y1379260D01*
X555820Y1381440D02*
X555820Y1374460D01*
X548840Y1374460D01*
X548840Y1381440D01*
X555820Y1381440D01*
X555820Y1379260D02*
X548840Y1379260D01*
D15*
X586350Y1377950D03*
X569350Y1377950D03*
D20*
X618060Y1417400D03*
X618060Y1427400D03*
X606560Y1422400D03*
D13*
X632460Y1430900D03*
X632460Y1413900D03*
X532638Y1469018D03*
X532638Y1486018D03*
D20*
X672260Y1427400D03*
X672260Y1417400D03*
X683760Y1422400D03*
D13*
X657860Y1413900D03*
X657860Y1430900D03*
X554482Y1468764D03*
X554482Y1485764D03*
D16*
X708660Y1308100D03*
D21*
X651658Y1456084D03*
X651658Y1462584D03*
X651658Y1469084D03*
X651658Y1475584D03*
X606658Y1475584D03*
X606658Y1469084D03*
X606658Y1462584D03*
X606658Y1456084D03*
D13*
X590296Y1497702D03*
X590296Y1480702D03*
D15*
X625720Y1490726D03*
X608720Y1490726D03*
X675776Y1477518D03*
X692776Y1477518D03*
D22*
X587756Y1464674D03*
X587756Y1446674D03*
D23*
X672084Y1463658D03*
X672084Y1445658D03*
D24*
X669248Y1532115D03*
X661248Y1532115D03*
X653248Y1532115D03*
X645248Y1532115D03*
X637248Y1532115D03*
X629248Y1532115D03*
X621248Y1532115D03*
X621248Y1508115D03*
X629248Y1508115D03*
X637248Y1508115D03*
X645248Y1508115D03*
X653248Y1508115D03*
X661248Y1508115D03*
X669248Y1508115D03*
D15*
X601082Y1525778D03*
X584082Y1525778D03*
D25*
X652992Y1492504D03*
X641392Y1492504D03*
D10*
X802640Y1320800D03*
X1005840Y1320800D03*
X1005840Y1524000D03*
X802640Y1524000D03*
D11*
X981710Y1539240D03*
X789940Y1346200D03*
D12*
X866140Y1392386D03*
X866140Y1380786D03*
X923290Y1378500D03*
X923290Y1390100D03*
D13*
X885190Y1392800D03*
X885190Y1375800D03*
D14*
X897740Y1376050D03*
X904240Y1376050D03*
X910740Y1376050D03*
X910740Y1392550D03*
X897740Y1392550D03*
D15*
X994800Y1374140D03*
X1011800Y1374140D03*
D13*
X942340Y1375800D03*
X942340Y1392800D03*
D16*
X840740Y1308100D03*
X866140Y1308100D03*
X891540Y1308100D03*
X916940Y1308100D03*
D17*
X1017190Y1394400D03*
X1017190Y1450400D03*
D18*
X980440Y1407400D03*
X980440Y1417400D03*
X980440Y1427400D03*
X980440Y1437400D03*
D16*
X942340Y1308100D03*
D17*
X791290Y1450400D03*
X791290Y1394400D03*
D18*
X828040Y1437400D03*
X828040Y1427400D03*
X828040Y1417400D03*
X828040Y1407400D03*
D19*
X797360Y1381440D02*
X797360Y1374460D01*
X790380Y1374460D01*
X790380Y1381440D01*
X797360Y1381440D01*
X797360Y1379260D02*
X790380Y1379260D01*
X814900Y1381440D02*
X814900Y1374460D01*
X807920Y1374460D01*
X807920Y1381440D01*
X814900Y1381440D01*
X814900Y1379260D02*
X807920Y1379260D01*
D15*
X845430Y1377950D03*
X828430Y1377950D03*
D20*
X877140Y1417400D03*
X877140Y1427400D03*
X865640Y1422400D03*
D13*
X891540Y1430900D03*
X891540Y1413900D03*
X791718Y1469018D03*
X791718Y1486018D03*
D20*
X931340Y1427400D03*
X931340Y1417400D03*
X942840Y1422400D03*
D13*
X916940Y1413900D03*
X916940Y1430900D03*
X813562Y1468764D03*
X813562Y1485764D03*
D16*
X967740Y1308100D03*
D21*
X910738Y1456084D03*
X910738Y1462584D03*
X910738Y1469084D03*
X910738Y1475584D03*
X865738Y1475584D03*
X865738Y1469084D03*
X865738Y1462584D03*
X865738Y1456084D03*
D13*
X849376Y1497702D03*
X849376Y1480702D03*
D15*
X884800Y1490726D03*
X867800Y1490726D03*
X934856Y1477518D03*
X951856Y1477518D03*
D22*
X846836Y1464674D03*
X846836Y1446674D03*
D23*
X931164Y1463658D03*
X931164Y1445658D03*
D24*
X928328Y1532115D03*
X920328Y1532115D03*
X912328Y1532115D03*
X904328Y1532115D03*
X896328Y1532115D03*
X888328Y1532115D03*
X880328Y1532115D03*
X880328Y1508115D03*
X888328Y1508115D03*
X896328Y1508115D03*
X904328Y1508115D03*
X912328Y1508115D03*
X920328Y1508115D03*
X928328Y1508115D03*
D15*
X860162Y1525778D03*
X843162Y1525778D03*
D25*
X912072Y1492504D03*
X900472Y1492504D03*
D11*
X68580Y1570355D03*
X962025Y1570355D03*
D26*
X59525Y-20955D02*
X59528Y-20733D01*
X59536Y-20511D01*
X59550Y-20289D01*
X59569Y-20067D01*
X59593Y-19847D01*
X59623Y-19626D01*
X59658Y-19407D01*
X59699Y-19188D01*
X59745Y-18971D01*
X59796Y-18755D01*
X59853Y-18540D01*
X59915Y-18326D01*
X59982Y-18115D01*
X60054Y-17904D01*
X60132Y-17696D01*
X60214Y-17490D01*
X60302Y-17286D01*
X60394Y-17083D01*
X60492Y-16884D01*
X60594Y-16687D01*
X60701Y-16492D01*
X60813Y-16300D01*
X60930Y-16111D01*
X61051Y-15924D01*
X61177Y-15741D01*
X61307Y-15561D01*
X61442Y-15384D01*
X61580Y-15211D01*
X61723Y-15041D01*
X61871Y-14874D01*
X62022Y-14711D01*
X62177Y-14552D01*
X62336Y-14397D01*
X62499Y-14246D01*
X62666Y-14098D01*
X62836Y-13955D01*
X63009Y-13817D01*
X63186Y-13682D01*
X63366Y-13552D01*
X63549Y-13426D01*
X63736Y-13305D01*
X63925Y-13188D01*
X64117Y-13076D01*
X64312Y-12969D01*
X64509Y-12867D01*
X64708Y-12769D01*
X64911Y-12677D01*
X65115Y-12589D01*
X65321Y-12507D01*
X65529Y-12429D01*
X65740Y-12357D01*
X65951Y-12290D01*
X66165Y-12228D01*
X66380Y-12171D01*
X66596Y-12120D01*
X66813Y-12074D01*
X67032Y-12033D01*
X67251Y-11998D01*
X67472Y-11968D01*
X67692Y-11944D01*
X67914Y-11925D01*
X68136Y-11911D01*
X68358Y-11903D01*
X68580Y-11900D01*
X68802Y-11903D01*
X69024Y-11911D01*
X69246Y-11925D01*
X69468Y-11944D01*
X69688Y-11968D01*
X69909Y-11998D01*
X70128Y-12033D01*
X70347Y-12074D01*
X70564Y-12120D01*
X70780Y-12171D01*
X70995Y-12228D01*
X71209Y-12290D01*
X71420Y-12357D01*
X71631Y-12429D01*
X71839Y-12507D01*
X72045Y-12589D01*
X72249Y-12677D01*
X72452Y-12769D01*
X72651Y-12867D01*
X72848Y-12969D01*
X73043Y-13076D01*
X73235Y-13188D01*
X73424Y-13305D01*
X73611Y-13426D01*
X73794Y-13552D01*
X73974Y-13682D01*
X74151Y-13817D01*
X74324Y-13955D01*
X74494Y-14098D01*
X74661Y-14246D01*
X74824Y-14397D01*
X74983Y-14552D01*
X75138Y-14711D01*
X75289Y-14874D01*
X75437Y-15041D01*
X75580Y-15211D01*
X75718Y-15384D01*
X75853Y-15561D01*
X75983Y-15741D01*
X76109Y-15924D01*
X76230Y-16111D01*
X76347Y-16300D01*
X76459Y-16492D01*
X76566Y-16687D01*
X76668Y-16884D01*
X76766Y-17083D01*
X76858Y-17286D01*
X76946Y-17490D01*
X77028Y-17696D01*
X77106Y-17904D01*
X77178Y-18115D01*
X77245Y-18326D01*
X77307Y-18540D01*
X77364Y-18755D01*
X77415Y-18971D01*
X77461Y-19188D01*
X77502Y-19407D01*
X77537Y-19626D01*
X77567Y-19847D01*
X77591Y-20067D01*
X77610Y-20289D01*
X77624Y-20511D01*
X77632Y-20733D01*
X77635Y-20955D01*
X77632Y-21177D01*
X77624Y-21399D01*
X77610Y-21621D01*
X77591Y-21843D01*
X77567Y-22063D01*
X77537Y-22284D01*
X77502Y-22503D01*
X77461Y-22722D01*
X77415Y-22939D01*
X77364Y-23155D01*
X77307Y-23370D01*
X77245Y-23584D01*
X77178Y-23795D01*
X77106Y-24006D01*
X77028Y-24214D01*
X76946Y-24420D01*
X76858Y-24624D01*
X76766Y-24827D01*
X76668Y-25026D01*
X76566Y-25223D01*
X76459Y-25418D01*
X76347Y-25610D01*
X76230Y-25799D01*
X76109Y-25986D01*
X75983Y-26169D01*
X75853Y-26349D01*
X75718Y-26526D01*
X75580Y-26699D01*
X75437Y-26869D01*
X75289Y-27036D01*
X75138Y-27199D01*
X74983Y-27358D01*
X74824Y-27513D01*
X74661Y-27664D01*
X74494Y-27812D01*
X74324Y-27955D01*
X74151Y-28093D01*
X73974Y-28228D01*
X73794Y-28358D01*
X73611Y-28484D01*
X73424Y-28605D01*
X73235Y-28722D01*
X73043Y-28834D01*
X72848Y-28941D01*
X72651Y-29043D01*
X72452Y-29141D01*
X72249Y-29233D01*
X72045Y-29321D01*
X71839Y-29403D01*
X71631Y-29481D01*
X71420Y-29553D01*
X71209Y-29620D01*
X70995Y-29682D01*
X70780Y-29739D01*
X70564Y-29790D01*
X70347Y-29836D01*
X70128Y-29877D01*
X69909Y-29912D01*
X69688Y-29942D01*
X69468Y-29966D01*
X69246Y-29985D01*
X69024Y-29999D01*
X68802Y-30007D01*
X68580Y-30010D01*
X68358Y-30007D01*
X68136Y-29999D01*
X67914Y-29985D01*
X67692Y-29966D01*
X67472Y-29942D01*
X67251Y-29912D01*
X67032Y-29877D01*
X66813Y-29836D01*
X66596Y-29790D01*
X66380Y-29739D01*
X66165Y-29682D01*
X65951Y-29620D01*
X65740Y-29553D01*
X65529Y-29481D01*
X65321Y-29403D01*
X65115Y-29321D01*
X64911Y-29233D01*
X64708Y-29141D01*
X64509Y-29043D01*
X64312Y-28941D01*
X64117Y-28834D01*
X63925Y-28722D01*
X63736Y-28605D01*
X63549Y-28484D01*
X63366Y-28358D01*
X63186Y-28228D01*
X63009Y-28093D01*
X62836Y-27955D01*
X62666Y-27812D01*
X62499Y-27664D01*
X62336Y-27513D01*
X62177Y-27358D01*
X62022Y-27199D01*
X61871Y-27036D01*
X61723Y-26869D01*
X61580Y-26699D01*
X61442Y-26526D01*
X61307Y-26349D01*
X61177Y-26169D01*
X61051Y-25986D01*
X60930Y-25799D01*
X60813Y-25610D01*
X60701Y-25418D01*
X60594Y-25223D01*
X60492Y-25026D01*
X60394Y-24827D01*
X60302Y-24624D01*
X60214Y-24420D01*
X60132Y-24214D01*
X60054Y-24006D01*
X59982Y-23795D01*
X59915Y-23584D01*
X59853Y-23370D01*
X59796Y-23155D01*
X59745Y-22939D01*
X59699Y-22722D01*
X59658Y-22503D01*
X59623Y-22284D01*
X59593Y-22063D01*
X59569Y-21843D01*
X59550Y-21621D01*
X59536Y-21399D01*
X59528Y-21177D01*
X59525Y-20955D01*
D27*
X68580Y-20955D03*
M02*
