G04 EAGLE Gerber RS-274X export*
G75*
%MOMM*%
%FSLAX34Y34*%
%LPD*%
%INSoldermask Bottom*%
%IPPOS*%
%AMOC8*
5,1,8,0,0,1.08239X$1,22.5*%
G01*
%ADD10C,3.505200*%
%ADD11R,0.863600X1.473200*%
%ADD12C,2.082800*%
%ADD13C,1.203200*%

G36*
X484062Y1357261D02*
X484062Y1357261D01*
X484128Y1357263D01*
X484171Y1357281D01*
X484218Y1357289D01*
X484275Y1357323D01*
X484335Y1357348D01*
X484370Y1357379D01*
X484411Y1357404D01*
X484453Y1357455D01*
X484501Y1357499D01*
X484523Y1357541D01*
X484552Y1357578D01*
X484573Y1357640D01*
X484604Y1357699D01*
X484612Y1357753D01*
X484624Y1357790D01*
X484623Y1357830D01*
X484631Y1357884D01*
X484631Y1360424D01*
X484620Y1360489D01*
X484618Y1360555D01*
X484600Y1360598D01*
X484592Y1360645D01*
X484558Y1360702D01*
X484533Y1360762D01*
X484502Y1360797D01*
X484477Y1360838D01*
X484426Y1360880D01*
X484382Y1360928D01*
X484340Y1360950D01*
X484303Y1360979D01*
X484241Y1361000D01*
X484182Y1361031D01*
X484128Y1361039D01*
X484091Y1361051D01*
X484051Y1361050D01*
X483997Y1361058D01*
X480187Y1361058D01*
X480122Y1361047D01*
X480056Y1361045D01*
X480013Y1361027D01*
X479966Y1361019D01*
X479909Y1360985D01*
X479849Y1360960D01*
X479814Y1360929D01*
X479773Y1360904D01*
X479732Y1360853D01*
X479683Y1360809D01*
X479661Y1360767D01*
X479632Y1360730D01*
X479611Y1360668D01*
X479580Y1360609D01*
X479572Y1360555D01*
X479560Y1360518D01*
X479560Y1360515D01*
X479561Y1360478D01*
X479553Y1360424D01*
X479553Y1357884D01*
X479564Y1357819D01*
X479566Y1357753D01*
X479584Y1357710D01*
X479592Y1357663D01*
X479626Y1357606D01*
X479651Y1357546D01*
X479682Y1357511D01*
X479707Y1357470D01*
X479758Y1357429D01*
X479802Y1357380D01*
X479844Y1357358D01*
X479881Y1357329D01*
X479943Y1357308D01*
X480002Y1357277D01*
X480056Y1357269D01*
X480093Y1357257D01*
X480133Y1357258D01*
X480187Y1357250D01*
X483997Y1357250D01*
X484062Y1357261D01*
G37*
G36*
X224982Y1357261D02*
X224982Y1357261D01*
X225048Y1357263D01*
X225091Y1357281D01*
X225138Y1357289D01*
X225195Y1357323D01*
X225255Y1357348D01*
X225290Y1357379D01*
X225331Y1357404D01*
X225373Y1357455D01*
X225421Y1357499D01*
X225443Y1357541D01*
X225472Y1357578D01*
X225493Y1357640D01*
X225524Y1357699D01*
X225532Y1357753D01*
X225544Y1357790D01*
X225543Y1357830D01*
X225551Y1357884D01*
X225551Y1360424D01*
X225540Y1360489D01*
X225538Y1360555D01*
X225520Y1360598D01*
X225512Y1360645D01*
X225478Y1360702D01*
X225453Y1360762D01*
X225422Y1360797D01*
X225397Y1360838D01*
X225346Y1360880D01*
X225302Y1360928D01*
X225260Y1360950D01*
X225223Y1360979D01*
X225161Y1361000D01*
X225102Y1361031D01*
X225048Y1361039D01*
X225011Y1361051D01*
X224971Y1361050D01*
X224917Y1361058D01*
X221107Y1361058D01*
X221042Y1361047D01*
X220976Y1361045D01*
X220933Y1361027D01*
X220886Y1361019D01*
X220829Y1360985D01*
X220769Y1360960D01*
X220734Y1360929D01*
X220693Y1360904D01*
X220652Y1360853D01*
X220603Y1360809D01*
X220581Y1360767D01*
X220552Y1360730D01*
X220531Y1360668D01*
X220500Y1360609D01*
X220492Y1360555D01*
X220480Y1360518D01*
X220480Y1360515D01*
X220481Y1360478D01*
X220473Y1360424D01*
X220473Y1357884D01*
X220484Y1357819D01*
X220486Y1357753D01*
X220504Y1357710D01*
X220512Y1357663D01*
X220546Y1357606D01*
X220571Y1357546D01*
X220602Y1357511D01*
X220627Y1357470D01*
X220678Y1357429D01*
X220722Y1357380D01*
X220764Y1357358D01*
X220801Y1357329D01*
X220863Y1357308D01*
X220922Y1357277D01*
X220976Y1357269D01*
X221013Y1357257D01*
X221053Y1357258D01*
X221107Y1357250D01*
X224917Y1357250D01*
X224982Y1357261D01*
G37*
G36*
X1002222Y1357261D02*
X1002222Y1357261D01*
X1002288Y1357263D01*
X1002331Y1357281D01*
X1002378Y1357289D01*
X1002435Y1357323D01*
X1002495Y1357348D01*
X1002530Y1357379D01*
X1002571Y1357404D01*
X1002613Y1357455D01*
X1002661Y1357499D01*
X1002683Y1357541D01*
X1002712Y1357578D01*
X1002733Y1357640D01*
X1002764Y1357699D01*
X1002772Y1357753D01*
X1002784Y1357790D01*
X1002783Y1357830D01*
X1002791Y1357884D01*
X1002791Y1360424D01*
X1002780Y1360489D01*
X1002778Y1360555D01*
X1002760Y1360598D01*
X1002752Y1360645D01*
X1002718Y1360702D01*
X1002693Y1360762D01*
X1002662Y1360797D01*
X1002637Y1360838D01*
X1002586Y1360880D01*
X1002542Y1360928D01*
X1002500Y1360950D01*
X1002463Y1360979D01*
X1002401Y1361000D01*
X1002342Y1361031D01*
X1002288Y1361039D01*
X1002251Y1361051D01*
X1002211Y1361050D01*
X1002157Y1361058D01*
X998347Y1361058D01*
X998282Y1361047D01*
X998216Y1361045D01*
X998173Y1361027D01*
X998126Y1361019D01*
X998069Y1360985D01*
X998009Y1360960D01*
X997974Y1360929D01*
X997933Y1360904D01*
X997892Y1360853D01*
X997843Y1360809D01*
X997821Y1360767D01*
X997792Y1360730D01*
X997771Y1360668D01*
X997740Y1360609D01*
X997732Y1360555D01*
X997720Y1360518D01*
X997720Y1360515D01*
X997721Y1360478D01*
X997713Y1360424D01*
X997713Y1357884D01*
X997724Y1357819D01*
X997726Y1357753D01*
X997744Y1357710D01*
X997752Y1357663D01*
X997786Y1357606D01*
X997811Y1357546D01*
X997842Y1357511D01*
X997867Y1357470D01*
X997918Y1357429D01*
X997962Y1357380D01*
X998004Y1357358D01*
X998041Y1357329D01*
X998103Y1357308D01*
X998162Y1357277D01*
X998216Y1357269D01*
X998253Y1357257D01*
X998293Y1357258D01*
X998347Y1357250D01*
X1002157Y1357250D01*
X1002222Y1357261D01*
G37*
G36*
X743142Y1357261D02*
X743142Y1357261D01*
X743208Y1357263D01*
X743251Y1357281D01*
X743298Y1357289D01*
X743355Y1357323D01*
X743415Y1357348D01*
X743450Y1357379D01*
X743491Y1357404D01*
X743533Y1357455D01*
X743581Y1357499D01*
X743603Y1357541D01*
X743632Y1357578D01*
X743653Y1357640D01*
X743684Y1357699D01*
X743692Y1357753D01*
X743704Y1357790D01*
X743703Y1357830D01*
X743711Y1357884D01*
X743711Y1360424D01*
X743700Y1360489D01*
X743698Y1360555D01*
X743680Y1360598D01*
X743672Y1360645D01*
X743638Y1360702D01*
X743613Y1360762D01*
X743582Y1360797D01*
X743557Y1360838D01*
X743506Y1360880D01*
X743462Y1360928D01*
X743420Y1360950D01*
X743383Y1360979D01*
X743321Y1361000D01*
X743262Y1361031D01*
X743208Y1361039D01*
X743171Y1361051D01*
X743131Y1361050D01*
X743077Y1361058D01*
X739267Y1361058D01*
X739202Y1361047D01*
X739136Y1361045D01*
X739093Y1361027D01*
X739046Y1361019D01*
X738989Y1360985D01*
X738929Y1360960D01*
X738894Y1360929D01*
X738853Y1360904D01*
X738812Y1360853D01*
X738763Y1360809D01*
X738741Y1360767D01*
X738712Y1360730D01*
X738691Y1360668D01*
X738660Y1360609D01*
X738652Y1360555D01*
X738640Y1360518D01*
X738640Y1360515D01*
X738641Y1360478D01*
X738633Y1360424D01*
X738633Y1357884D01*
X738644Y1357819D01*
X738646Y1357753D01*
X738664Y1357710D01*
X738672Y1357663D01*
X738706Y1357606D01*
X738731Y1357546D01*
X738762Y1357511D01*
X738787Y1357470D01*
X738838Y1357429D01*
X738882Y1357380D01*
X738924Y1357358D01*
X738961Y1357329D01*
X739023Y1357308D01*
X739082Y1357277D01*
X739136Y1357269D01*
X739173Y1357257D01*
X739213Y1357258D01*
X739267Y1357250D01*
X743077Y1357250D01*
X743142Y1357261D01*
G37*
G36*
X285942Y1468513D02*
X285942Y1468513D01*
X286008Y1468515D01*
X286051Y1468533D01*
X286098Y1468541D01*
X286155Y1468575D01*
X286215Y1468600D01*
X286250Y1468631D01*
X286291Y1468656D01*
X286333Y1468707D01*
X286381Y1468751D01*
X286403Y1468793D01*
X286432Y1468830D01*
X286453Y1468892D01*
X286484Y1468951D01*
X286492Y1469005D01*
X286504Y1469042D01*
X286503Y1469082D01*
X286511Y1469136D01*
X286511Y1471676D01*
X286500Y1471741D01*
X286498Y1471807D01*
X286480Y1471850D01*
X286472Y1471897D01*
X286438Y1471954D01*
X286413Y1472014D01*
X286382Y1472049D01*
X286357Y1472090D01*
X286306Y1472132D01*
X286262Y1472180D01*
X286220Y1472202D01*
X286183Y1472231D01*
X286121Y1472252D01*
X286062Y1472283D01*
X286008Y1472291D01*
X285971Y1472303D01*
X285931Y1472302D01*
X285877Y1472310D01*
X282067Y1472310D01*
X282002Y1472299D01*
X281936Y1472297D01*
X281893Y1472279D01*
X281846Y1472271D01*
X281789Y1472237D01*
X281729Y1472212D01*
X281694Y1472181D01*
X281653Y1472156D01*
X281612Y1472105D01*
X281563Y1472061D01*
X281541Y1472019D01*
X281512Y1471982D01*
X281491Y1471920D01*
X281460Y1471861D01*
X281452Y1471807D01*
X281440Y1471770D01*
X281440Y1471767D01*
X281441Y1471730D01*
X281433Y1471676D01*
X281433Y1469136D01*
X281444Y1469071D01*
X281446Y1469005D01*
X281464Y1468962D01*
X281472Y1468915D01*
X281506Y1468858D01*
X281531Y1468798D01*
X281562Y1468763D01*
X281587Y1468722D01*
X281638Y1468681D01*
X281682Y1468632D01*
X281724Y1468610D01*
X281761Y1468581D01*
X281823Y1468560D01*
X281882Y1468529D01*
X281936Y1468521D01*
X281973Y1468509D01*
X282013Y1468510D01*
X282067Y1468502D01*
X285877Y1468502D01*
X285942Y1468513D01*
G37*
G36*
X296102Y1468513D02*
X296102Y1468513D01*
X296168Y1468515D01*
X296211Y1468533D01*
X296258Y1468541D01*
X296315Y1468575D01*
X296375Y1468600D01*
X296410Y1468631D01*
X296451Y1468656D01*
X296493Y1468707D01*
X296541Y1468751D01*
X296563Y1468793D01*
X296592Y1468830D01*
X296613Y1468892D01*
X296644Y1468951D01*
X296652Y1469005D01*
X296664Y1469042D01*
X296663Y1469082D01*
X296671Y1469136D01*
X296671Y1471676D01*
X296660Y1471741D01*
X296658Y1471807D01*
X296640Y1471850D01*
X296632Y1471897D01*
X296598Y1471954D01*
X296573Y1472014D01*
X296542Y1472049D01*
X296517Y1472090D01*
X296466Y1472132D01*
X296422Y1472180D01*
X296380Y1472202D01*
X296343Y1472231D01*
X296281Y1472252D01*
X296222Y1472283D01*
X296168Y1472291D01*
X296131Y1472303D01*
X296091Y1472302D01*
X296037Y1472310D01*
X292227Y1472310D01*
X292162Y1472299D01*
X292096Y1472297D01*
X292053Y1472279D01*
X292006Y1472271D01*
X291949Y1472237D01*
X291889Y1472212D01*
X291854Y1472181D01*
X291813Y1472156D01*
X291772Y1472105D01*
X291723Y1472061D01*
X291701Y1472019D01*
X291672Y1471982D01*
X291651Y1471920D01*
X291620Y1471861D01*
X291612Y1471807D01*
X291600Y1471770D01*
X291600Y1471767D01*
X291601Y1471730D01*
X291593Y1471676D01*
X291593Y1469136D01*
X291604Y1469071D01*
X291606Y1469005D01*
X291624Y1468962D01*
X291632Y1468915D01*
X291666Y1468858D01*
X291691Y1468798D01*
X291722Y1468763D01*
X291747Y1468722D01*
X291798Y1468681D01*
X291842Y1468632D01*
X291884Y1468610D01*
X291921Y1468581D01*
X291983Y1468560D01*
X292042Y1468529D01*
X292096Y1468521D01*
X292133Y1468509D01*
X292173Y1468510D01*
X292227Y1468502D01*
X296037Y1468502D01*
X296102Y1468513D01*
G37*
G36*
X26862Y1468513D02*
X26862Y1468513D01*
X26928Y1468515D01*
X26971Y1468533D01*
X27018Y1468541D01*
X27075Y1468575D01*
X27135Y1468600D01*
X27170Y1468631D01*
X27211Y1468656D01*
X27253Y1468707D01*
X27301Y1468751D01*
X27323Y1468793D01*
X27352Y1468830D01*
X27373Y1468892D01*
X27404Y1468951D01*
X27412Y1469005D01*
X27424Y1469042D01*
X27423Y1469082D01*
X27431Y1469136D01*
X27431Y1471676D01*
X27420Y1471741D01*
X27418Y1471807D01*
X27400Y1471850D01*
X27392Y1471897D01*
X27358Y1471954D01*
X27333Y1472014D01*
X27302Y1472049D01*
X27277Y1472090D01*
X27226Y1472132D01*
X27182Y1472180D01*
X27140Y1472202D01*
X27103Y1472231D01*
X27041Y1472252D01*
X26982Y1472283D01*
X26928Y1472291D01*
X26891Y1472303D01*
X26851Y1472302D01*
X26797Y1472310D01*
X22987Y1472310D01*
X22922Y1472299D01*
X22856Y1472297D01*
X22813Y1472279D01*
X22766Y1472271D01*
X22709Y1472237D01*
X22649Y1472212D01*
X22614Y1472181D01*
X22573Y1472156D01*
X22532Y1472105D01*
X22483Y1472061D01*
X22461Y1472019D01*
X22432Y1471982D01*
X22411Y1471920D01*
X22380Y1471861D01*
X22372Y1471807D01*
X22360Y1471770D01*
X22360Y1471767D01*
X22361Y1471730D01*
X22353Y1471676D01*
X22353Y1469136D01*
X22364Y1469071D01*
X22366Y1469005D01*
X22384Y1468962D01*
X22392Y1468915D01*
X22426Y1468858D01*
X22451Y1468798D01*
X22482Y1468763D01*
X22507Y1468722D01*
X22558Y1468681D01*
X22602Y1468632D01*
X22644Y1468610D01*
X22681Y1468581D01*
X22743Y1468560D01*
X22802Y1468529D01*
X22856Y1468521D01*
X22893Y1468509D01*
X22933Y1468510D01*
X22987Y1468502D01*
X26797Y1468502D01*
X26862Y1468513D01*
G37*
G36*
X555182Y1468513D02*
X555182Y1468513D01*
X555248Y1468515D01*
X555291Y1468533D01*
X555338Y1468541D01*
X555395Y1468575D01*
X555455Y1468600D01*
X555490Y1468631D01*
X555531Y1468656D01*
X555573Y1468707D01*
X555621Y1468751D01*
X555643Y1468793D01*
X555672Y1468830D01*
X555693Y1468892D01*
X555724Y1468951D01*
X555732Y1469005D01*
X555744Y1469042D01*
X555743Y1469082D01*
X555751Y1469136D01*
X555751Y1471676D01*
X555740Y1471741D01*
X555738Y1471807D01*
X555720Y1471850D01*
X555712Y1471897D01*
X555678Y1471954D01*
X555653Y1472014D01*
X555622Y1472049D01*
X555597Y1472090D01*
X555546Y1472132D01*
X555502Y1472180D01*
X555460Y1472202D01*
X555423Y1472231D01*
X555361Y1472252D01*
X555302Y1472283D01*
X555248Y1472291D01*
X555211Y1472303D01*
X555171Y1472302D01*
X555117Y1472310D01*
X551307Y1472310D01*
X551242Y1472299D01*
X551176Y1472297D01*
X551133Y1472279D01*
X551086Y1472271D01*
X551029Y1472237D01*
X550969Y1472212D01*
X550934Y1472181D01*
X550893Y1472156D01*
X550852Y1472105D01*
X550803Y1472061D01*
X550781Y1472019D01*
X550752Y1471982D01*
X550731Y1471920D01*
X550700Y1471861D01*
X550692Y1471807D01*
X550680Y1471770D01*
X550680Y1471767D01*
X550681Y1471730D01*
X550673Y1471676D01*
X550673Y1469136D01*
X550684Y1469071D01*
X550686Y1469005D01*
X550704Y1468962D01*
X550712Y1468915D01*
X550746Y1468858D01*
X550771Y1468798D01*
X550802Y1468763D01*
X550827Y1468722D01*
X550878Y1468681D01*
X550922Y1468632D01*
X550964Y1468610D01*
X551001Y1468581D01*
X551063Y1468560D01*
X551122Y1468529D01*
X551176Y1468521D01*
X551213Y1468509D01*
X551253Y1468510D01*
X551307Y1468502D01*
X555117Y1468502D01*
X555182Y1468513D01*
G37*
G36*
X545022Y1468513D02*
X545022Y1468513D01*
X545088Y1468515D01*
X545131Y1468533D01*
X545178Y1468541D01*
X545235Y1468575D01*
X545295Y1468600D01*
X545330Y1468631D01*
X545371Y1468656D01*
X545413Y1468707D01*
X545461Y1468751D01*
X545483Y1468793D01*
X545512Y1468830D01*
X545533Y1468892D01*
X545564Y1468951D01*
X545572Y1469005D01*
X545584Y1469042D01*
X545583Y1469082D01*
X545591Y1469136D01*
X545591Y1471676D01*
X545580Y1471741D01*
X545578Y1471807D01*
X545560Y1471850D01*
X545552Y1471897D01*
X545518Y1471954D01*
X545493Y1472014D01*
X545462Y1472049D01*
X545437Y1472090D01*
X545386Y1472132D01*
X545342Y1472180D01*
X545300Y1472202D01*
X545263Y1472231D01*
X545201Y1472252D01*
X545142Y1472283D01*
X545088Y1472291D01*
X545051Y1472303D01*
X545011Y1472302D01*
X544957Y1472310D01*
X541147Y1472310D01*
X541082Y1472299D01*
X541016Y1472297D01*
X540973Y1472279D01*
X540926Y1472271D01*
X540869Y1472237D01*
X540809Y1472212D01*
X540774Y1472181D01*
X540733Y1472156D01*
X540692Y1472105D01*
X540643Y1472061D01*
X540621Y1472019D01*
X540592Y1471982D01*
X540571Y1471920D01*
X540540Y1471861D01*
X540532Y1471807D01*
X540520Y1471770D01*
X540520Y1471767D01*
X540521Y1471730D01*
X540513Y1471676D01*
X540513Y1469136D01*
X540524Y1469071D01*
X540526Y1469005D01*
X540544Y1468962D01*
X540552Y1468915D01*
X540586Y1468858D01*
X540611Y1468798D01*
X540642Y1468763D01*
X540667Y1468722D01*
X540718Y1468681D01*
X540762Y1468632D01*
X540804Y1468610D01*
X540841Y1468581D01*
X540903Y1468560D01*
X540962Y1468529D01*
X541016Y1468521D01*
X541053Y1468509D01*
X541093Y1468510D01*
X541147Y1468502D01*
X544957Y1468502D01*
X545022Y1468513D01*
G37*
G36*
X804102Y1468513D02*
X804102Y1468513D01*
X804168Y1468515D01*
X804211Y1468533D01*
X804258Y1468541D01*
X804315Y1468575D01*
X804375Y1468600D01*
X804410Y1468631D01*
X804451Y1468656D01*
X804493Y1468707D01*
X804541Y1468751D01*
X804563Y1468793D01*
X804592Y1468830D01*
X804613Y1468892D01*
X804644Y1468951D01*
X804652Y1469005D01*
X804664Y1469042D01*
X804663Y1469082D01*
X804671Y1469136D01*
X804671Y1471676D01*
X804660Y1471741D01*
X804658Y1471807D01*
X804640Y1471850D01*
X804632Y1471897D01*
X804598Y1471954D01*
X804573Y1472014D01*
X804542Y1472049D01*
X804517Y1472090D01*
X804466Y1472132D01*
X804422Y1472180D01*
X804380Y1472202D01*
X804343Y1472231D01*
X804281Y1472252D01*
X804222Y1472283D01*
X804168Y1472291D01*
X804131Y1472303D01*
X804091Y1472302D01*
X804037Y1472310D01*
X800227Y1472310D01*
X800162Y1472299D01*
X800096Y1472297D01*
X800053Y1472279D01*
X800006Y1472271D01*
X799949Y1472237D01*
X799889Y1472212D01*
X799854Y1472181D01*
X799813Y1472156D01*
X799772Y1472105D01*
X799723Y1472061D01*
X799701Y1472019D01*
X799672Y1471982D01*
X799651Y1471920D01*
X799620Y1471861D01*
X799612Y1471807D01*
X799600Y1471770D01*
X799600Y1471767D01*
X799601Y1471730D01*
X799593Y1471676D01*
X799593Y1469136D01*
X799604Y1469071D01*
X799606Y1469005D01*
X799624Y1468962D01*
X799632Y1468915D01*
X799666Y1468858D01*
X799691Y1468798D01*
X799722Y1468763D01*
X799747Y1468722D01*
X799798Y1468681D01*
X799842Y1468632D01*
X799884Y1468610D01*
X799921Y1468581D01*
X799983Y1468560D01*
X800042Y1468529D01*
X800096Y1468521D01*
X800133Y1468509D01*
X800173Y1468510D01*
X800227Y1468502D01*
X804037Y1468502D01*
X804102Y1468513D01*
G37*
G36*
X37022Y1468513D02*
X37022Y1468513D01*
X37088Y1468515D01*
X37131Y1468533D01*
X37178Y1468541D01*
X37235Y1468575D01*
X37295Y1468600D01*
X37330Y1468631D01*
X37371Y1468656D01*
X37413Y1468707D01*
X37461Y1468751D01*
X37483Y1468793D01*
X37512Y1468830D01*
X37533Y1468892D01*
X37564Y1468951D01*
X37572Y1469005D01*
X37584Y1469042D01*
X37583Y1469082D01*
X37591Y1469136D01*
X37591Y1471676D01*
X37580Y1471741D01*
X37578Y1471807D01*
X37560Y1471850D01*
X37552Y1471897D01*
X37518Y1471954D01*
X37493Y1472014D01*
X37462Y1472049D01*
X37437Y1472090D01*
X37386Y1472132D01*
X37342Y1472180D01*
X37300Y1472202D01*
X37263Y1472231D01*
X37201Y1472252D01*
X37142Y1472283D01*
X37088Y1472291D01*
X37051Y1472303D01*
X37011Y1472302D01*
X36957Y1472310D01*
X33147Y1472310D01*
X33082Y1472299D01*
X33016Y1472297D01*
X32973Y1472279D01*
X32926Y1472271D01*
X32869Y1472237D01*
X32809Y1472212D01*
X32774Y1472181D01*
X32733Y1472156D01*
X32692Y1472105D01*
X32643Y1472061D01*
X32621Y1472019D01*
X32592Y1471982D01*
X32571Y1471920D01*
X32540Y1471861D01*
X32532Y1471807D01*
X32520Y1471770D01*
X32520Y1471767D01*
X32521Y1471730D01*
X32513Y1471676D01*
X32513Y1469136D01*
X32524Y1469071D01*
X32526Y1469005D01*
X32544Y1468962D01*
X32552Y1468915D01*
X32586Y1468858D01*
X32611Y1468798D01*
X32642Y1468763D01*
X32667Y1468722D01*
X32718Y1468681D01*
X32762Y1468632D01*
X32804Y1468610D01*
X32841Y1468581D01*
X32903Y1468560D01*
X32962Y1468529D01*
X33016Y1468521D01*
X33053Y1468509D01*
X33093Y1468510D01*
X33147Y1468502D01*
X36957Y1468502D01*
X37022Y1468513D01*
G37*
G36*
X581090Y1369961D02*
X581090Y1369961D01*
X581156Y1369963D01*
X581199Y1369981D01*
X581246Y1369989D01*
X581303Y1370023D01*
X581363Y1370048D01*
X581398Y1370079D01*
X581439Y1370104D01*
X581481Y1370155D01*
X581529Y1370199D01*
X581551Y1370241D01*
X581580Y1370278D01*
X581601Y1370340D01*
X581632Y1370399D01*
X581640Y1370453D01*
X581652Y1370490D01*
X581651Y1370530D01*
X581659Y1370584D01*
X581659Y1373124D01*
X581648Y1373189D01*
X581646Y1373255D01*
X581628Y1373298D01*
X581620Y1373345D01*
X581586Y1373402D01*
X581561Y1373462D01*
X581530Y1373497D01*
X581505Y1373538D01*
X581454Y1373580D01*
X581410Y1373628D01*
X581368Y1373650D01*
X581331Y1373679D01*
X581269Y1373700D01*
X581210Y1373731D01*
X581156Y1373739D01*
X581119Y1373751D01*
X581079Y1373750D01*
X581025Y1373758D01*
X577215Y1373758D01*
X577150Y1373747D01*
X577084Y1373745D01*
X577041Y1373727D01*
X576994Y1373719D01*
X576937Y1373685D01*
X576877Y1373660D01*
X576842Y1373629D01*
X576801Y1373604D01*
X576760Y1373553D01*
X576711Y1373509D01*
X576689Y1373467D01*
X576660Y1373430D01*
X576639Y1373368D01*
X576608Y1373309D01*
X576600Y1373255D01*
X576588Y1373218D01*
X576588Y1373215D01*
X576589Y1373178D01*
X576581Y1373124D01*
X576581Y1370584D01*
X576592Y1370519D01*
X576594Y1370453D01*
X576612Y1370410D01*
X576620Y1370363D01*
X576654Y1370306D01*
X576679Y1370246D01*
X576710Y1370211D01*
X576735Y1370170D01*
X576786Y1370129D01*
X576830Y1370080D01*
X576872Y1370058D01*
X576909Y1370029D01*
X576971Y1370008D01*
X577030Y1369977D01*
X577084Y1369969D01*
X577121Y1369957D01*
X577161Y1369958D01*
X577215Y1369950D01*
X581025Y1369950D01*
X581090Y1369961D01*
G37*
G36*
X322010Y1369961D02*
X322010Y1369961D01*
X322076Y1369963D01*
X322119Y1369981D01*
X322166Y1369989D01*
X322223Y1370023D01*
X322283Y1370048D01*
X322318Y1370079D01*
X322359Y1370104D01*
X322401Y1370155D01*
X322449Y1370199D01*
X322471Y1370241D01*
X322500Y1370278D01*
X322521Y1370340D01*
X322552Y1370399D01*
X322560Y1370453D01*
X322572Y1370490D01*
X322571Y1370530D01*
X322579Y1370584D01*
X322579Y1373124D01*
X322568Y1373189D01*
X322566Y1373255D01*
X322548Y1373298D01*
X322540Y1373345D01*
X322506Y1373402D01*
X322481Y1373462D01*
X322450Y1373497D01*
X322425Y1373538D01*
X322374Y1373580D01*
X322330Y1373628D01*
X322288Y1373650D01*
X322251Y1373679D01*
X322189Y1373700D01*
X322130Y1373731D01*
X322076Y1373739D01*
X322039Y1373751D01*
X321999Y1373750D01*
X321945Y1373758D01*
X318135Y1373758D01*
X318070Y1373747D01*
X318004Y1373745D01*
X317961Y1373727D01*
X317914Y1373719D01*
X317857Y1373685D01*
X317797Y1373660D01*
X317762Y1373629D01*
X317721Y1373604D01*
X317680Y1373553D01*
X317631Y1373509D01*
X317609Y1373467D01*
X317580Y1373430D01*
X317559Y1373368D01*
X317528Y1373309D01*
X317520Y1373255D01*
X317508Y1373218D01*
X317508Y1373215D01*
X317509Y1373178D01*
X317501Y1373124D01*
X317501Y1370584D01*
X317512Y1370519D01*
X317514Y1370453D01*
X317532Y1370410D01*
X317540Y1370363D01*
X317574Y1370306D01*
X317599Y1370246D01*
X317630Y1370211D01*
X317655Y1370170D01*
X317706Y1370129D01*
X317750Y1370080D01*
X317792Y1370058D01*
X317829Y1370029D01*
X317891Y1370008D01*
X317950Y1369977D01*
X318004Y1369969D01*
X318041Y1369957D01*
X318081Y1369958D01*
X318135Y1369950D01*
X321945Y1369950D01*
X322010Y1369961D01*
G37*
G36*
X840170Y1369961D02*
X840170Y1369961D01*
X840236Y1369963D01*
X840279Y1369981D01*
X840326Y1369989D01*
X840383Y1370023D01*
X840443Y1370048D01*
X840478Y1370079D01*
X840519Y1370104D01*
X840561Y1370155D01*
X840609Y1370199D01*
X840631Y1370241D01*
X840660Y1370278D01*
X840681Y1370340D01*
X840712Y1370399D01*
X840720Y1370453D01*
X840732Y1370490D01*
X840731Y1370530D01*
X840739Y1370584D01*
X840739Y1373124D01*
X840728Y1373189D01*
X840726Y1373255D01*
X840708Y1373298D01*
X840700Y1373345D01*
X840666Y1373402D01*
X840641Y1373462D01*
X840610Y1373497D01*
X840585Y1373538D01*
X840534Y1373580D01*
X840490Y1373628D01*
X840448Y1373650D01*
X840411Y1373679D01*
X840349Y1373700D01*
X840290Y1373731D01*
X840236Y1373739D01*
X840199Y1373751D01*
X840159Y1373750D01*
X840105Y1373758D01*
X836295Y1373758D01*
X836230Y1373747D01*
X836164Y1373745D01*
X836121Y1373727D01*
X836074Y1373719D01*
X836017Y1373685D01*
X835957Y1373660D01*
X835922Y1373629D01*
X835881Y1373604D01*
X835840Y1373553D01*
X835791Y1373509D01*
X835769Y1373467D01*
X835740Y1373430D01*
X835719Y1373368D01*
X835688Y1373309D01*
X835680Y1373255D01*
X835668Y1373218D01*
X835668Y1373215D01*
X835669Y1373178D01*
X835661Y1373124D01*
X835661Y1370584D01*
X835672Y1370519D01*
X835674Y1370453D01*
X835692Y1370410D01*
X835700Y1370363D01*
X835734Y1370306D01*
X835759Y1370246D01*
X835790Y1370211D01*
X835815Y1370170D01*
X835866Y1370129D01*
X835910Y1370080D01*
X835952Y1370058D01*
X835989Y1370029D01*
X836051Y1370008D01*
X836110Y1369977D01*
X836164Y1369969D01*
X836201Y1369957D01*
X836241Y1369958D01*
X836295Y1369950D01*
X840105Y1369950D01*
X840170Y1369961D01*
G37*
G36*
X62930Y1369961D02*
X62930Y1369961D01*
X62996Y1369963D01*
X63039Y1369981D01*
X63086Y1369989D01*
X63143Y1370023D01*
X63203Y1370048D01*
X63238Y1370079D01*
X63279Y1370104D01*
X63321Y1370155D01*
X63369Y1370199D01*
X63391Y1370241D01*
X63420Y1370278D01*
X63441Y1370340D01*
X63472Y1370399D01*
X63480Y1370453D01*
X63492Y1370490D01*
X63491Y1370530D01*
X63499Y1370584D01*
X63499Y1373124D01*
X63488Y1373189D01*
X63486Y1373255D01*
X63468Y1373298D01*
X63460Y1373345D01*
X63426Y1373402D01*
X63401Y1373462D01*
X63370Y1373497D01*
X63345Y1373538D01*
X63294Y1373580D01*
X63250Y1373628D01*
X63208Y1373650D01*
X63171Y1373679D01*
X63109Y1373700D01*
X63050Y1373731D01*
X62996Y1373739D01*
X62959Y1373751D01*
X62919Y1373750D01*
X62865Y1373758D01*
X59055Y1373758D01*
X58990Y1373747D01*
X58924Y1373745D01*
X58881Y1373727D01*
X58834Y1373719D01*
X58777Y1373685D01*
X58717Y1373660D01*
X58682Y1373629D01*
X58641Y1373604D01*
X58600Y1373553D01*
X58551Y1373509D01*
X58529Y1373467D01*
X58500Y1373430D01*
X58479Y1373368D01*
X58448Y1373309D01*
X58440Y1373255D01*
X58428Y1373218D01*
X58428Y1373215D01*
X58429Y1373178D01*
X58421Y1373124D01*
X58421Y1370584D01*
X58432Y1370519D01*
X58434Y1370453D01*
X58452Y1370410D01*
X58460Y1370363D01*
X58494Y1370306D01*
X58519Y1370246D01*
X58550Y1370211D01*
X58575Y1370170D01*
X58626Y1370129D01*
X58670Y1370080D01*
X58712Y1370058D01*
X58749Y1370029D01*
X58811Y1370008D01*
X58870Y1369977D01*
X58924Y1369969D01*
X58961Y1369957D01*
X59001Y1369958D01*
X59055Y1369950D01*
X62865Y1369950D01*
X62930Y1369961D01*
G37*
G36*
X814262Y1468513D02*
X814262Y1468513D01*
X814328Y1468515D01*
X814371Y1468533D01*
X814418Y1468541D01*
X814475Y1468575D01*
X814535Y1468600D01*
X814570Y1468631D01*
X814611Y1468656D01*
X814653Y1468707D01*
X814701Y1468751D01*
X814723Y1468793D01*
X814752Y1468830D01*
X814773Y1468892D01*
X814804Y1468951D01*
X814812Y1469005D01*
X814824Y1469042D01*
X814823Y1469082D01*
X814831Y1469136D01*
X814831Y1471676D01*
X814820Y1471741D01*
X814818Y1471807D01*
X814800Y1471850D01*
X814792Y1471897D01*
X814758Y1471954D01*
X814733Y1472014D01*
X814702Y1472049D01*
X814677Y1472090D01*
X814626Y1472132D01*
X814582Y1472180D01*
X814540Y1472202D01*
X814503Y1472231D01*
X814441Y1472252D01*
X814382Y1472283D01*
X814328Y1472291D01*
X814291Y1472303D01*
X814251Y1472302D01*
X814197Y1472310D01*
X810387Y1472310D01*
X810322Y1472299D01*
X810256Y1472297D01*
X810213Y1472279D01*
X810166Y1472271D01*
X810109Y1472237D01*
X810049Y1472212D01*
X810014Y1472181D01*
X809973Y1472156D01*
X809932Y1472105D01*
X809883Y1472061D01*
X809861Y1472019D01*
X809832Y1471982D01*
X809811Y1471920D01*
X809780Y1471861D01*
X809772Y1471807D01*
X809760Y1471770D01*
X809760Y1471767D01*
X809761Y1471730D01*
X809753Y1471676D01*
X809753Y1469136D01*
X809764Y1469071D01*
X809766Y1469005D01*
X809784Y1468962D01*
X809792Y1468915D01*
X809826Y1468858D01*
X809851Y1468798D01*
X809882Y1468763D01*
X809907Y1468722D01*
X809958Y1468681D01*
X810002Y1468632D01*
X810044Y1468610D01*
X810081Y1468581D01*
X810143Y1468560D01*
X810202Y1468529D01*
X810256Y1468521D01*
X810293Y1468509D01*
X810333Y1468510D01*
X810387Y1468502D01*
X814197Y1468502D01*
X814262Y1468513D01*
G37*
G36*
X804102Y1209433D02*
X804102Y1209433D01*
X804168Y1209435D01*
X804211Y1209453D01*
X804258Y1209461D01*
X804315Y1209495D01*
X804375Y1209520D01*
X804410Y1209551D01*
X804451Y1209576D01*
X804493Y1209627D01*
X804541Y1209671D01*
X804563Y1209713D01*
X804592Y1209750D01*
X804613Y1209812D01*
X804644Y1209871D01*
X804652Y1209925D01*
X804664Y1209962D01*
X804663Y1210002D01*
X804671Y1210056D01*
X804671Y1212596D01*
X804660Y1212661D01*
X804658Y1212727D01*
X804640Y1212770D01*
X804632Y1212817D01*
X804598Y1212874D01*
X804573Y1212934D01*
X804542Y1212969D01*
X804517Y1213010D01*
X804466Y1213052D01*
X804422Y1213100D01*
X804380Y1213122D01*
X804343Y1213151D01*
X804281Y1213172D01*
X804222Y1213203D01*
X804168Y1213211D01*
X804131Y1213223D01*
X804091Y1213222D01*
X804037Y1213230D01*
X800227Y1213230D01*
X800162Y1213219D01*
X800096Y1213217D01*
X800053Y1213199D01*
X800006Y1213191D01*
X799949Y1213157D01*
X799889Y1213132D01*
X799854Y1213101D01*
X799813Y1213076D01*
X799772Y1213025D01*
X799723Y1212981D01*
X799701Y1212939D01*
X799672Y1212902D01*
X799651Y1212840D01*
X799620Y1212781D01*
X799612Y1212727D01*
X799600Y1212690D01*
X799600Y1212687D01*
X799601Y1212650D01*
X799593Y1212596D01*
X799593Y1210056D01*
X799604Y1209991D01*
X799606Y1209925D01*
X799624Y1209882D01*
X799632Y1209835D01*
X799666Y1209778D01*
X799691Y1209718D01*
X799722Y1209683D01*
X799747Y1209642D01*
X799798Y1209601D01*
X799842Y1209552D01*
X799884Y1209530D01*
X799921Y1209501D01*
X799983Y1209480D01*
X800042Y1209449D01*
X800096Y1209441D01*
X800133Y1209429D01*
X800173Y1209430D01*
X800227Y1209422D01*
X804037Y1209422D01*
X804102Y1209433D01*
G37*
G36*
X37022Y1209433D02*
X37022Y1209433D01*
X37088Y1209435D01*
X37131Y1209453D01*
X37178Y1209461D01*
X37235Y1209495D01*
X37295Y1209520D01*
X37330Y1209551D01*
X37371Y1209576D01*
X37413Y1209627D01*
X37461Y1209671D01*
X37483Y1209713D01*
X37512Y1209750D01*
X37533Y1209812D01*
X37564Y1209871D01*
X37572Y1209925D01*
X37584Y1209962D01*
X37583Y1210002D01*
X37591Y1210056D01*
X37591Y1212596D01*
X37580Y1212661D01*
X37578Y1212727D01*
X37560Y1212770D01*
X37552Y1212817D01*
X37518Y1212874D01*
X37493Y1212934D01*
X37462Y1212969D01*
X37437Y1213010D01*
X37386Y1213052D01*
X37342Y1213100D01*
X37300Y1213122D01*
X37263Y1213151D01*
X37201Y1213172D01*
X37142Y1213203D01*
X37088Y1213211D01*
X37051Y1213223D01*
X37011Y1213222D01*
X36957Y1213230D01*
X33147Y1213230D01*
X33082Y1213219D01*
X33016Y1213217D01*
X32973Y1213199D01*
X32926Y1213191D01*
X32869Y1213157D01*
X32809Y1213132D01*
X32774Y1213101D01*
X32733Y1213076D01*
X32692Y1213025D01*
X32643Y1212981D01*
X32621Y1212939D01*
X32592Y1212902D01*
X32571Y1212840D01*
X32540Y1212781D01*
X32532Y1212727D01*
X32520Y1212690D01*
X32520Y1212687D01*
X32521Y1212650D01*
X32513Y1212596D01*
X32513Y1210056D01*
X32524Y1209991D01*
X32526Y1209925D01*
X32544Y1209882D01*
X32552Y1209835D01*
X32586Y1209778D01*
X32611Y1209718D01*
X32642Y1209683D01*
X32667Y1209642D01*
X32718Y1209601D01*
X32762Y1209552D01*
X32804Y1209530D01*
X32841Y1209501D01*
X32903Y1209480D01*
X32962Y1209449D01*
X33016Y1209441D01*
X33053Y1209429D01*
X33093Y1209430D01*
X33147Y1209422D01*
X36957Y1209422D01*
X37022Y1209433D01*
G37*
G36*
X814262Y1209433D02*
X814262Y1209433D01*
X814328Y1209435D01*
X814371Y1209453D01*
X814418Y1209461D01*
X814475Y1209495D01*
X814535Y1209520D01*
X814570Y1209551D01*
X814611Y1209576D01*
X814653Y1209627D01*
X814701Y1209671D01*
X814723Y1209713D01*
X814752Y1209750D01*
X814773Y1209812D01*
X814804Y1209871D01*
X814812Y1209925D01*
X814824Y1209962D01*
X814823Y1210002D01*
X814831Y1210056D01*
X814831Y1212596D01*
X814820Y1212661D01*
X814818Y1212727D01*
X814800Y1212770D01*
X814792Y1212817D01*
X814758Y1212874D01*
X814733Y1212934D01*
X814702Y1212969D01*
X814677Y1213010D01*
X814626Y1213052D01*
X814582Y1213100D01*
X814540Y1213122D01*
X814503Y1213151D01*
X814441Y1213172D01*
X814382Y1213203D01*
X814328Y1213211D01*
X814291Y1213223D01*
X814251Y1213222D01*
X814197Y1213230D01*
X810387Y1213230D01*
X810322Y1213219D01*
X810256Y1213217D01*
X810213Y1213199D01*
X810166Y1213191D01*
X810109Y1213157D01*
X810049Y1213132D01*
X810014Y1213101D01*
X809973Y1213076D01*
X809932Y1213025D01*
X809883Y1212981D01*
X809861Y1212939D01*
X809832Y1212902D01*
X809811Y1212840D01*
X809780Y1212781D01*
X809772Y1212727D01*
X809760Y1212690D01*
X809760Y1212687D01*
X809761Y1212650D01*
X809753Y1212596D01*
X809753Y1210056D01*
X809764Y1209991D01*
X809766Y1209925D01*
X809784Y1209882D01*
X809792Y1209835D01*
X809826Y1209778D01*
X809851Y1209718D01*
X809882Y1209683D01*
X809907Y1209642D01*
X809958Y1209601D01*
X810002Y1209552D01*
X810044Y1209530D01*
X810081Y1209501D01*
X810143Y1209480D01*
X810202Y1209449D01*
X810256Y1209441D01*
X810293Y1209429D01*
X810333Y1209430D01*
X810387Y1209422D01*
X814197Y1209422D01*
X814262Y1209433D01*
G37*
G36*
X545022Y1209433D02*
X545022Y1209433D01*
X545088Y1209435D01*
X545131Y1209453D01*
X545178Y1209461D01*
X545235Y1209495D01*
X545295Y1209520D01*
X545330Y1209551D01*
X545371Y1209576D01*
X545413Y1209627D01*
X545461Y1209671D01*
X545483Y1209713D01*
X545512Y1209750D01*
X545533Y1209812D01*
X545564Y1209871D01*
X545572Y1209925D01*
X545584Y1209962D01*
X545583Y1210002D01*
X545591Y1210056D01*
X545591Y1212596D01*
X545580Y1212661D01*
X545578Y1212727D01*
X545560Y1212770D01*
X545552Y1212817D01*
X545518Y1212874D01*
X545493Y1212934D01*
X545462Y1212969D01*
X545437Y1213010D01*
X545386Y1213052D01*
X545342Y1213100D01*
X545300Y1213122D01*
X545263Y1213151D01*
X545201Y1213172D01*
X545142Y1213203D01*
X545088Y1213211D01*
X545051Y1213223D01*
X545011Y1213222D01*
X544957Y1213230D01*
X541147Y1213230D01*
X541082Y1213219D01*
X541016Y1213217D01*
X540973Y1213199D01*
X540926Y1213191D01*
X540869Y1213157D01*
X540809Y1213132D01*
X540774Y1213101D01*
X540733Y1213076D01*
X540692Y1213025D01*
X540643Y1212981D01*
X540621Y1212939D01*
X540592Y1212902D01*
X540571Y1212840D01*
X540540Y1212781D01*
X540532Y1212727D01*
X540520Y1212690D01*
X540520Y1212687D01*
X540521Y1212650D01*
X540513Y1212596D01*
X540513Y1210056D01*
X540524Y1209991D01*
X540526Y1209925D01*
X540544Y1209882D01*
X540552Y1209835D01*
X540586Y1209778D01*
X540611Y1209718D01*
X540642Y1209683D01*
X540667Y1209642D01*
X540718Y1209601D01*
X540762Y1209552D01*
X540804Y1209530D01*
X540841Y1209501D01*
X540903Y1209480D01*
X540962Y1209449D01*
X541016Y1209441D01*
X541053Y1209429D01*
X541093Y1209430D01*
X541147Y1209422D01*
X544957Y1209422D01*
X545022Y1209433D01*
G37*
G36*
X296102Y1209433D02*
X296102Y1209433D01*
X296168Y1209435D01*
X296211Y1209453D01*
X296258Y1209461D01*
X296315Y1209495D01*
X296375Y1209520D01*
X296410Y1209551D01*
X296451Y1209576D01*
X296493Y1209627D01*
X296541Y1209671D01*
X296563Y1209713D01*
X296592Y1209750D01*
X296613Y1209812D01*
X296644Y1209871D01*
X296652Y1209925D01*
X296664Y1209962D01*
X296663Y1210002D01*
X296671Y1210056D01*
X296671Y1212596D01*
X296660Y1212661D01*
X296658Y1212727D01*
X296640Y1212770D01*
X296632Y1212817D01*
X296598Y1212874D01*
X296573Y1212934D01*
X296542Y1212969D01*
X296517Y1213010D01*
X296466Y1213052D01*
X296422Y1213100D01*
X296380Y1213122D01*
X296343Y1213151D01*
X296281Y1213172D01*
X296222Y1213203D01*
X296168Y1213211D01*
X296131Y1213223D01*
X296091Y1213222D01*
X296037Y1213230D01*
X292227Y1213230D01*
X292162Y1213219D01*
X292096Y1213217D01*
X292053Y1213199D01*
X292006Y1213191D01*
X291949Y1213157D01*
X291889Y1213132D01*
X291854Y1213101D01*
X291813Y1213076D01*
X291772Y1213025D01*
X291723Y1212981D01*
X291701Y1212939D01*
X291672Y1212902D01*
X291651Y1212840D01*
X291620Y1212781D01*
X291612Y1212727D01*
X291600Y1212690D01*
X291600Y1212687D01*
X291601Y1212650D01*
X291593Y1212596D01*
X291593Y1210056D01*
X291604Y1209991D01*
X291606Y1209925D01*
X291624Y1209882D01*
X291632Y1209835D01*
X291666Y1209778D01*
X291691Y1209718D01*
X291722Y1209683D01*
X291747Y1209642D01*
X291798Y1209601D01*
X291842Y1209552D01*
X291884Y1209530D01*
X291921Y1209501D01*
X291983Y1209480D01*
X292042Y1209449D01*
X292096Y1209441D01*
X292133Y1209429D01*
X292173Y1209430D01*
X292227Y1209422D01*
X296037Y1209422D01*
X296102Y1209433D01*
G37*
G36*
X555182Y1209433D02*
X555182Y1209433D01*
X555248Y1209435D01*
X555291Y1209453D01*
X555338Y1209461D01*
X555395Y1209495D01*
X555455Y1209520D01*
X555490Y1209551D01*
X555531Y1209576D01*
X555573Y1209627D01*
X555621Y1209671D01*
X555643Y1209713D01*
X555672Y1209750D01*
X555693Y1209812D01*
X555724Y1209871D01*
X555732Y1209925D01*
X555744Y1209962D01*
X555743Y1210002D01*
X555751Y1210056D01*
X555751Y1212596D01*
X555740Y1212661D01*
X555738Y1212727D01*
X555720Y1212770D01*
X555712Y1212817D01*
X555678Y1212874D01*
X555653Y1212934D01*
X555622Y1212969D01*
X555597Y1213010D01*
X555546Y1213052D01*
X555502Y1213100D01*
X555460Y1213122D01*
X555423Y1213151D01*
X555361Y1213172D01*
X555302Y1213203D01*
X555248Y1213211D01*
X555211Y1213223D01*
X555171Y1213222D01*
X555117Y1213230D01*
X551307Y1213230D01*
X551242Y1213219D01*
X551176Y1213217D01*
X551133Y1213199D01*
X551086Y1213191D01*
X551029Y1213157D01*
X550969Y1213132D01*
X550934Y1213101D01*
X550893Y1213076D01*
X550852Y1213025D01*
X550803Y1212981D01*
X550781Y1212939D01*
X550752Y1212902D01*
X550731Y1212840D01*
X550700Y1212781D01*
X550692Y1212727D01*
X550680Y1212690D01*
X550680Y1212687D01*
X550681Y1212650D01*
X550673Y1212596D01*
X550673Y1210056D01*
X550684Y1209991D01*
X550686Y1209925D01*
X550704Y1209882D01*
X550712Y1209835D01*
X550746Y1209778D01*
X550771Y1209718D01*
X550802Y1209683D01*
X550827Y1209642D01*
X550878Y1209601D01*
X550922Y1209552D01*
X550964Y1209530D01*
X551001Y1209501D01*
X551063Y1209480D01*
X551122Y1209449D01*
X551176Y1209441D01*
X551213Y1209429D01*
X551253Y1209430D01*
X551307Y1209422D01*
X555117Y1209422D01*
X555182Y1209433D01*
G37*
G36*
X26862Y1209433D02*
X26862Y1209433D01*
X26928Y1209435D01*
X26971Y1209453D01*
X27018Y1209461D01*
X27075Y1209495D01*
X27135Y1209520D01*
X27170Y1209551D01*
X27211Y1209576D01*
X27253Y1209627D01*
X27301Y1209671D01*
X27323Y1209713D01*
X27352Y1209750D01*
X27373Y1209812D01*
X27404Y1209871D01*
X27412Y1209925D01*
X27424Y1209962D01*
X27423Y1210002D01*
X27431Y1210056D01*
X27431Y1212596D01*
X27420Y1212661D01*
X27418Y1212727D01*
X27400Y1212770D01*
X27392Y1212817D01*
X27358Y1212874D01*
X27333Y1212934D01*
X27302Y1212969D01*
X27277Y1213010D01*
X27226Y1213052D01*
X27182Y1213100D01*
X27140Y1213122D01*
X27103Y1213151D01*
X27041Y1213172D01*
X26982Y1213203D01*
X26928Y1213211D01*
X26891Y1213223D01*
X26851Y1213222D01*
X26797Y1213230D01*
X22987Y1213230D01*
X22922Y1213219D01*
X22856Y1213217D01*
X22813Y1213199D01*
X22766Y1213191D01*
X22709Y1213157D01*
X22649Y1213132D01*
X22614Y1213101D01*
X22573Y1213076D01*
X22532Y1213025D01*
X22483Y1212981D01*
X22461Y1212939D01*
X22432Y1212902D01*
X22411Y1212840D01*
X22380Y1212781D01*
X22372Y1212727D01*
X22360Y1212690D01*
X22360Y1212687D01*
X22361Y1212650D01*
X22353Y1212596D01*
X22353Y1210056D01*
X22364Y1209991D01*
X22366Y1209925D01*
X22384Y1209882D01*
X22392Y1209835D01*
X22426Y1209778D01*
X22451Y1209718D01*
X22482Y1209683D01*
X22507Y1209642D01*
X22558Y1209601D01*
X22602Y1209552D01*
X22644Y1209530D01*
X22681Y1209501D01*
X22743Y1209480D01*
X22802Y1209449D01*
X22856Y1209441D01*
X22893Y1209429D01*
X22933Y1209430D01*
X22987Y1209422D01*
X26797Y1209422D01*
X26862Y1209433D01*
G37*
G36*
X285942Y1209433D02*
X285942Y1209433D01*
X286008Y1209435D01*
X286051Y1209453D01*
X286098Y1209461D01*
X286155Y1209495D01*
X286215Y1209520D01*
X286250Y1209551D01*
X286291Y1209576D01*
X286333Y1209627D01*
X286381Y1209671D01*
X286403Y1209713D01*
X286432Y1209750D01*
X286453Y1209812D01*
X286484Y1209871D01*
X286492Y1209925D01*
X286504Y1209962D01*
X286503Y1210002D01*
X286511Y1210056D01*
X286511Y1212596D01*
X286500Y1212661D01*
X286498Y1212727D01*
X286480Y1212770D01*
X286472Y1212817D01*
X286438Y1212874D01*
X286413Y1212934D01*
X286382Y1212969D01*
X286357Y1213010D01*
X286306Y1213052D01*
X286262Y1213100D01*
X286220Y1213122D01*
X286183Y1213151D01*
X286121Y1213172D01*
X286062Y1213203D01*
X286008Y1213211D01*
X285971Y1213223D01*
X285931Y1213222D01*
X285877Y1213230D01*
X282067Y1213230D01*
X282002Y1213219D01*
X281936Y1213217D01*
X281893Y1213199D01*
X281846Y1213191D01*
X281789Y1213157D01*
X281729Y1213132D01*
X281694Y1213101D01*
X281653Y1213076D01*
X281612Y1213025D01*
X281563Y1212981D01*
X281541Y1212939D01*
X281512Y1212902D01*
X281491Y1212840D01*
X281460Y1212781D01*
X281452Y1212727D01*
X281440Y1212690D01*
X281440Y1212687D01*
X281441Y1212650D01*
X281433Y1212596D01*
X281433Y1210056D01*
X281444Y1209991D01*
X281446Y1209925D01*
X281464Y1209882D01*
X281472Y1209835D01*
X281506Y1209778D01*
X281531Y1209718D01*
X281562Y1209683D01*
X281587Y1209642D01*
X281638Y1209601D01*
X281682Y1209552D01*
X281724Y1209530D01*
X281761Y1209501D01*
X281823Y1209480D01*
X281882Y1209449D01*
X281936Y1209441D01*
X281973Y1209429D01*
X282013Y1209430D01*
X282067Y1209422D01*
X285877Y1209422D01*
X285942Y1209433D01*
G37*
G36*
X840170Y1110881D02*
X840170Y1110881D01*
X840236Y1110883D01*
X840279Y1110901D01*
X840326Y1110909D01*
X840383Y1110943D01*
X840443Y1110968D01*
X840478Y1110999D01*
X840519Y1111024D01*
X840561Y1111075D01*
X840609Y1111119D01*
X840631Y1111161D01*
X840660Y1111198D01*
X840681Y1111260D01*
X840712Y1111319D01*
X840720Y1111373D01*
X840732Y1111410D01*
X840731Y1111450D01*
X840739Y1111504D01*
X840739Y1114044D01*
X840728Y1114109D01*
X840726Y1114175D01*
X840708Y1114218D01*
X840700Y1114265D01*
X840666Y1114322D01*
X840641Y1114382D01*
X840610Y1114417D01*
X840585Y1114458D01*
X840534Y1114500D01*
X840490Y1114548D01*
X840448Y1114570D01*
X840411Y1114599D01*
X840349Y1114620D01*
X840290Y1114651D01*
X840236Y1114659D01*
X840199Y1114671D01*
X840159Y1114670D01*
X840105Y1114678D01*
X836295Y1114678D01*
X836230Y1114667D01*
X836164Y1114665D01*
X836121Y1114647D01*
X836074Y1114639D01*
X836017Y1114605D01*
X835957Y1114580D01*
X835922Y1114549D01*
X835881Y1114524D01*
X835840Y1114473D01*
X835791Y1114429D01*
X835769Y1114387D01*
X835740Y1114350D01*
X835719Y1114288D01*
X835688Y1114229D01*
X835680Y1114175D01*
X835668Y1114138D01*
X835668Y1114135D01*
X835669Y1114098D01*
X835661Y1114044D01*
X835661Y1111504D01*
X835672Y1111439D01*
X835674Y1111373D01*
X835692Y1111330D01*
X835700Y1111283D01*
X835734Y1111226D01*
X835759Y1111166D01*
X835790Y1111131D01*
X835815Y1111090D01*
X835866Y1111049D01*
X835910Y1111000D01*
X835952Y1110978D01*
X835989Y1110949D01*
X836051Y1110928D01*
X836110Y1110897D01*
X836164Y1110889D01*
X836201Y1110877D01*
X836241Y1110878D01*
X836295Y1110870D01*
X840105Y1110870D01*
X840170Y1110881D01*
G37*
G36*
X322010Y1110881D02*
X322010Y1110881D01*
X322076Y1110883D01*
X322119Y1110901D01*
X322166Y1110909D01*
X322223Y1110943D01*
X322283Y1110968D01*
X322318Y1110999D01*
X322359Y1111024D01*
X322401Y1111075D01*
X322449Y1111119D01*
X322471Y1111161D01*
X322500Y1111198D01*
X322521Y1111260D01*
X322552Y1111319D01*
X322560Y1111373D01*
X322572Y1111410D01*
X322571Y1111450D01*
X322579Y1111504D01*
X322579Y1114044D01*
X322568Y1114109D01*
X322566Y1114175D01*
X322548Y1114218D01*
X322540Y1114265D01*
X322506Y1114322D01*
X322481Y1114382D01*
X322450Y1114417D01*
X322425Y1114458D01*
X322374Y1114500D01*
X322330Y1114548D01*
X322288Y1114570D01*
X322251Y1114599D01*
X322189Y1114620D01*
X322130Y1114651D01*
X322076Y1114659D01*
X322039Y1114671D01*
X321999Y1114670D01*
X321945Y1114678D01*
X318135Y1114678D01*
X318070Y1114667D01*
X318004Y1114665D01*
X317961Y1114647D01*
X317914Y1114639D01*
X317857Y1114605D01*
X317797Y1114580D01*
X317762Y1114549D01*
X317721Y1114524D01*
X317680Y1114473D01*
X317631Y1114429D01*
X317609Y1114387D01*
X317580Y1114350D01*
X317559Y1114288D01*
X317528Y1114229D01*
X317520Y1114175D01*
X317508Y1114138D01*
X317508Y1114135D01*
X317509Y1114098D01*
X317501Y1114044D01*
X317501Y1111504D01*
X317512Y1111439D01*
X317514Y1111373D01*
X317532Y1111330D01*
X317540Y1111283D01*
X317574Y1111226D01*
X317599Y1111166D01*
X317630Y1111131D01*
X317655Y1111090D01*
X317706Y1111049D01*
X317750Y1111000D01*
X317792Y1110978D01*
X317829Y1110949D01*
X317891Y1110928D01*
X317950Y1110897D01*
X318004Y1110889D01*
X318041Y1110877D01*
X318081Y1110878D01*
X318135Y1110870D01*
X321945Y1110870D01*
X322010Y1110881D01*
G37*
G36*
X62930Y1110881D02*
X62930Y1110881D01*
X62996Y1110883D01*
X63039Y1110901D01*
X63086Y1110909D01*
X63143Y1110943D01*
X63203Y1110968D01*
X63238Y1110999D01*
X63279Y1111024D01*
X63321Y1111075D01*
X63369Y1111119D01*
X63391Y1111161D01*
X63420Y1111198D01*
X63441Y1111260D01*
X63472Y1111319D01*
X63480Y1111373D01*
X63492Y1111410D01*
X63491Y1111450D01*
X63499Y1111504D01*
X63499Y1114044D01*
X63488Y1114109D01*
X63486Y1114175D01*
X63468Y1114218D01*
X63460Y1114265D01*
X63426Y1114322D01*
X63401Y1114382D01*
X63370Y1114417D01*
X63345Y1114458D01*
X63294Y1114500D01*
X63250Y1114548D01*
X63208Y1114570D01*
X63171Y1114599D01*
X63109Y1114620D01*
X63050Y1114651D01*
X62996Y1114659D01*
X62959Y1114671D01*
X62919Y1114670D01*
X62865Y1114678D01*
X59055Y1114678D01*
X58990Y1114667D01*
X58924Y1114665D01*
X58881Y1114647D01*
X58834Y1114639D01*
X58777Y1114605D01*
X58717Y1114580D01*
X58682Y1114549D01*
X58641Y1114524D01*
X58600Y1114473D01*
X58551Y1114429D01*
X58529Y1114387D01*
X58500Y1114350D01*
X58479Y1114288D01*
X58448Y1114229D01*
X58440Y1114175D01*
X58428Y1114138D01*
X58428Y1114135D01*
X58429Y1114098D01*
X58421Y1114044D01*
X58421Y1111504D01*
X58432Y1111439D01*
X58434Y1111373D01*
X58452Y1111330D01*
X58460Y1111283D01*
X58494Y1111226D01*
X58519Y1111166D01*
X58550Y1111131D01*
X58575Y1111090D01*
X58626Y1111049D01*
X58670Y1111000D01*
X58712Y1110978D01*
X58749Y1110949D01*
X58811Y1110928D01*
X58870Y1110897D01*
X58924Y1110889D01*
X58961Y1110877D01*
X59001Y1110878D01*
X59055Y1110870D01*
X62865Y1110870D01*
X62930Y1110881D01*
G37*
G36*
X581090Y1110881D02*
X581090Y1110881D01*
X581156Y1110883D01*
X581199Y1110901D01*
X581246Y1110909D01*
X581303Y1110943D01*
X581363Y1110968D01*
X581398Y1110999D01*
X581439Y1111024D01*
X581481Y1111075D01*
X581529Y1111119D01*
X581551Y1111161D01*
X581580Y1111198D01*
X581601Y1111260D01*
X581632Y1111319D01*
X581640Y1111373D01*
X581652Y1111410D01*
X581651Y1111450D01*
X581659Y1111504D01*
X581659Y1114044D01*
X581648Y1114109D01*
X581646Y1114175D01*
X581628Y1114218D01*
X581620Y1114265D01*
X581586Y1114322D01*
X581561Y1114382D01*
X581530Y1114417D01*
X581505Y1114458D01*
X581454Y1114500D01*
X581410Y1114548D01*
X581368Y1114570D01*
X581331Y1114599D01*
X581269Y1114620D01*
X581210Y1114651D01*
X581156Y1114659D01*
X581119Y1114671D01*
X581079Y1114670D01*
X581025Y1114678D01*
X577215Y1114678D01*
X577150Y1114667D01*
X577084Y1114665D01*
X577041Y1114647D01*
X576994Y1114639D01*
X576937Y1114605D01*
X576877Y1114580D01*
X576842Y1114549D01*
X576801Y1114524D01*
X576760Y1114473D01*
X576711Y1114429D01*
X576689Y1114387D01*
X576660Y1114350D01*
X576639Y1114288D01*
X576608Y1114229D01*
X576600Y1114175D01*
X576588Y1114138D01*
X576588Y1114135D01*
X576589Y1114098D01*
X576581Y1114044D01*
X576581Y1111504D01*
X576592Y1111439D01*
X576594Y1111373D01*
X576612Y1111330D01*
X576620Y1111283D01*
X576654Y1111226D01*
X576679Y1111166D01*
X576710Y1111131D01*
X576735Y1111090D01*
X576786Y1111049D01*
X576830Y1111000D01*
X576872Y1110978D01*
X576909Y1110949D01*
X576971Y1110928D01*
X577030Y1110897D01*
X577084Y1110889D01*
X577121Y1110877D01*
X577161Y1110878D01*
X577215Y1110870D01*
X581025Y1110870D01*
X581090Y1110881D01*
G37*
G36*
X484062Y1098181D02*
X484062Y1098181D01*
X484128Y1098183D01*
X484171Y1098201D01*
X484218Y1098209D01*
X484275Y1098243D01*
X484335Y1098268D01*
X484370Y1098299D01*
X484411Y1098324D01*
X484453Y1098375D01*
X484501Y1098419D01*
X484523Y1098461D01*
X484552Y1098498D01*
X484573Y1098560D01*
X484604Y1098619D01*
X484612Y1098673D01*
X484624Y1098710D01*
X484623Y1098750D01*
X484631Y1098804D01*
X484631Y1101344D01*
X484620Y1101409D01*
X484618Y1101475D01*
X484600Y1101518D01*
X484592Y1101565D01*
X484558Y1101622D01*
X484533Y1101682D01*
X484502Y1101717D01*
X484477Y1101758D01*
X484426Y1101800D01*
X484382Y1101848D01*
X484340Y1101870D01*
X484303Y1101899D01*
X484241Y1101920D01*
X484182Y1101951D01*
X484128Y1101959D01*
X484091Y1101971D01*
X484051Y1101970D01*
X483997Y1101978D01*
X480187Y1101978D01*
X480122Y1101967D01*
X480056Y1101965D01*
X480013Y1101947D01*
X479966Y1101939D01*
X479909Y1101905D01*
X479849Y1101880D01*
X479814Y1101849D01*
X479773Y1101824D01*
X479732Y1101773D01*
X479683Y1101729D01*
X479661Y1101687D01*
X479632Y1101650D01*
X479611Y1101588D01*
X479580Y1101529D01*
X479572Y1101475D01*
X479560Y1101438D01*
X479560Y1101435D01*
X479561Y1101398D01*
X479553Y1101344D01*
X479553Y1098804D01*
X479564Y1098739D01*
X479566Y1098673D01*
X479584Y1098630D01*
X479592Y1098583D01*
X479626Y1098526D01*
X479651Y1098466D01*
X479682Y1098431D01*
X479707Y1098390D01*
X479758Y1098349D01*
X479802Y1098300D01*
X479844Y1098278D01*
X479881Y1098249D01*
X479943Y1098228D01*
X480002Y1098197D01*
X480056Y1098189D01*
X480093Y1098177D01*
X480133Y1098178D01*
X480187Y1098170D01*
X483997Y1098170D01*
X484062Y1098181D01*
G37*
G36*
X743142Y1098181D02*
X743142Y1098181D01*
X743208Y1098183D01*
X743251Y1098201D01*
X743298Y1098209D01*
X743355Y1098243D01*
X743415Y1098268D01*
X743450Y1098299D01*
X743491Y1098324D01*
X743533Y1098375D01*
X743581Y1098419D01*
X743603Y1098461D01*
X743632Y1098498D01*
X743653Y1098560D01*
X743684Y1098619D01*
X743692Y1098673D01*
X743704Y1098710D01*
X743703Y1098750D01*
X743711Y1098804D01*
X743711Y1101344D01*
X743700Y1101409D01*
X743698Y1101475D01*
X743680Y1101518D01*
X743672Y1101565D01*
X743638Y1101622D01*
X743613Y1101682D01*
X743582Y1101717D01*
X743557Y1101758D01*
X743506Y1101800D01*
X743462Y1101848D01*
X743420Y1101870D01*
X743383Y1101899D01*
X743321Y1101920D01*
X743262Y1101951D01*
X743208Y1101959D01*
X743171Y1101971D01*
X743131Y1101970D01*
X743077Y1101978D01*
X739267Y1101978D01*
X739202Y1101967D01*
X739136Y1101965D01*
X739093Y1101947D01*
X739046Y1101939D01*
X738989Y1101905D01*
X738929Y1101880D01*
X738894Y1101849D01*
X738853Y1101824D01*
X738812Y1101773D01*
X738763Y1101729D01*
X738741Y1101687D01*
X738712Y1101650D01*
X738691Y1101588D01*
X738660Y1101529D01*
X738652Y1101475D01*
X738640Y1101438D01*
X738640Y1101435D01*
X738641Y1101398D01*
X738633Y1101344D01*
X738633Y1098804D01*
X738644Y1098739D01*
X738646Y1098673D01*
X738664Y1098630D01*
X738672Y1098583D01*
X738706Y1098526D01*
X738731Y1098466D01*
X738762Y1098431D01*
X738787Y1098390D01*
X738838Y1098349D01*
X738882Y1098300D01*
X738924Y1098278D01*
X738961Y1098249D01*
X739023Y1098228D01*
X739082Y1098197D01*
X739136Y1098189D01*
X739173Y1098177D01*
X739213Y1098178D01*
X739267Y1098170D01*
X743077Y1098170D01*
X743142Y1098181D01*
G37*
G36*
X1002222Y1098181D02*
X1002222Y1098181D01*
X1002288Y1098183D01*
X1002331Y1098201D01*
X1002378Y1098209D01*
X1002435Y1098243D01*
X1002495Y1098268D01*
X1002530Y1098299D01*
X1002571Y1098324D01*
X1002613Y1098375D01*
X1002661Y1098419D01*
X1002683Y1098461D01*
X1002712Y1098498D01*
X1002733Y1098560D01*
X1002764Y1098619D01*
X1002772Y1098673D01*
X1002784Y1098710D01*
X1002783Y1098750D01*
X1002791Y1098804D01*
X1002791Y1101344D01*
X1002780Y1101409D01*
X1002778Y1101475D01*
X1002760Y1101518D01*
X1002752Y1101565D01*
X1002718Y1101622D01*
X1002693Y1101682D01*
X1002662Y1101717D01*
X1002637Y1101758D01*
X1002586Y1101800D01*
X1002542Y1101848D01*
X1002500Y1101870D01*
X1002463Y1101899D01*
X1002401Y1101920D01*
X1002342Y1101951D01*
X1002288Y1101959D01*
X1002251Y1101971D01*
X1002211Y1101970D01*
X1002157Y1101978D01*
X998347Y1101978D01*
X998282Y1101967D01*
X998216Y1101965D01*
X998173Y1101947D01*
X998126Y1101939D01*
X998069Y1101905D01*
X998009Y1101880D01*
X997974Y1101849D01*
X997933Y1101824D01*
X997892Y1101773D01*
X997843Y1101729D01*
X997821Y1101687D01*
X997792Y1101650D01*
X997771Y1101588D01*
X997740Y1101529D01*
X997732Y1101475D01*
X997720Y1101438D01*
X997720Y1101435D01*
X997721Y1101398D01*
X997713Y1101344D01*
X997713Y1098804D01*
X997724Y1098739D01*
X997726Y1098673D01*
X997744Y1098630D01*
X997752Y1098583D01*
X997786Y1098526D01*
X997811Y1098466D01*
X997842Y1098431D01*
X997867Y1098390D01*
X997918Y1098349D01*
X997962Y1098300D01*
X998004Y1098278D01*
X998041Y1098249D01*
X998103Y1098228D01*
X998162Y1098197D01*
X998216Y1098189D01*
X998253Y1098177D01*
X998293Y1098178D01*
X998347Y1098170D01*
X1002157Y1098170D01*
X1002222Y1098181D01*
G37*
G36*
X224982Y1098181D02*
X224982Y1098181D01*
X225048Y1098183D01*
X225091Y1098201D01*
X225138Y1098209D01*
X225195Y1098243D01*
X225255Y1098268D01*
X225290Y1098299D01*
X225331Y1098324D01*
X225373Y1098375D01*
X225421Y1098419D01*
X225443Y1098461D01*
X225472Y1098498D01*
X225493Y1098560D01*
X225524Y1098619D01*
X225532Y1098673D01*
X225544Y1098710D01*
X225543Y1098750D01*
X225551Y1098804D01*
X225551Y1101344D01*
X225540Y1101409D01*
X225538Y1101475D01*
X225520Y1101518D01*
X225512Y1101565D01*
X225478Y1101622D01*
X225453Y1101682D01*
X225422Y1101717D01*
X225397Y1101758D01*
X225346Y1101800D01*
X225302Y1101848D01*
X225260Y1101870D01*
X225223Y1101899D01*
X225161Y1101920D01*
X225102Y1101951D01*
X225048Y1101959D01*
X225011Y1101971D01*
X224971Y1101970D01*
X224917Y1101978D01*
X221107Y1101978D01*
X221042Y1101967D01*
X220976Y1101965D01*
X220933Y1101947D01*
X220886Y1101939D01*
X220829Y1101905D01*
X220769Y1101880D01*
X220734Y1101849D01*
X220693Y1101824D01*
X220652Y1101773D01*
X220603Y1101729D01*
X220581Y1101687D01*
X220552Y1101650D01*
X220531Y1101588D01*
X220500Y1101529D01*
X220492Y1101475D01*
X220480Y1101438D01*
X220480Y1101435D01*
X220481Y1101398D01*
X220473Y1101344D01*
X220473Y1098804D01*
X220484Y1098739D01*
X220486Y1098673D01*
X220504Y1098630D01*
X220512Y1098583D01*
X220546Y1098526D01*
X220571Y1098466D01*
X220602Y1098431D01*
X220627Y1098390D01*
X220678Y1098349D01*
X220722Y1098300D01*
X220764Y1098278D01*
X220801Y1098249D01*
X220863Y1098228D01*
X220922Y1098197D01*
X220976Y1098189D01*
X221013Y1098177D01*
X221053Y1098178D01*
X221107Y1098170D01*
X224917Y1098170D01*
X224982Y1098181D01*
G37*
G36*
X37022Y950353D02*
X37022Y950353D01*
X37088Y950355D01*
X37131Y950373D01*
X37178Y950381D01*
X37235Y950415D01*
X37295Y950440D01*
X37330Y950471D01*
X37371Y950496D01*
X37413Y950547D01*
X37461Y950591D01*
X37483Y950633D01*
X37512Y950670D01*
X37533Y950732D01*
X37564Y950791D01*
X37572Y950845D01*
X37584Y950882D01*
X37583Y950922D01*
X37591Y950976D01*
X37591Y953516D01*
X37580Y953581D01*
X37578Y953647D01*
X37560Y953690D01*
X37552Y953737D01*
X37518Y953794D01*
X37493Y953854D01*
X37462Y953889D01*
X37437Y953930D01*
X37386Y953972D01*
X37342Y954020D01*
X37300Y954042D01*
X37263Y954071D01*
X37201Y954092D01*
X37142Y954123D01*
X37088Y954131D01*
X37051Y954143D01*
X37011Y954142D01*
X36957Y954150D01*
X33147Y954150D01*
X33082Y954139D01*
X33016Y954137D01*
X32973Y954119D01*
X32926Y954111D01*
X32869Y954077D01*
X32809Y954052D01*
X32774Y954021D01*
X32733Y953996D01*
X32692Y953945D01*
X32643Y953901D01*
X32621Y953859D01*
X32592Y953822D01*
X32571Y953760D01*
X32540Y953701D01*
X32532Y953647D01*
X32520Y953610D01*
X32520Y953607D01*
X32521Y953570D01*
X32513Y953516D01*
X32513Y950976D01*
X32524Y950911D01*
X32526Y950845D01*
X32544Y950802D01*
X32552Y950755D01*
X32586Y950698D01*
X32611Y950638D01*
X32642Y950603D01*
X32667Y950562D01*
X32718Y950521D01*
X32762Y950472D01*
X32804Y950450D01*
X32841Y950421D01*
X32903Y950400D01*
X32962Y950369D01*
X33016Y950361D01*
X33053Y950349D01*
X33093Y950350D01*
X33147Y950342D01*
X36957Y950342D01*
X37022Y950353D01*
G37*
G36*
X804102Y950353D02*
X804102Y950353D01*
X804168Y950355D01*
X804211Y950373D01*
X804258Y950381D01*
X804315Y950415D01*
X804375Y950440D01*
X804410Y950471D01*
X804451Y950496D01*
X804493Y950547D01*
X804541Y950591D01*
X804563Y950633D01*
X804592Y950670D01*
X804613Y950732D01*
X804644Y950791D01*
X804652Y950845D01*
X804664Y950882D01*
X804663Y950922D01*
X804671Y950976D01*
X804671Y953516D01*
X804660Y953581D01*
X804658Y953647D01*
X804640Y953690D01*
X804632Y953737D01*
X804598Y953794D01*
X804573Y953854D01*
X804542Y953889D01*
X804517Y953930D01*
X804466Y953972D01*
X804422Y954020D01*
X804380Y954042D01*
X804343Y954071D01*
X804281Y954092D01*
X804222Y954123D01*
X804168Y954131D01*
X804131Y954143D01*
X804091Y954142D01*
X804037Y954150D01*
X800227Y954150D01*
X800162Y954139D01*
X800096Y954137D01*
X800053Y954119D01*
X800006Y954111D01*
X799949Y954077D01*
X799889Y954052D01*
X799854Y954021D01*
X799813Y953996D01*
X799772Y953945D01*
X799723Y953901D01*
X799701Y953859D01*
X799672Y953822D01*
X799651Y953760D01*
X799620Y953701D01*
X799612Y953647D01*
X799600Y953610D01*
X799600Y953607D01*
X799601Y953570D01*
X799593Y953516D01*
X799593Y950976D01*
X799604Y950911D01*
X799606Y950845D01*
X799624Y950802D01*
X799632Y950755D01*
X799666Y950698D01*
X799691Y950638D01*
X799722Y950603D01*
X799747Y950562D01*
X799798Y950521D01*
X799842Y950472D01*
X799884Y950450D01*
X799921Y950421D01*
X799983Y950400D01*
X800042Y950369D01*
X800096Y950361D01*
X800133Y950349D01*
X800173Y950350D01*
X800227Y950342D01*
X804037Y950342D01*
X804102Y950353D01*
G37*
G36*
X296102Y950353D02*
X296102Y950353D01*
X296168Y950355D01*
X296211Y950373D01*
X296258Y950381D01*
X296315Y950415D01*
X296375Y950440D01*
X296410Y950471D01*
X296451Y950496D01*
X296493Y950547D01*
X296541Y950591D01*
X296563Y950633D01*
X296592Y950670D01*
X296613Y950732D01*
X296644Y950791D01*
X296652Y950845D01*
X296664Y950882D01*
X296663Y950922D01*
X296671Y950976D01*
X296671Y953516D01*
X296660Y953581D01*
X296658Y953647D01*
X296640Y953690D01*
X296632Y953737D01*
X296598Y953794D01*
X296573Y953854D01*
X296542Y953889D01*
X296517Y953930D01*
X296466Y953972D01*
X296422Y954020D01*
X296380Y954042D01*
X296343Y954071D01*
X296281Y954092D01*
X296222Y954123D01*
X296168Y954131D01*
X296131Y954143D01*
X296091Y954142D01*
X296037Y954150D01*
X292227Y954150D01*
X292162Y954139D01*
X292096Y954137D01*
X292053Y954119D01*
X292006Y954111D01*
X291949Y954077D01*
X291889Y954052D01*
X291854Y954021D01*
X291813Y953996D01*
X291772Y953945D01*
X291723Y953901D01*
X291701Y953859D01*
X291672Y953822D01*
X291651Y953760D01*
X291620Y953701D01*
X291612Y953647D01*
X291600Y953610D01*
X291600Y953607D01*
X291601Y953570D01*
X291593Y953516D01*
X291593Y950976D01*
X291604Y950911D01*
X291606Y950845D01*
X291624Y950802D01*
X291632Y950755D01*
X291666Y950698D01*
X291691Y950638D01*
X291722Y950603D01*
X291747Y950562D01*
X291798Y950521D01*
X291842Y950472D01*
X291884Y950450D01*
X291921Y950421D01*
X291983Y950400D01*
X292042Y950369D01*
X292096Y950361D01*
X292133Y950349D01*
X292173Y950350D01*
X292227Y950342D01*
X296037Y950342D01*
X296102Y950353D01*
G37*
G36*
X814262Y950353D02*
X814262Y950353D01*
X814328Y950355D01*
X814371Y950373D01*
X814418Y950381D01*
X814475Y950415D01*
X814535Y950440D01*
X814570Y950471D01*
X814611Y950496D01*
X814653Y950547D01*
X814701Y950591D01*
X814723Y950633D01*
X814752Y950670D01*
X814773Y950732D01*
X814804Y950791D01*
X814812Y950845D01*
X814824Y950882D01*
X814823Y950922D01*
X814831Y950976D01*
X814831Y953516D01*
X814820Y953581D01*
X814818Y953647D01*
X814800Y953690D01*
X814792Y953737D01*
X814758Y953794D01*
X814733Y953854D01*
X814702Y953889D01*
X814677Y953930D01*
X814626Y953972D01*
X814582Y954020D01*
X814540Y954042D01*
X814503Y954071D01*
X814441Y954092D01*
X814382Y954123D01*
X814328Y954131D01*
X814291Y954143D01*
X814251Y954142D01*
X814197Y954150D01*
X810387Y954150D01*
X810322Y954139D01*
X810256Y954137D01*
X810213Y954119D01*
X810166Y954111D01*
X810109Y954077D01*
X810049Y954052D01*
X810014Y954021D01*
X809973Y953996D01*
X809932Y953945D01*
X809883Y953901D01*
X809861Y953859D01*
X809832Y953822D01*
X809811Y953760D01*
X809780Y953701D01*
X809772Y953647D01*
X809760Y953610D01*
X809760Y953607D01*
X809761Y953570D01*
X809753Y953516D01*
X809753Y950976D01*
X809764Y950911D01*
X809766Y950845D01*
X809784Y950802D01*
X809792Y950755D01*
X809826Y950698D01*
X809851Y950638D01*
X809882Y950603D01*
X809907Y950562D01*
X809958Y950521D01*
X810002Y950472D01*
X810044Y950450D01*
X810081Y950421D01*
X810143Y950400D01*
X810202Y950369D01*
X810256Y950361D01*
X810293Y950349D01*
X810333Y950350D01*
X810387Y950342D01*
X814197Y950342D01*
X814262Y950353D01*
G37*
G36*
X555182Y950353D02*
X555182Y950353D01*
X555248Y950355D01*
X555291Y950373D01*
X555338Y950381D01*
X555395Y950415D01*
X555455Y950440D01*
X555490Y950471D01*
X555531Y950496D01*
X555573Y950547D01*
X555621Y950591D01*
X555643Y950633D01*
X555672Y950670D01*
X555693Y950732D01*
X555724Y950791D01*
X555732Y950845D01*
X555744Y950882D01*
X555743Y950922D01*
X555751Y950976D01*
X555751Y953516D01*
X555740Y953581D01*
X555738Y953647D01*
X555720Y953690D01*
X555712Y953737D01*
X555678Y953794D01*
X555653Y953854D01*
X555622Y953889D01*
X555597Y953930D01*
X555546Y953972D01*
X555502Y954020D01*
X555460Y954042D01*
X555423Y954071D01*
X555361Y954092D01*
X555302Y954123D01*
X555248Y954131D01*
X555211Y954143D01*
X555171Y954142D01*
X555117Y954150D01*
X551307Y954150D01*
X551242Y954139D01*
X551176Y954137D01*
X551133Y954119D01*
X551086Y954111D01*
X551029Y954077D01*
X550969Y954052D01*
X550934Y954021D01*
X550893Y953996D01*
X550852Y953945D01*
X550803Y953901D01*
X550781Y953859D01*
X550752Y953822D01*
X550731Y953760D01*
X550700Y953701D01*
X550692Y953647D01*
X550680Y953610D01*
X550680Y953607D01*
X550681Y953570D01*
X550673Y953516D01*
X550673Y950976D01*
X550684Y950911D01*
X550686Y950845D01*
X550704Y950802D01*
X550712Y950755D01*
X550746Y950698D01*
X550771Y950638D01*
X550802Y950603D01*
X550827Y950562D01*
X550878Y950521D01*
X550922Y950472D01*
X550964Y950450D01*
X551001Y950421D01*
X551063Y950400D01*
X551122Y950369D01*
X551176Y950361D01*
X551213Y950349D01*
X551253Y950350D01*
X551307Y950342D01*
X555117Y950342D01*
X555182Y950353D01*
G37*
G36*
X545022Y950353D02*
X545022Y950353D01*
X545088Y950355D01*
X545131Y950373D01*
X545178Y950381D01*
X545235Y950415D01*
X545295Y950440D01*
X545330Y950471D01*
X545371Y950496D01*
X545413Y950547D01*
X545461Y950591D01*
X545483Y950633D01*
X545512Y950670D01*
X545533Y950732D01*
X545564Y950791D01*
X545572Y950845D01*
X545584Y950882D01*
X545583Y950922D01*
X545591Y950976D01*
X545591Y953516D01*
X545580Y953581D01*
X545578Y953647D01*
X545560Y953690D01*
X545552Y953737D01*
X545518Y953794D01*
X545493Y953854D01*
X545462Y953889D01*
X545437Y953930D01*
X545386Y953972D01*
X545342Y954020D01*
X545300Y954042D01*
X545263Y954071D01*
X545201Y954092D01*
X545142Y954123D01*
X545088Y954131D01*
X545051Y954143D01*
X545011Y954142D01*
X544957Y954150D01*
X541147Y954150D01*
X541082Y954139D01*
X541016Y954137D01*
X540973Y954119D01*
X540926Y954111D01*
X540869Y954077D01*
X540809Y954052D01*
X540774Y954021D01*
X540733Y953996D01*
X540692Y953945D01*
X540643Y953901D01*
X540621Y953859D01*
X540592Y953822D01*
X540571Y953760D01*
X540540Y953701D01*
X540532Y953647D01*
X540520Y953610D01*
X540520Y953607D01*
X540521Y953570D01*
X540513Y953516D01*
X540513Y950976D01*
X540524Y950911D01*
X540526Y950845D01*
X540544Y950802D01*
X540552Y950755D01*
X540586Y950698D01*
X540611Y950638D01*
X540642Y950603D01*
X540667Y950562D01*
X540718Y950521D01*
X540762Y950472D01*
X540804Y950450D01*
X540841Y950421D01*
X540903Y950400D01*
X540962Y950369D01*
X541016Y950361D01*
X541053Y950349D01*
X541093Y950350D01*
X541147Y950342D01*
X544957Y950342D01*
X545022Y950353D01*
G37*
G36*
X285942Y950353D02*
X285942Y950353D01*
X286008Y950355D01*
X286051Y950373D01*
X286098Y950381D01*
X286155Y950415D01*
X286215Y950440D01*
X286250Y950471D01*
X286291Y950496D01*
X286333Y950547D01*
X286381Y950591D01*
X286403Y950633D01*
X286432Y950670D01*
X286453Y950732D01*
X286484Y950791D01*
X286492Y950845D01*
X286504Y950882D01*
X286503Y950922D01*
X286511Y950976D01*
X286511Y953516D01*
X286500Y953581D01*
X286498Y953647D01*
X286480Y953690D01*
X286472Y953737D01*
X286438Y953794D01*
X286413Y953854D01*
X286382Y953889D01*
X286357Y953930D01*
X286306Y953972D01*
X286262Y954020D01*
X286220Y954042D01*
X286183Y954071D01*
X286121Y954092D01*
X286062Y954123D01*
X286008Y954131D01*
X285971Y954143D01*
X285931Y954142D01*
X285877Y954150D01*
X282067Y954150D01*
X282002Y954139D01*
X281936Y954137D01*
X281893Y954119D01*
X281846Y954111D01*
X281789Y954077D01*
X281729Y954052D01*
X281694Y954021D01*
X281653Y953996D01*
X281612Y953945D01*
X281563Y953901D01*
X281541Y953859D01*
X281512Y953822D01*
X281491Y953760D01*
X281460Y953701D01*
X281452Y953647D01*
X281440Y953610D01*
X281440Y953607D01*
X281441Y953570D01*
X281433Y953516D01*
X281433Y950976D01*
X281444Y950911D01*
X281446Y950845D01*
X281464Y950802D01*
X281472Y950755D01*
X281506Y950698D01*
X281531Y950638D01*
X281562Y950603D01*
X281587Y950562D01*
X281638Y950521D01*
X281682Y950472D01*
X281724Y950450D01*
X281761Y950421D01*
X281823Y950400D01*
X281882Y950369D01*
X281936Y950361D01*
X281973Y950349D01*
X282013Y950350D01*
X282067Y950342D01*
X285877Y950342D01*
X285942Y950353D01*
G37*
G36*
X26862Y950353D02*
X26862Y950353D01*
X26928Y950355D01*
X26971Y950373D01*
X27018Y950381D01*
X27075Y950415D01*
X27135Y950440D01*
X27170Y950471D01*
X27211Y950496D01*
X27253Y950547D01*
X27301Y950591D01*
X27323Y950633D01*
X27352Y950670D01*
X27373Y950732D01*
X27404Y950791D01*
X27412Y950845D01*
X27424Y950882D01*
X27423Y950922D01*
X27431Y950976D01*
X27431Y953516D01*
X27420Y953581D01*
X27418Y953647D01*
X27400Y953690D01*
X27392Y953737D01*
X27358Y953794D01*
X27333Y953854D01*
X27302Y953889D01*
X27277Y953930D01*
X27226Y953972D01*
X27182Y954020D01*
X27140Y954042D01*
X27103Y954071D01*
X27041Y954092D01*
X26982Y954123D01*
X26928Y954131D01*
X26891Y954143D01*
X26851Y954142D01*
X26797Y954150D01*
X22987Y954150D01*
X22922Y954139D01*
X22856Y954137D01*
X22813Y954119D01*
X22766Y954111D01*
X22709Y954077D01*
X22649Y954052D01*
X22614Y954021D01*
X22573Y953996D01*
X22532Y953945D01*
X22483Y953901D01*
X22461Y953859D01*
X22432Y953822D01*
X22411Y953760D01*
X22380Y953701D01*
X22372Y953647D01*
X22360Y953610D01*
X22360Y953607D01*
X22361Y953570D01*
X22353Y953516D01*
X22353Y950976D01*
X22364Y950911D01*
X22366Y950845D01*
X22384Y950802D01*
X22392Y950755D01*
X22426Y950698D01*
X22451Y950638D01*
X22482Y950603D01*
X22507Y950562D01*
X22558Y950521D01*
X22602Y950472D01*
X22644Y950450D01*
X22681Y950421D01*
X22743Y950400D01*
X22802Y950369D01*
X22856Y950361D01*
X22893Y950349D01*
X22933Y950350D01*
X22987Y950342D01*
X26797Y950342D01*
X26862Y950353D01*
G37*
G36*
X840170Y851801D02*
X840170Y851801D01*
X840236Y851803D01*
X840279Y851821D01*
X840326Y851829D01*
X840383Y851863D01*
X840443Y851888D01*
X840478Y851919D01*
X840519Y851944D01*
X840561Y851995D01*
X840609Y852039D01*
X840631Y852081D01*
X840660Y852118D01*
X840681Y852180D01*
X840712Y852239D01*
X840720Y852293D01*
X840732Y852330D01*
X840731Y852370D01*
X840739Y852424D01*
X840739Y854964D01*
X840728Y855029D01*
X840726Y855095D01*
X840708Y855138D01*
X840700Y855185D01*
X840666Y855242D01*
X840641Y855302D01*
X840610Y855337D01*
X840585Y855378D01*
X840534Y855420D01*
X840490Y855468D01*
X840448Y855490D01*
X840411Y855519D01*
X840349Y855540D01*
X840290Y855571D01*
X840236Y855579D01*
X840199Y855591D01*
X840159Y855590D01*
X840105Y855598D01*
X836295Y855598D01*
X836230Y855587D01*
X836164Y855585D01*
X836121Y855567D01*
X836074Y855559D01*
X836017Y855525D01*
X835957Y855500D01*
X835922Y855469D01*
X835881Y855444D01*
X835840Y855393D01*
X835791Y855349D01*
X835769Y855307D01*
X835740Y855270D01*
X835719Y855208D01*
X835688Y855149D01*
X835680Y855095D01*
X835668Y855058D01*
X835668Y855055D01*
X835669Y855018D01*
X835661Y854964D01*
X835661Y852424D01*
X835672Y852359D01*
X835674Y852293D01*
X835692Y852250D01*
X835700Y852203D01*
X835734Y852146D01*
X835759Y852086D01*
X835790Y852051D01*
X835815Y852010D01*
X835866Y851969D01*
X835910Y851920D01*
X835952Y851898D01*
X835989Y851869D01*
X836051Y851848D01*
X836110Y851817D01*
X836164Y851809D01*
X836201Y851797D01*
X836241Y851798D01*
X836295Y851790D01*
X840105Y851790D01*
X840170Y851801D01*
G37*
G36*
X322010Y851801D02*
X322010Y851801D01*
X322076Y851803D01*
X322119Y851821D01*
X322166Y851829D01*
X322223Y851863D01*
X322283Y851888D01*
X322318Y851919D01*
X322359Y851944D01*
X322401Y851995D01*
X322449Y852039D01*
X322471Y852081D01*
X322500Y852118D01*
X322521Y852180D01*
X322552Y852239D01*
X322560Y852293D01*
X322572Y852330D01*
X322571Y852370D01*
X322579Y852424D01*
X322579Y854964D01*
X322568Y855029D01*
X322566Y855095D01*
X322548Y855138D01*
X322540Y855185D01*
X322506Y855242D01*
X322481Y855302D01*
X322450Y855337D01*
X322425Y855378D01*
X322374Y855420D01*
X322330Y855468D01*
X322288Y855490D01*
X322251Y855519D01*
X322189Y855540D01*
X322130Y855571D01*
X322076Y855579D01*
X322039Y855591D01*
X321999Y855590D01*
X321945Y855598D01*
X318135Y855598D01*
X318070Y855587D01*
X318004Y855585D01*
X317961Y855567D01*
X317914Y855559D01*
X317857Y855525D01*
X317797Y855500D01*
X317762Y855469D01*
X317721Y855444D01*
X317680Y855393D01*
X317631Y855349D01*
X317609Y855307D01*
X317580Y855270D01*
X317559Y855208D01*
X317528Y855149D01*
X317520Y855095D01*
X317508Y855058D01*
X317508Y855055D01*
X317509Y855018D01*
X317501Y854964D01*
X317501Y852424D01*
X317512Y852359D01*
X317514Y852293D01*
X317532Y852250D01*
X317540Y852203D01*
X317574Y852146D01*
X317599Y852086D01*
X317630Y852051D01*
X317655Y852010D01*
X317706Y851969D01*
X317750Y851920D01*
X317792Y851898D01*
X317829Y851869D01*
X317891Y851848D01*
X317950Y851817D01*
X318004Y851809D01*
X318041Y851797D01*
X318081Y851798D01*
X318135Y851790D01*
X321945Y851790D01*
X322010Y851801D01*
G37*
G36*
X581090Y851801D02*
X581090Y851801D01*
X581156Y851803D01*
X581199Y851821D01*
X581246Y851829D01*
X581303Y851863D01*
X581363Y851888D01*
X581398Y851919D01*
X581439Y851944D01*
X581481Y851995D01*
X581529Y852039D01*
X581551Y852081D01*
X581580Y852118D01*
X581601Y852180D01*
X581632Y852239D01*
X581640Y852293D01*
X581652Y852330D01*
X581651Y852370D01*
X581659Y852424D01*
X581659Y854964D01*
X581648Y855029D01*
X581646Y855095D01*
X581628Y855138D01*
X581620Y855185D01*
X581586Y855242D01*
X581561Y855302D01*
X581530Y855337D01*
X581505Y855378D01*
X581454Y855420D01*
X581410Y855468D01*
X581368Y855490D01*
X581331Y855519D01*
X581269Y855540D01*
X581210Y855571D01*
X581156Y855579D01*
X581119Y855591D01*
X581079Y855590D01*
X581025Y855598D01*
X577215Y855598D01*
X577150Y855587D01*
X577084Y855585D01*
X577041Y855567D01*
X576994Y855559D01*
X576937Y855525D01*
X576877Y855500D01*
X576842Y855469D01*
X576801Y855444D01*
X576760Y855393D01*
X576711Y855349D01*
X576689Y855307D01*
X576660Y855270D01*
X576639Y855208D01*
X576608Y855149D01*
X576600Y855095D01*
X576588Y855058D01*
X576588Y855055D01*
X576589Y855018D01*
X576581Y854964D01*
X576581Y852424D01*
X576592Y852359D01*
X576594Y852293D01*
X576612Y852250D01*
X576620Y852203D01*
X576654Y852146D01*
X576679Y852086D01*
X576710Y852051D01*
X576735Y852010D01*
X576786Y851969D01*
X576830Y851920D01*
X576872Y851898D01*
X576909Y851869D01*
X576971Y851848D01*
X577030Y851817D01*
X577084Y851809D01*
X577121Y851797D01*
X577161Y851798D01*
X577215Y851790D01*
X581025Y851790D01*
X581090Y851801D01*
G37*
G36*
X62930Y851801D02*
X62930Y851801D01*
X62996Y851803D01*
X63039Y851821D01*
X63086Y851829D01*
X63143Y851863D01*
X63203Y851888D01*
X63238Y851919D01*
X63279Y851944D01*
X63321Y851995D01*
X63369Y852039D01*
X63391Y852081D01*
X63420Y852118D01*
X63441Y852180D01*
X63472Y852239D01*
X63480Y852293D01*
X63492Y852330D01*
X63491Y852370D01*
X63499Y852424D01*
X63499Y854964D01*
X63488Y855029D01*
X63486Y855095D01*
X63468Y855138D01*
X63460Y855185D01*
X63426Y855242D01*
X63401Y855302D01*
X63370Y855337D01*
X63345Y855378D01*
X63294Y855420D01*
X63250Y855468D01*
X63208Y855490D01*
X63171Y855519D01*
X63109Y855540D01*
X63050Y855571D01*
X62996Y855579D01*
X62959Y855591D01*
X62919Y855590D01*
X62865Y855598D01*
X59055Y855598D01*
X58990Y855587D01*
X58924Y855585D01*
X58881Y855567D01*
X58834Y855559D01*
X58777Y855525D01*
X58717Y855500D01*
X58682Y855469D01*
X58641Y855444D01*
X58600Y855393D01*
X58551Y855349D01*
X58529Y855307D01*
X58500Y855270D01*
X58479Y855208D01*
X58448Y855149D01*
X58440Y855095D01*
X58428Y855058D01*
X58428Y855055D01*
X58429Y855018D01*
X58421Y854964D01*
X58421Y852424D01*
X58432Y852359D01*
X58434Y852293D01*
X58452Y852250D01*
X58460Y852203D01*
X58494Y852146D01*
X58519Y852086D01*
X58550Y852051D01*
X58575Y852010D01*
X58626Y851969D01*
X58670Y851920D01*
X58712Y851898D01*
X58749Y851869D01*
X58811Y851848D01*
X58870Y851817D01*
X58924Y851809D01*
X58961Y851797D01*
X59001Y851798D01*
X59055Y851790D01*
X62865Y851790D01*
X62930Y851801D01*
G37*
G36*
X224982Y839101D02*
X224982Y839101D01*
X225048Y839103D01*
X225091Y839121D01*
X225138Y839129D01*
X225195Y839163D01*
X225255Y839188D01*
X225290Y839219D01*
X225331Y839244D01*
X225373Y839295D01*
X225421Y839339D01*
X225443Y839381D01*
X225472Y839418D01*
X225493Y839480D01*
X225524Y839539D01*
X225532Y839593D01*
X225544Y839630D01*
X225543Y839670D01*
X225551Y839724D01*
X225551Y842264D01*
X225540Y842329D01*
X225538Y842395D01*
X225520Y842438D01*
X225512Y842485D01*
X225478Y842542D01*
X225453Y842602D01*
X225422Y842637D01*
X225397Y842678D01*
X225346Y842720D01*
X225302Y842768D01*
X225260Y842790D01*
X225223Y842819D01*
X225161Y842840D01*
X225102Y842871D01*
X225048Y842879D01*
X225011Y842891D01*
X224971Y842890D01*
X224917Y842898D01*
X221107Y842898D01*
X221042Y842887D01*
X220976Y842885D01*
X220933Y842867D01*
X220886Y842859D01*
X220829Y842825D01*
X220769Y842800D01*
X220734Y842769D01*
X220693Y842744D01*
X220652Y842693D01*
X220603Y842649D01*
X220581Y842607D01*
X220552Y842570D01*
X220531Y842508D01*
X220500Y842449D01*
X220492Y842395D01*
X220480Y842358D01*
X220480Y842355D01*
X220481Y842318D01*
X220473Y842264D01*
X220473Y839724D01*
X220484Y839659D01*
X220486Y839593D01*
X220504Y839550D01*
X220512Y839503D01*
X220546Y839446D01*
X220571Y839386D01*
X220602Y839351D01*
X220627Y839310D01*
X220678Y839269D01*
X220722Y839220D01*
X220764Y839198D01*
X220801Y839169D01*
X220863Y839148D01*
X220922Y839117D01*
X220976Y839109D01*
X221013Y839097D01*
X221053Y839098D01*
X221107Y839090D01*
X224917Y839090D01*
X224982Y839101D01*
G37*
G36*
X1002222Y839101D02*
X1002222Y839101D01*
X1002288Y839103D01*
X1002331Y839121D01*
X1002378Y839129D01*
X1002435Y839163D01*
X1002495Y839188D01*
X1002530Y839219D01*
X1002571Y839244D01*
X1002613Y839295D01*
X1002661Y839339D01*
X1002683Y839381D01*
X1002712Y839418D01*
X1002733Y839480D01*
X1002764Y839539D01*
X1002772Y839593D01*
X1002784Y839630D01*
X1002783Y839670D01*
X1002791Y839724D01*
X1002791Y842264D01*
X1002780Y842329D01*
X1002778Y842395D01*
X1002760Y842438D01*
X1002752Y842485D01*
X1002718Y842542D01*
X1002693Y842602D01*
X1002662Y842637D01*
X1002637Y842678D01*
X1002586Y842720D01*
X1002542Y842768D01*
X1002500Y842790D01*
X1002463Y842819D01*
X1002401Y842840D01*
X1002342Y842871D01*
X1002288Y842879D01*
X1002251Y842891D01*
X1002211Y842890D01*
X1002157Y842898D01*
X998347Y842898D01*
X998282Y842887D01*
X998216Y842885D01*
X998173Y842867D01*
X998126Y842859D01*
X998069Y842825D01*
X998009Y842800D01*
X997974Y842769D01*
X997933Y842744D01*
X997892Y842693D01*
X997843Y842649D01*
X997821Y842607D01*
X997792Y842570D01*
X997771Y842508D01*
X997740Y842449D01*
X997732Y842395D01*
X997720Y842358D01*
X997720Y842355D01*
X997721Y842318D01*
X997713Y842264D01*
X997713Y839724D01*
X997724Y839659D01*
X997726Y839593D01*
X997744Y839550D01*
X997752Y839503D01*
X997786Y839446D01*
X997811Y839386D01*
X997842Y839351D01*
X997867Y839310D01*
X997918Y839269D01*
X997962Y839220D01*
X998004Y839198D01*
X998041Y839169D01*
X998103Y839148D01*
X998162Y839117D01*
X998216Y839109D01*
X998253Y839097D01*
X998293Y839098D01*
X998347Y839090D01*
X1002157Y839090D01*
X1002222Y839101D01*
G37*
G36*
X484062Y839101D02*
X484062Y839101D01*
X484128Y839103D01*
X484171Y839121D01*
X484218Y839129D01*
X484275Y839163D01*
X484335Y839188D01*
X484370Y839219D01*
X484411Y839244D01*
X484453Y839295D01*
X484501Y839339D01*
X484523Y839381D01*
X484552Y839418D01*
X484573Y839480D01*
X484604Y839539D01*
X484612Y839593D01*
X484624Y839630D01*
X484623Y839670D01*
X484631Y839724D01*
X484631Y842264D01*
X484620Y842329D01*
X484618Y842395D01*
X484600Y842438D01*
X484592Y842485D01*
X484558Y842542D01*
X484533Y842602D01*
X484502Y842637D01*
X484477Y842678D01*
X484426Y842720D01*
X484382Y842768D01*
X484340Y842790D01*
X484303Y842819D01*
X484241Y842840D01*
X484182Y842871D01*
X484128Y842879D01*
X484091Y842891D01*
X484051Y842890D01*
X483997Y842898D01*
X480187Y842898D01*
X480122Y842887D01*
X480056Y842885D01*
X480013Y842867D01*
X479966Y842859D01*
X479909Y842825D01*
X479849Y842800D01*
X479814Y842769D01*
X479773Y842744D01*
X479732Y842693D01*
X479683Y842649D01*
X479661Y842607D01*
X479632Y842570D01*
X479611Y842508D01*
X479580Y842449D01*
X479572Y842395D01*
X479560Y842358D01*
X479560Y842355D01*
X479561Y842318D01*
X479553Y842264D01*
X479553Y839724D01*
X479564Y839659D01*
X479566Y839593D01*
X479584Y839550D01*
X479592Y839503D01*
X479626Y839446D01*
X479651Y839386D01*
X479682Y839351D01*
X479707Y839310D01*
X479758Y839269D01*
X479802Y839220D01*
X479844Y839198D01*
X479881Y839169D01*
X479943Y839148D01*
X480002Y839117D01*
X480056Y839109D01*
X480093Y839097D01*
X480133Y839098D01*
X480187Y839090D01*
X483997Y839090D01*
X484062Y839101D01*
G37*
G36*
X743142Y839101D02*
X743142Y839101D01*
X743208Y839103D01*
X743251Y839121D01*
X743298Y839129D01*
X743355Y839163D01*
X743415Y839188D01*
X743450Y839219D01*
X743491Y839244D01*
X743533Y839295D01*
X743581Y839339D01*
X743603Y839381D01*
X743632Y839418D01*
X743653Y839480D01*
X743684Y839539D01*
X743692Y839593D01*
X743704Y839630D01*
X743703Y839670D01*
X743711Y839724D01*
X743711Y842264D01*
X743700Y842329D01*
X743698Y842395D01*
X743680Y842438D01*
X743672Y842485D01*
X743638Y842542D01*
X743613Y842602D01*
X743582Y842637D01*
X743557Y842678D01*
X743506Y842720D01*
X743462Y842768D01*
X743420Y842790D01*
X743383Y842819D01*
X743321Y842840D01*
X743262Y842871D01*
X743208Y842879D01*
X743171Y842891D01*
X743131Y842890D01*
X743077Y842898D01*
X739267Y842898D01*
X739202Y842887D01*
X739136Y842885D01*
X739093Y842867D01*
X739046Y842859D01*
X738989Y842825D01*
X738929Y842800D01*
X738894Y842769D01*
X738853Y842744D01*
X738812Y842693D01*
X738763Y842649D01*
X738741Y842607D01*
X738712Y842570D01*
X738691Y842508D01*
X738660Y842449D01*
X738652Y842395D01*
X738640Y842358D01*
X738640Y842355D01*
X738641Y842318D01*
X738633Y842264D01*
X738633Y839724D01*
X738644Y839659D01*
X738646Y839593D01*
X738664Y839550D01*
X738672Y839503D01*
X738706Y839446D01*
X738731Y839386D01*
X738762Y839351D01*
X738787Y839310D01*
X738838Y839269D01*
X738882Y839220D01*
X738924Y839198D01*
X738961Y839169D01*
X739023Y839148D01*
X739082Y839117D01*
X739136Y839109D01*
X739173Y839097D01*
X739213Y839098D01*
X739267Y839090D01*
X743077Y839090D01*
X743142Y839101D01*
G37*
G36*
X285942Y691273D02*
X285942Y691273D01*
X286008Y691275D01*
X286051Y691293D01*
X286098Y691301D01*
X286155Y691335D01*
X286215Y691360D01*
X286250Y691391D01*
X286291Y691416D01*
X286333Y691467D01*
X286381Y691511D01*
X286403Y691553D01*
X286432Y691590D01*
X286453Y691652D01*
X286484Y691711D01*
X286492Y691765D01*
X286504Y691802D01*
X286503Y691842D01*
X286511Y691896D01*
X286511Y694436D01*
X286500Y694501D01*
X286498Y694567D01*
X286480Y694610D01*
X286472Y694657D01*
X286438Y694714D01*
X286413Y694774D01*
X286382Y694809D01*
X286357Y694850D01*
X286306Y694892D01*
X286262Y694940D01*
X286220Y694962D01*
X286183Y694991D01*
X286121Y695012D01*
X286062Y695043D01*
X286008Y695051D01*
X285971Y695063D01*
X285931Y695062D01*
X285877Y695070D01*
X282067Y695070D01*
X282002Y695059D01*
X281936Y695057D01*
X281893Y695039D01*
X281846Y695031D01*
X281789Y694997D01*
X281729Y694972D01*
X281694Y694941D01*
X281653Y694916D01*
X281612Y694865D01*
X281563Y694821D01*
X281541Y694779D01*
X281512Y694742D01*
X281491Y694680D01*
X281460Y694621D01*
X281452Y694567D01*
X281440Y694530D01*
X281440Y694527D01*
X281441Y694490D01*
X281433Y694436D01*
X281433Y691896D01*
X281444Y691831D01*
X281446Y691765D01*
X281464Y691722D01*
X281472Y691675D01*
X281506Y691618D01*
X281531Y691558D01*
X281562Y691523D01*
X281587Y691482D01*
X281638Y691441D01*
X281682Y691392D01*
X281724Y691370D01*
X281761Y691341D01*
X281823Y691320D01*
X281882Y691289D01*
X281936Y691281D01*
X281973Y691269D01*
X282013Y691270D01*
X282067Y691262D01*
X285877Y691262D01*
X285942Y691273D01*
G37*
G36*
X296102Y691273D02*
X296102Y691273D01*
X296168Y691275D01*
X296211Y691293D01*
X296258Y691301D01*
X296315Y691335D01*
X296375Y691360D01*
X296410Y691391D01*
X296451Y691416D01*
X296493Y691467D01*
X296541Y691511D01*
X296563Y691553D01*
X296592Y691590D01*
X296613Y691652D01*
X296644Y691711D01*
X296652Y691765D01*
X296664Y691802D01*
X296663Y691842D01*
X296671Y691896D01*
X296671Y694436D01*
X296660Y694501D01*
X296658Y694567D01*
X296640Y694610D01*
X296632Y694657D01*
X296598Y694714D01*
X296573Y694774D01*
X296542Y694809D01*
X296517Y694850D01*
X296466Y694892D01*
X296422Y694940D01*
X296380Y694962D01*
X296343Y694991D01*
X296281Y695012D01*
X296222Y695043D01*
X296168Y695051D01*
X296131Y695063D01*
X296091Y695062D01*
X296037Y695070D01*
X292227Y695070D01*
X292162Y695059D01*
X292096Y695057D01*
X292053Y695039D01*
X292006Y695031D01*
X291949Y694997D01*
X291889Y694972D01*
X291854Y694941D01*
X291813Y694916D01*
X291772Y694865D01*
X291723Y694821D01*
X291701Y694779D01*
X291672Y694742D01*
X291651Y694680D01*
X291620Y694621D01*
X291612Y694567D01*
X291600Y694530D01*
X291600Y694527D01*
X291601Y694490D01*
X291593Y694436D01*
X291593Y691896D01*
X291604Y691831D01*
X291606Y691765D01*
X291624Y691722D01*
X291632Y691675D01*
X291666Y691618D01*
X291691Y691558D01*
X291722Y691523D01*
X291747Y691482D01*
X291798Y691441D01*
X291842Y691392D01*
X291884Y691370D01*
X291921Y691341D01*
X291983Y691320D01*
X292042Y691289D01*
X292096Y691281D01*
X292133Y691269D01*
X292173Y691270D01*
X292227Y691262D01*
X296037Y691262D01*
X296102Y691273D01*
G37*
G36*
X37022Y691273D02*
X37022Y691273D01*
X37088Y691275D01*
X37131Y691293D01*
X37178Y691301D01*
X37235Y691335D01*
X37295Y691360D01*
X37330Y691391D01*
X37371Y691416D01*
X37413Y691467D01*
X37461Y691511D01*
X37483Y691553D01*
X37512Y691590D01*
X37533Y691652D01*
X37564Y691711D01*
X37572Y691765D01*
X37584Y691802D01*
X37583Y691842D01*
X37591Y691896D01*
X37591Y694436D01*
X37580Y694501D01*
X37578Y694567D01*
X37560Y694610D01*
X37552Y694657D01*
X37518Y694714D01*
X37493Y694774D01*
X37462Y694809D01*
X37437Y694850D01*
X37386Y694892D01*
X37342Y694940D01*
X37300Y694962D01*
X37263Y694991D01*
X37201Y695012D01*
X37142Y695043D01*
X37088Y695051D01*
X37051Y695063D01*
X37011Y695062D01*
X36957Y695070D01*
X33147Y695070D01*
X33082Y695059D01*
X33016Y695057D01*
X32973Y695039D01*
X32926Y695031D01*
X32869Y694997D01*
X32809Y694972D01*
X32774Y694941D01*
X32733Y694916D01*
X32692Y694865D01*
X32643Y694821D01*
X32621Y694779D01*
X32592Y694742D01*
X32571Y694680D01*
X32540Y694621D01*
X32532Y694567D01*
X32520Y694530D01*
X32520Y694527D01*
X32521Y694490D01*
X32513Y694436D01*
X32513Y691896D01*
X32524Y691831D01*
X32526Y691765D01*
X32544Y691722D01*
X32552Y691675D01*
X32586Y691618D01*
X32611Y691558D01*
X32642Y691523D01*
X32667Y691482D01*
X32718Y691441D01*
X32762Y691392D01*
X32804Y691370D01*
X32841Y691341D01*
X32903Y691320D01*
X32962Y691289D01*
X33016Y691281D01*
X33053Y691269D01*
X33093Y691270D01*
X33147Y691262D01*
X36957Y691262D01*
X37022Y691273D01*
G37*
G36*
X26862Y691273D02*
X26862Y691273D01*
X26928Y691275D01*
X26971Y691293D01*
X27018Y691301D01*
X27075Y691335D01*
X27135Y691360D01*
X27170Y691391D01*
X27211Y691416D01*
X27253Y691467D01*
X27301Y691511D01*
X27323Y691553D01*
X27352Y691590D01*
X27373Y691652D01*
X27404Y691711D01*
X27412Y691765D01*
X27424Y691802D01*
X27423Y691842D01*
X27431Y691896D01*
X27431Y694436D01*
X27420Y694501D01*
X27418Y694567D01*
X27400Y694610D01*
X27392Y694657D01*
X27358Y694714D01*
X27333Y694774D01*
X27302Y694809D01*
X27277Y694850D01*
X27226Y694892D01*
X27182Y694940D01*
X27140Y694962D01*
X27103Y694991D01*
X27041Y695012D01*
X26982Y695043D01*
X26928Y695051D01*
X26891Y695063D01*
X26851Y695062D01*
X26797Y695070D01*
X22987Y695070D01*
X22922Y695059D01*
X22856Y695057D01*
X22813Y695039D01*
X22766Y695031D01*
X22709Y694997D01*
X22649Y694972D01*
X22614Y694941D01*
X22573Y694916D01*
X22532Y694865D01*
X22483Y694821D01*
X22461Y694779D01*
X22432Y694742D01*
X22411Y694680D01*
X22380Y694621D01*
X22372Y694567D01*
X22360Y694530D01*
X22360Y694527D01*
X22361Y694490D01*
X22353Y694436D01*
X22353Y691896D01*
X22364Y691831D01*
X22366Y691765D01*
X22384Y691722D01*
X22392Y691675D01*
X22426Y691618D01*
X22451Y691558D01*
X22482Y691523D01*
X22507Y691482D01*
X22558Y691441D01*
X22602Y691392D01*
X22644Y691370D01*
X22681Y691341D01*
X22743Y691320D01*
X22802Y691289D01*
X22856Y691281D01*
X22893Y691269D01*
X22933Y691270D01*
X22987Y691262D01*
X26797Y691262D01*
X26862Y691273D01*
G37*
G36*
X814262Y691273D02*
X814262Y691273D01*
X814328Y691275D01*
X814371Y691293D01*
X814418Y691301D01*
X814475Y691335D01*
X814535Y691360D01*
X814570Y691391D01*
X814611Y691416D01*
X814653Y691467D01*
X814701Y691511D01*
X814723Y691553D01*
X814752Y691590D01*
X814773Y691652D01*
X814804Y691711D01*
X814812Y691765D01*
X814824Y691802D01*
X814823Y691842D01*
X814831Y691896D01*
X814831Y694436D01*
X814820Y694501D01*
X814818Y694567D01*
X814800Y694610D01*
X814792Y694657D01*
X814758Y694714D01*
X814733Y694774D01*
X814702Y694809D01*
X814677Y694850D01*
X814626Y694892D01*
X814582Y694940D01*
X814540Y694962D01*
X814503Y694991D01*
X814441Y695012D01*
X814382Y695043D01*
X814328Y695051D01*
X814291Y695063D01*
X814251Y695062D01*
X814197Y695070D01*
X810387Y695070D01*
X810322Y695059D01*
X810256Y695057D01*
X810213Y695039D01*
X810166Y695031D01*
X810109Y694997D01*
X810049Y694972D01*
X810014Y694941D01*
X809973Y694916D01*
X809932Y694865D01*
X809883Y694821D01*
X809861Y694779D01*
X809832Y694742D01*
X809811Y694680D01*
X809780Y694621D01*
X809772Y694567D01*
X809760Y694530D01*
X809760Y694527D01*
X809761Y694490D01*
X809753Y694436D01*
X809753Y691896D01*
X809764Y691831D01*
X809766Y691765D01*
X809784Y691722D01*
X809792Y691675D01*
X809826Y691618D01*
X809851Y691558D01*
X809882Y691523D01*
X809907Y691482D01*
X809958Y691441D01*
X810002Y691392D01*
X810044Y691370D01*
X810081Y691341D01*
X810143Y691320D01*
X810202Y691289D01*
X810256Y691281D01*
X810293Y691269D01*
X810333Y691270D01*
X810387Y691262D01*
X814197Y691262D01*
X814262Y691273D01*
G37*
G36*
X545022Y691273D02*
X545022Y691273D01*
X545088Y691275D01*
X545131Y691293D01*
X545178Y691301D01*
X545235Y691335D01*
X545295Y691360D01*
X545330Y691391D01*
X545371Y691416D01*
X545413Y691467D01*
X545461Y691511D01*
X545483Y691553D01*
X545512Y691590D01*
X545533Y691652D01*
X545564Y691711D01*
X545572Y691765D01*
X545584Y691802D01*
X545583Y691842D01*
X545591Y691896D01*
X545591Y694436D01*
X545580Y694501D01*
X545578Y694567D01*
X545560Y694610D01*
X545552Y694657D01*
X545518Y694714D01*
X545493Y694774D01*
X545462Y694809D01*
X545437Y694850D01*
X545386Y694892D01*
X545342Y694940D01*
X545300Y694962D01*
X545263Y694991D01*
X545201Y695012D01*
X545142Y695043D01*
X545088Y695051D01*
X545051Y695063D01*
X545011Y695062D01*
X544957Y695070D01*
X541147Y695070D01*
X541082Y695059D01*
X541016Y695057D01*
X540973Y695039D01*
X540926Y695031D01*
X540869Y694997D01*
X540809Y694972D01*
X540774Y694941D01*
X540733Y694916D01*
X540692Y694865D01*
X540643Y694821D01*
X540621Y694779D01*
X540592Y694742D01*
X540571Y694680D01*
X540540Y694621D01*
X540532Y694567D01*
X540520Y694530D01*
X540520Y694527D01*
X540521Y694490D01*
X540513Y694436D01*
X540513Y691896D01*
X540524Y691831D01*
X540526Y691765D01*
X540544Y691722D01*
X540552Y691675D01*
X540586Y691618D01*
X540611Y691558D01*
X540642Y691523D01*
X540667Y691482D01*
X540718Y691441D01*
X540762Y691392D01*
X540804Y691370D01*
X540841Y691341D01*
X540903Y691320D01*
X540962Y691289D01*
X541016Y691281D01*
X541053Y691269D01*
X541093Y691270D01*
X541147Y691262D01*
X544957Y691262D01*
X545022Y691273D01*
G37*
G36*
X555182Y691273D02*
X555182Y691273D01*
X555248Y691275D01*
X555291Y691293D01*
X555338Y691301D01*
X555395Y691335D01*
X555455Y691360D01*
X555490Y691391D01*
X555531Y691416D01*
X555573Y691467D01*
X555621Y691511D01*
X555643Y691553D01*
X555672Y691590D01*
X555693Y691652D01*
X555724Y691711D01*
X555732Y691765D01*
X555744Y691802D01*
X555743Y691842D01*
X555751Y691896D01*
X555751Y694436D01*
X555740Y694501D01*
X555738Y694567D01*
X555720Y694610D01*
X555712Y694657D01*
X555678Y694714D01*
X555653Y694774D01*
X555622Y694809D01*
X555597Y694850D01*
X555546Y694892D01*
X555502Y694940D01*
X555460Y694962D01*
X555423Y694991D01*
X555361Y695012D01*
X555302Y695043D01*
X555248Y695051D01*
X555211Y695063D01*
X555171Y695062D01*
X555117Y695070D01*
X551307Y695070D01*
X551242Y695059D01*
X551176Y695057D01*
X551133Y695039D01*
X551086Y695031D01*
X551029Y694997D01*
X550969Y694972D01*
X550934Y694941D01*
X550893Y694916D01*
X550852Y694865D01*
X550803Y694821D01*
X550781Y694779D01*
X550752Y694742D01*
X550731Y694680D01*
X550700Y694621D01*
X550692Y694567D01*
X550680Y694530D01*
X550680Y694527D01*
X550681Y694490D01*
X550673Y694436D01*
X550673Y691896D01*
X550684Y691831D01*
X550686Y691765D01*
X550704Y691722D01*
X550712Y691675D01*
X550746Y691618D01*
X550771Y691558D01*
X550802Y691523D01*
X550827Y691482D01*
X550878Y691441D01*
X550922Y691392D01*
X550964Y691370D01*
X551001Y691341D01*
X551063Y691320D01*
X551122Y691289D01*
X551176Y691281D01*
X551213Y691269D01*
X551253Y691270D01*
X551307Y691262D01*
X555117Y691262D01*
X555182Y691273D01*
G37*
G36*
X804102Y691273D02*
X804102Y691273D01*
X804168Y691275D01*
X804211Y691293D01*
X804258Y691301D01*
X804315Y691335D01*
X804375Y691360D01*
X804410Y691391D01*
X804451Y691416D01*
X804493Y691467D01*
X804541Y691511D01*
X804563Y691553D01*
X804592Y691590D01*
X804613Y691652D01*
X804644Y691711D01*
X804652Y691765D01*
X804664Y691802D01*
X804663Y691842D01*
X804671Y691896D01*
X804671Y694436D01*
X804660Y694501D01*
X804658Y694567D01*
X804640Y694610D01*
X804632Y694657D01*
X804598Y694714D01*
X804573Y694774D01*
X804542Y694809D01*
X804517Y694850D01*
X804466Y694892D01*
X804422Y694940D01*
X804380Y694962D01*
X804343Y694991D01*
X804281Y695012D01*
X804222Y695043D01*
X804168Y695051D01*
X804131Y695063D01*
X804091Y695062D01*
X804037Y695070D01*
X800227Y695070D01*
X800162Y695059D01*
X800096Y695057D01*
X800053Y695039D01*
X800006Y695031D01*
X799949Y694997D01*
X799889Y694972D01*
X799854Y694941D01*
X799813Y694916D01*
X799772Y694865D01*
X799723Y694821D01*
X799701Y694779D01*
X799672Y694742D01*
X799651Y694680D01*
X799620Y694621D01*
X799612Y694567D01*
X799600Y694530D01*
X799600Y694527D01*
X799601Y694490D01*
X799593Y694436D01*
X799593Y691896D01*
X799604Y691831D01*
X799606Y691765D01*
X799624Y691722D01*
X799632Y691675D01*
X799666Y691618D01*
X799691Y691558D01*
X799722Y691523D01*
X799747Y691482D01*
X799798Y691441D01*
X799842Y691392D01*
X799884Y691370D01*
X799921Y691341D01*
X799983Y691320D01*
X800042Y691289D01*
X800096Y691281D01*
X800133Y691269D01*
X800173Y691270D01*
X800227Y691262D01*
X804037Y691262D01*
X804102Y691273D01*
G37*
G36*
X62930Y592721D02*
X62930Y592721D01*
X62996Y592723D01*
X63039Y592741D01*
X63086Y592749D01*
X63143Y592783D01*
X63203Y592808D01*
X63238Y592839D01*
X63279Y592864D01*
X63321Y592915D01*
X63369Y592959D01*
X63391Y593001D01*
X63420Y593038D01*
X63441Y593100D01*
X63472Y593159D01*
X63480Y593213D01*
X63492Y593250D01*
X63491Y593290D01*
X63499Y593344D01*
X63499Y595884D01*
X63488Y595949D01*
X63486Y596015D01*
X63468Y596058D01*
X63460Y596105D01*
X63426Y596162D01*
X63401Y596222D01*
X63370Y596257D01*
X63345Y596298D01*
X63294Y596340D01*
X63250Y596388D01*
X63208Y596410D01*
X63171Y596439D01*
X63109Y596460D01*
X63050Y596491D01*
X62996Y596499D01*
X62959Y596511D01*
X62919Y596510D01*
X62865Y596518D01*
X59055Y596518D01*
X58990Y596507D01*
X58924Y596505D01*
X58881Y596487D01*
X58834Y596479D01*
X58777Y596445D01*
X58717Y596420D01*
X58682Y596389D01*
X58641Y596364D01*
X58600Y596313D01*
X58551Y596269D01*
X58529Y596227D01*
X58500Y596190D01*
X58479Y596128D01*
X58448Y596069D01*
X58440Y596015D01*
X58428Y595978D01*
X58428Y595975D01*
X58429Y595938D01*
X58421Y595884D01*
X58421Y593344D01*
X58432Y593279D01*
X58434Y593213D01*
X58452Y593170D01*
X58460Y593123D01*
X58494Y593066D01*
X58519Y593006D01*
X58550Y592971D01*
X58575Y592930D01*
X58626Y592889D01*
X58670Y592840D01*
X58712Y592818D01*
X58749Y592789D01*
X58811Y592768D01*
X58870Y592737D01*
X58924Y592729D01*
X58961Y592717D01*
X59001Y592718D01*
X59055Y592710D01*
X62865Y592710D01*
X62930Y592721D01*
G37*
G36*
X581090Y592721D02*
X581090Y592721D01*
X581156Y592723D01*
X581199Y592741D01*
X581246Y592749D01*
X581303Y592783D01*
X581363Y592808D01*
X581398Y592839D01*
X581439Y592864D01*
X581481Y592915D01*
X581529Y592959D01*
X581551Y593001D01*
X581580Y593038D01*
X581601Y593100D01*
X581632Y593159D01*
X581640Y593213D01*
X581652Y593250D01*
X581651Y593290D01*
X581659Y593344D01*
X581659Y595884D01*
X581648Y595949D01*
X581646Y596015D01*
X581628Y596058D01*
X581620Y596105D01*
X581586Y596162D01*
X581561Y596222D01*
X581530Y596257D01*
X581505Y596298D01*
X581454Y596340D01*
X581410Y596388D01*
X581368Y596410D01*
X581331Y596439D01*
X581269Y596460D01*
X581210Y596491D01*
X581156Y596499D01*
X581119Y596511D01*
X581079Y596510D01*
X581025Y596518D01*
X577215Y596518D01*
X577150Y596507D01*
X577084Y596505D01*
X577041Y596487D01*
X576994Y596479D01*
X576937Y596445D01*
X576877Y596420D01*
X576842Y596389D01*
X576801Y596364D01*
X576760Y596313D01*
X576711Y596269D01*
X576689Y596227D01*
X576660Y596190D01*
X576639Y596128D01*
X576608Y596069D01*
X576600Y596015D01*
X576588Y595978D01*
X576588Y595975D01*
X576589Y595938D01*
X576581Y595884D01*
X576581Y593344D01*
X576592Y593279D01*
X576594Y593213D01*
X576612Y593170D01*
X576620Y593123D01*
X576654Y593066D01*
X576679Y593006D01*
X576710Y592971D01*
X576735Y592930D01*
X576786Y592889D01*
X576830Y592840D01*
X576872Y592818D01*
X576909Y592789D01*
X576971Y592768D01*
X577030Y592737D01*
X577084Y592729D01*
X577121Y592717D01*
X577161Y592718D01*
X577215Y592710D01*
X581025Y592710D01*
X581090Y592721D01*
G37*
G36*
X840170Y592721D02*
X840170Y592721D01*
X840236Y592723D01*
X840279Y592741D01*
X840326Y592749D01*
X840383Y592783D01*
X840443Y592808D01*
X840478Y592839D01*
X840519Y592864D01*
X840561Y592915D01*
X840609Y592959D01*
X840631Y593001D01*
X840660Y593038D01*
X840681Y593100D01*
X840712Y593159D01*
X840720Y593213D01*
X840732Y593250D01*
X840731Y593290D01*
X840739Y593344D01*
X840739Y595884D01*
X840728Y595949D01*
X840726Y596015D01*
X840708Y596058D01*
X840700Y596105D01*
X840666Y596162D01*
X840641Y596222D01*
X840610Y596257D01*
X840585Y596298D01*
X840534Y596340D01*
X840490Y596388D01*
X840448Y596410D01*
X840411Y596439D01*
X840349Y596460D01*
X840290Y596491D01*
X840236Y596499D01*
X840199Y596511D01*
X840159Y596510D01*
X840105Y596518D01*
X836295Y596518D01*
X836230Y596507D01*
X836164Y596505D01*
X836121Y596487D01*
X836074Y596479D01*
X836017Y596445D01*
X835957Y596420D01*
X835922Y596389D01*
X835881Y596364D01*
X835840Y596313D01*
X835791Y596269D01*
X835769Y596227D01*
X835740Y596190D01*
X835719Y596128D01*
X835688Y596069D01*
X835680Y596015D01*
X835668Y595978D01*
X835668Y595975D01*
X835669Y595938D01*
X835661Y595884D01*
X835661Y593344D01*
X835672Y593279D01*
X835674Y593213D01*
X835692Y593170D01*
X835700Y593123D01*
X835734Y593066D01*
X835759Y593006D01*
X835790Y592971D01*
X835815Y592930D01*
X835866Y592889D01*
X835910Y592840D01*
X835952Y592818D01*
X835989Y592789D01*
X836051Y592768D01*
X836110Y592737D01*
X836164Y592729D01*
X836201Y592717D01*
X836241Y592718D01*
X836295Y592710D01*
X840105Y592710D01*
X840170Y592721D01*
G37*
G36*
X322010Y592721D02*
X322010Y592721D01*
X322076Y592723D01*
X322119Y592741D01*
X322166Y592749D01*
X322223Y592783D01*
X322283Y592808D01*
X322318Y592839D01*
X322359Y592864D01*
X322401Y592915D01*
X322449Y592959D01*
X322471Y593001D01*
X322500Y593038D01*
X322521Y593100D01*
X322552Y593159D01*
X322560Y593213D01*
X322572Y593250D01*
X322571Y593290D01*
X322579Y593344D01*
X322579Y595884D01*
X322568Y595949D01*
X322566Y596015D01*
X322548Y596058D01*
X322540Y596105D01*
X322506Y596162D01*
X322481Y596222D01*
X322450Y596257D01*
X322425Y596298D01*
X322374Y596340D01*
X322330Y596388D01*
X322288Y596410D01*
X322251Y596439D01*
X322189Y596460D01*
X322130Y596491D01*
X322076Y596499D01*
X322039Y596511D01*
X321999Y596510D01*
X321945Y596518D01*
X318135Y596518D01*
X318070Y596507D01*
X318004Y596505D01*
X317961Y596487D01*
X317914Y596479D01*
X317857Y596445D01*
X317797Y596420D01*
X317762Y596389D01*
X317721Y596364D01*
X317680Y596313D01*
X317631Y596269D01*
X317609Y596227D01*
X317580Y596190D01*
X317559Y596128D01*
X317528Y596069D01*
X317520Y596015D01*
X317508Y595978D01*
X317508Y595975D01*
X317509Y595938D01*
X317501Y595884D01*
X317501Y593344D01*
X317512Y593279D01*
X317514Y593213D01*
X317532Y593170D01*
X317540Y593123D01*
X317574Y593066D01*
X317599Y593006D01*
X317630Y592971D01*
X317655Y592930D01*
X317706Y592889D01*
X317750Y592840D01*
X317792Y592818D01*
X317829Y592789D01*
X317891Y592768D01*
X317950Y592737D01*
X318004Y592729D01*
X318041Y592717D01*
X318081Y592718D01*
X318135Y592710D01*
X321945Y592710D01*
X322010Y592721D01*
G37*
G36*
X484062Y580021D02*
X484062Y580021D01*
X484128Y580023D01*
X484171Y580041D01*
X484218Y580049D01*
X484275Y580083D01*
X484335Y580108D01*
X484370Y580139D01*
X484411Y580164D01*
X484453Y580215D01*
X484501Y580259D01*
X484523Y580301D01*
X484552Y580338D01*
X484573Y580400D01*
X484604Y580459D01*
X484612Y580513D01*
X484624Y580550D01*
X484623Y580590D01*
X484631Y580644D01*
X484631Y583184D01*
X484620Y583249D01*
X484618Y583315D01*
X484600Y583358D01*
X484592Y583405D01*
X484558Y583462D01*
X484533Y583522D01*
X484502Y583557D01*
X484477Y583598D01*
X484426Y583640D01*
X484382Y583688D01*
X484340Y583710D01*
X484303Y583739D01*
X484241Y583760D01*
X484182Y583791D01*
X484128Y583799D01*
X484091Y583811D01*
X484051Y583810D01*
X483997Y583818D01*
X480187Y583818D01*
X480122Y583807D01*
X480056Y583805D01*
X480013Y583787D01*
X479966Y583779D01*
X479909Y583745D01*
X479849Y583720D01*
X479814Y583689D01*
X479773Y583664D01*
X479732Y583613D01*
X479683Y583569D01*
X479661Y583527D01*
X479632Y583490D01*
X479611Y583428D01*
X479580Y583369D01*
X479572Y583315D01*
X479560Y583278D01*
X479560Y583275D01*
X479561Y583238D01*
X479553Y583184D01*
X479553Y580644D01*
X479564Y580579D01*
X479566Y580513D01*
X479584Y580470D01*
X479592Y580423D01*
X479626Y580366D01*
X479651Y580306D01*
X479682Y580271D01*
X479707Y580230D01*
X479758Y580189D01*
X479802Y580140D01*
X479844Y580118D01*
X479881Y580089D01*
X479943Y580068D01*
X480002Y580037D01*
X480056Y580029D01*
X480093Y580017D01*
X480133Y580018D01*
X480187Y580010D01*
X483997Y580010D01*
X484062Y580021D01*
G37*
G36*
X1002222Y580021D02*
X1002222Y580021D01*
X1002288Y580023D01*
X1002331Y580041D01*
X1002378Y580049D01*
X1002435Y580083D01*
X1002495Y580108D01*
X1002530Y580139D01*
X1002571Y580164D01*
X1002613Y580215D01*
X1002661Y580259D01*
X1002683Y580301D01*
X1002712Y580338D01*
X1002733Y580400D01*
X1002764Y580459D01*
X1002772Y580513D01*
X1002784Y580550D01*
X1002783Y580590D01*
X1002791Y580644D01*
X1002791Y583184D01*
X1002780Y583249D01*
X1002778Y583315D01*
X1002760Y583358D01*
X1002752Y583405D01*
X1002718Y583462D01*
X1002693Y583522D01*
X1002662Y583557D01*
X1002637Y583598D01*
X1002586Y583640D01*
X1002542Y583688D01*
X1002500Y583710D01*
X1002463Y583739D01*
X1002401Y583760D01*
X1002342Y583791D01*
X1002288Y583799D01*
X1002251Y583811D01*
X1002211Y583810D01*
X1002157Y583818D01*
X998347Y583818D01*
X998282Y583807D01*
X998216Y583805D01*
X998173Y583787D01*
X998126Y583779D01*
X998069Y583745D01*
X998009Y583720D01*
X997974Y583689D01*
X997933Y583664D01*
X997892Y583613D01*
X997843Y583569D01*
X997821Y583527D01*
X997792Y583490D01*
X997771Y583428D01*
X997740Y583369D01*
X997732Y583315D01*
X997720Y583278D01*
X997720Y583275D01*
X997721Y583238D01*
X997713Y583184D01*
X997713Y580644D01*
X997724Y580579D01*
X997726Y580513D01*
X997744Y580470D01*
X997752Y580423D01*
X997786Y580366D01*
X997811Y580306D01*
X997842Y580271D01*
X997867Y580230D01*
X997918Y580189D01*
X997962Y580140D01*
X998004Y580118D01*
X998041Y580089D01*
X998103Y580068D01*
X998162Y580037D01*
X998216Y580029D01*
X998253Y580017D01*
X998293Y580018D01*
X998347Y580010D01*
X1002157Y580010D01*
X1002222Y580021D01*
G37*
G36*
X224982Y580021D02*
X224982Y580021D01*
X225048Y580023D01*
X225091Y580041D01*
X225138Y580049D01*
X225195Y580083D01*
X225255Y580108D01*
X225290Y580139D01*
X225331Y580164D01*
X225373Y580215D01*
X225421Y580259D01*
X225443Y580301D01*
X225472Y580338D01*
X225493Y580400D01*
X225524Y580459D01*
X225532Y580513D01*
X225544Y580550D01*
X225543Y580590D01*
X225551Y580644D01*
X225551Y583184D01*
X225540Y583249D01*
X225538Y583315D01*
X225520Y583358D01*
X225512Y583405D01*
X225478Y583462D01*
X225453Y583522D01*
X225422Y583557D01*
X225397Y583598D01*
X225346Y583640D01*
X225302Y583688D01*
X225260Y583710D01*
X225223Y583739D01*
X225161Y583760D01*
X225102Y583791D01*
X225048Y583799D01*
X225011Y583811D01*
X224971Y583810D01*
X224917Y583818D01*
X221107Y583818D01*
X221042Y583807D01*
X220976Y583805D01*
X220933Y583787D01*
X220886Y583779D01*
X220829Y583745D01*
X220769Y583720D01*
X220734Y583689D01*
X220693Y583664D01*
X220652Y583613D01*
X220603Y583569D01*
X220581Y583527D01*
X220552Y583490D01*
X220531Y583428D01*
X220500Y583369D01*
X220492Y583315D01*
X220480Y583278D01*
X220480Y583275D01*
X220481Y583238D01*
X220473Y583184D01*
X220473Y580644D01*
X220484Y580579D01*
X220486Y580513D01*
X220504Y580470D01*
X220512Y580423D01*
X220546Y580366D01*
X220571Y580306D01*
X220602Y580271D01*
X220627Y580230D01*
X220678Y580189D01*
X220722Y580140D01*
X220764Y580118D01*
X220801Y580089D01*
X220863Y580068D01*
X220922Y580037D01*
X220976Y580029D01*
X221013Y580017D01*
X221053Y580018D01*
X221107Y580010D01*
X224917Y580010D01*
X224982Y580021D01*
G37*
G36*
X743142Y580021D02*
X743142Y580021D01*
X743208Y580023D01*
X743251Y580041D01*
X743298Y580049D01*
X743355Y580083D01*
X743415Y580108D01*
X743450Y580139D01*
X743491Y580164D01*
X743533Y580215D01*
X743581Y580259D01*
X743603Y580301D01*
X743632Y580338D01*
X743653Y580400D01*
X743684Y580459D01*
X743692Y580513D01*
X743704Y580550D01*
X743703Y580590D01*
X743711Y580644D01*
X743711Y583184D01*
X743700Y583249D01*
X743698Y583315D01*
X743680Y583358D01*
X743672Y583405D01*
X743638Y583462D01*
X743613Y583522D01*
X743582Y583557D01*
X743557Y583598D01*
X743506Y583640D01*
X743462Y583688D01*
X743420Y583710D01*
X743383Y583739D01*
X743321Y583760D01*
X743262Y583791D01*
X743208Y583799D01*
X743171Y583811D01*
X743131Y583810D01*
X743077Y583818D01*
X739267Y583818D01*
X739202Y583807D01*
X739136Y583805D01*
X739093Y583787D01*
X739046Y583779D01*
X738989Y583745D01*
X738929Y583720D01*
X738894Y583689D01*
X738853Y583664D01*
X738812Y583613D01*
X738763Y583569D01*
X738741Y583527D01*
X738712Y583490D01*
X738691Y583428D01*
X738660Y583369D01*
X738652Y583315D01*
X738640Y583278D01*
X738640Y583275D01*
X738641Y583238D01*
X738633Y583184D01*
X738633Y580644D01*
X738644Y580579D01*
X738646Y580513D01*
X738664Y580470D01*
X738672Y580423D01*
X738706Y580366D01*
X738731Y580306D01*
X738762Y580271D01*
X738787Y580230D01*
X738838Y580189D01*
X738882Y580140D01*
X738924Y580118D01*
X738961Y580089D01*
X739023Y580068D01*
X739082Y580037D01*
X739136Y580029D01*
X739173Y580017D01*
X739213Y580018D01*
X739267Y580010D01*
X743077Y580010D01*
X743142Y580021D01*
G37*
G36*
X804102Y432193D02*
X804102Y432193D01*
X804168Y432195D01*
X804211Y432213D01*
X804258Y432221D01*
X804315Y432255D01*
X804375Y432280D01*
X804410Y432311D01*
X804451Y432336D01*
X804493Y432387D01*
X804541Y432431D01*
X804563Y432473D01*
X804592Y432510D01*
X804613Y432572D01*
X804644Y432631D01*
X804652Y432685D01*
X804664Y432722D01*
X804663Y432762D01*
X804671Y432816D01*
X804671Y435356D01*
X804660Y435421D01*
X804658Y435487D01*
X804640Y435530D01*
X804632Y435577D01*
X804598Y435634D01*
X804573Y435694D01*
X804542Y435729D01*
X804517Y435770D01*
X804466Y435812D01*
X804422Y435860D01*
X804380Y435882D01*
X804343Y435911D01*
X804281Y435932D01*
X804222Y435963D01*
X804168Y435971D01*
X804131Y435983D01*
X804091Y435982D01*
X804037Y435990D01*
X800227Y435990D01*
X800162Y435979D01*
X800096Y435977D01*
X800053Y435959D01*
X800006Y435951D01*
X799949Y435917D01*
X799889Y435892D01*
X799854Y435861D01*
X799813Y435836D01*
X799772Y435785D01*
X799723Y435741D01*
X799701Y435699D01*
X799672Y435662D01*
X799651Y435600D01*
X799620Y435541D01*
X799612Y435487D01*
X799600Y435450D01*
X799600Y435447D01*
X799601Y435410D01*
X799593Y435356D01*
X799593Y432816D01*
X799604Y432751D01*
X799606Y432685D01*
X799624Y432642D01*
X799632Y432595D01*
X799666Y432538D01*
X799691Y432478D01*
X799722Y432443D01*
X799747Y432402D01*
X799798Y432361D01*
X799842Y432312D01*
X799884Y432290D01*
X799921Y432261D01*
X799983Y432240D01*
X800042Y432209D01*
X800096Y432201D01*
X800133Y432189D01*
X800173Y432190D01*
X800227Y432182D01*
X804037Y432182D01*
X804102Y432193D01*
G37*
G36*
X37022Y432193D02*
X37022Y432193D01*
X37088Y432195D01*
X37131Y432213D01*
X37178Y432221D01*
X37235Y432255D01*
X37295Y432280D01*
X37330Y432311D01*
X37371Y432336D01*
X37413Y432387D01*
X37461Y432431D01*
X37483Y432473D01*
X37512Y432510D01*
X37533Y432572D01*
X37564Y432631D01*
X37572Y432685D01*
X37584Y432722D01*
X37583Y432762D01*
X37591Y432816D01*
X37591Y435356D01*
X37580Y435421D01*
X37578Y435487D01*
X37560Y435530D01*
X37552Y435577D01*
X37518Y435634D01*
X37493Y435694D01*
X37462Y435729D01*
X37437Y435770D01*
X37386Y435812D01*
X37342Y435860D01*
X37300Y435882D01*
X37263Y435911D01*
X37201Y435932D01*
X37142Y435963D01*
X37088Y435971D01*
X37051Y435983D01*
X37011Y435982D01*
X36957Y435990D01*
X33147Y435990D01*
X33082Y435979D01*
X33016Y435977D01*
X32973Y435959D01*
X32926Y435951D01*
X32869Y435917D01*
X32809Y435892D01*
X32774Y435861D01*
X32733Y435836D01*
X32692Y435785D01*
X32643Y435741D01*
X32621Y435699D01*
X32592Y435662D01*
X32571Y435600D01*
X32540Y435541D01*
X32532Y435487D01*
X32520Y435450D01*
X32520Y435447D01*
X32521Y435410D01*
X32513Y435356D01*
X32513Y432816D01*
X32524Y432751D01*
X32526Y432685D01*
X32544Y432642D01*
X32552Y432595D01*
X32586Y432538D01*
X32611Y432478D01*
X32642Y432443D01*
X32667Y432402D01*
X32718Y432361D01*
X32762Y432312D01*
X32804Y432290D01*
X32841Y432261D01*
X32903Y432240D01*
X32962Y432209D01*
X33016Y432201D01*
X33053Y432189D01*
X33093Y432190D01*
X33147Y432182D01*
X36957Y432182D01*
X37022Y432193D01*
G37*
G36*
X814262Y432193D02*
X814262Y432193D01*
X814328Y432195D01*
X814371Y432213D01*
X814418Y432221D01*
X814475Y432255D01*
X814535Y432280D01*
X814570Y432311D01*
X814611Y432336D01*
X814653Y432387D01*
X814701Y432431D01*
X814723Y432473D01*
X814752Y432510D01*
X814773Y432572D01*
X814804Y432631D01*
X814812Y432685D01*
X814824Y432722D01*
X814823Y432762D01*
X814831Y432816D01*
X814831Y435356D01*
X814820Y435421D01*
X814818Y435487D01*
X814800Y435530D01*
X814792Y435577D01*
X814758Y435634D01*
X814733Y435694D01*
X814702Y435729D01*
X814677Y435770D01*
X814626Y435812D01*
X814582Y435860D01*
X814540Y435882D01*
X814503Y435911D01*
X814441Y435932D01*
X814382Y435963D01*
X814328Y435971D01*
X814291Y435983D01*
X814251Y435982D01*
X814197Y435990D01*
X810387Y435990D01*
X810322Y435979D01*
X810256Y435977D01*
X810213Y435959D01*
X810166Y435951D01*
X810109Y435917D01*
X810049Y435892D01*
X810014Y435861D01*
X809973Y435836D01*
X809932Y435785D01*
X809883Y435741D01*
X809861Y435699D01*
X809832Y435662D01*
X809811Y435600D01*
X809780Y435541D01*
X809772Y435487D01*
X809760Y435450D01*
X809760Y435447D01*
X809761Y435410D01*
X809753Y435356D01*
X809753Y432816D01*
X809764Y432751D01*
X809766Y432685D01*
X809784Y432642D01*
X809792Y432595D01*
X809826Y432538D01*
X809851Y432478D01*
X809882Y432443D01*
X809907Y432402D01*
X809958Y432361D01*
X810002Y432312D01*
X810044Y432290D01*
X810081Y432261D01*
X810143Y432240D01*
X810202Y432209D01*
X810256Y432201D01*
X810293Y432189D01*
X810333Y432190D01*
X810387Y432182D01*
X814197Y432182D01*
X814262Y432193D01*
G37*
G36*
X555182Y432193D02*
X555182Y432193D01*
X555248Y432195D01*
X555291Y432213D01*
X555338Y432221D01*
X555395Y432255D01*
X555455Y432280D01*
X555490Y432311D01*
X555531Y432336D01*
X555573Y432387D01*
X555621Y432431D01*
X555643Y432473D01*
X555672Y432510D01*
X555693Y432572D01*
X555724Y432631D01*
X555732Y432685D01*
X555744Y432722D01*
X555743Y432762D01*
X555751Y432816D01*
X555751Y435356D01*
X555740Y435421D01*
X555738Y435487D01*
X555720Y435530D01*
X555712Y435577D01*
X555678Y435634D01*
X555653Y435694D01*
X555622Y435729D01*
X555597Y435770D01*
X555546Y435812D01*
X555502Y435860D01*
X555460Y435882D01*
X555423Y435911D01*
X555361Y435932D01*
X555302Y435963D01*
X555248Y435971D01*
X555211Y435983D01*
X555171Y435982D01*
X555117Y435990D01*
X551307Y435990D01*
X551242Y435979D01*
X551176Y435977D01*
X551133Y435959D01*
X551086Y435951D01*
X551029Y435917D01*
X550969Y435892D01*
X550934Y435861D01*
X550893Y435836D01*
X550852Y435785D01*
X550803Y435741D01*
X550781Y435699D01*
X550752Y435662D01*
X550731Y435600D01*
X550700Y435541D01*
X550692Y435487D01*
X550680Y435450D01*
X550680Y435447D01*
X550681Y435410D01*
X550673Y435356D01*
X550673Y432816D01*
X550684Y432751D01*
X550686Y432685D01*
X550704Y432642D01*
X550712Y432595D01*
X550746Y432538D01*
X550771Y432478D01*
X550802Y432443D01*
X550827Y432402D01*
X550878Y432361D01*
X550922Y432312D01*
X550964Y432290D01*
X551001Y432261D01*
X551063Y432240D01*
X551122Y432209D01*
X551176Y432201D01*
X551213Y432189D01*
X551253Y432190D01*
X551307Y432182D01*
X555117Y432182D01*
X555182Y432193D01*
G37*
G36*
X285942Y432193D02*
X285942Y432193D01*
X286008Y432195D01*
X286051Y432213D01*
X286098Y432221D01*
X286155Y432255D01*
X286215Y432280D01*
X286250Y432311D01*
X286291Y432336D01*
X286333Y432387D01*
X286381Y432431D01*
X286403Y432473D01*
X286432Y432510D01*
X286453Y432572D01*
X286484Y432631D01*
X286492Y432685D01*
X286504Y432722D01*
X286503Y432762D01*
X286511Y432816D01*
X286511Y435356D01*
X286500Y435421D01*
X286498Y435487D01*
X286480Y435530D01*
X286472Y435577D01*
X286438Y435634D01*
X286413Y435694D01*
X286382Y435729D01*
X286357Y435770D01*
X286306Y435812D01*
X286262Y435860D01*
X286220Y435882D01*
X286183Y435911D01*
X286121Y435932D01*
X286062Y435963D01*
X286008Y435971D01*
X285971Y435983D01*
X285931Y435982D01*
X285877Y435990D01*
X282067Y435990D01*
X282002Y435979D01*
X281936Y435977D01*
X281893Y435959D01*
X281846Y435951D01*
X281789Y435917D01*
X281729Y435892D01*
X281694Y435861D01*
X281653Y435836D01*
X281612Y435785D01*
X281563Y435741D01*
X281541Y435699D01*
X281512Y435662D01*
X281491Y435600D01*
X281460Y435541D01*
X281452Y435487D01*
X281440Y435450D01*
X281440Y435447D01*
X281441Y435410D01*
X281433Y435356D01*
X281433Y432816D01*
X281444Y432751D01*
X281446Y432685D01*
X281464Y432642D01*
X281472Y432595D01*
X281506Y432538D01*
X281531Y432478D01*
X281562Y432443D01*
X281587Y432402D01*
X281638Y432361D01*
X281682Y432312D01*
X281724Y432290D01*
X281761Y432261D01*
X281823Y432240D01*
X281882Y432209D01*
X281936Y432201D01*
X281973Y432189D01*
X282013Y432190D01*
X282067Y432182D01*
X285877Y432182D01*
X285942Y432193D01*
G37*
G36*
X545022Y432193D02*
X545022Y432193D01*
X545088Y432195D01*
X545131Y432213D01*
X545178Y432221D01*
X545235Y432255D01*
X545295Y432280D01*
X545330Y432311D01*
X545371Y432336D01*
X545413Y432387D01*
X545461Y432431D01*
X545483Y432473D01*
X545512Y432510D01*
X545533Y432572D01*
X545564Y432631D01*
X545572Y432685D01*
X545584Y432722D01*
X545583Y432762D01*
X545591Y432816D01*
X545591Y435356D01*
X545580Y435421D01*
X545578Y435487D01*
X545560Y435530D01*
X545552Y435577D01*
X545518Y435634D01*
X545493Y435694D01*
X545462Y435729D01*
X545437Y435770D01*
X545386Y435812D01*
X545342Y435860D01*
X545300Y435882D01*
X545263Y435911D01*
X545201Y435932D01*
X545142Y435963D01*
X545088Y435971D01*
X545051Y435983D01*
X545011Y435982D01*
X544957Y435990D01*
X541147Y435990D01*
X541082Y435979D01*
X541016Y435977D01*
X540973Y435959D01*
X540926Y435951D01*
X540869Y435917D01*
X540809Y435892D01*
X540774Y435861D01*
X540733Y435836D01*
X540692Y435785D01*
X540643Y435741D01*
X540621Y435699D01*
X540592Y435662D01*
X540571Y435600D01*
X540540Y435541D01*
X540532Y435487D01*
X540520Y435450D01*
X540520Y435447D01*
X540521Y435410D01*
X540513Y435356D01*
X540513Y432816D01*
X540524Y432751D01*
X540526Y432685D01*
X540544Y432642D01*
X540552Y432595D01*
X540586Y432538D01*
X540611Y432478D01*
X540642Y432443D01*
X540667Y432402D01*
X540718Y432361D01*
X540762Y432312D01*
X540804Y432290D01*
X540841Y432261D01*
X540903Y432240D01*
X540962Y432209D01*
X541016Y432201D01*
X541053Y432189D01*
X541093Y432190D01*
X541147Y432182D01*
X544957Y432182D01*
X545022Y432193D01*
G37*
G36*
X296102Y432193D02*
X296102Y432193D01*
X296168Y432195D01*
X296211Y432213D01*
X296258Y432221D01*
X296315Y432255D01*
X296375Y432280D01*
X296410Y432311D01*
X296451Y432336D01*
X296493Y432387D01*
X296541Y432431D01*
X296563Y432473D01*
X296592Y432510D01*
X296613Y432572D01*
X296644Y432631D01*
X296652Y432685D01*
X296664Y432722D01*
X296663Y432762D01*
X296671Y432816D01*
X296671Y435356D01*
X296660Y435421D01*
X296658Y435487D01*
X296640Y435530D01*
X296632Y435577D01*
X296598Y435634D01*
X296573Y435694D01*
X296542Y435729D01*
X296517Y435770D01*
X296466Y435812D01*
X296422Y435860D01*
X296380Y435882D01*
X296343Y435911D01*
X296281Y435932D01*
X296222Y435963D01*
X296168Y435971D01*
X296131Y435983D01*
X296091Y435982D01*
X296037Y435990D01*
X292227Y435990D01*
X292162Y435979D01*
X292096Y435977D01*
X292053Y435959D01*
X292006Y435951D01*
X291949Y435917D01*
X291889Y435892D01*
X291854Y435861D01*
X291813Y435836D01*
X291772Y435785D01*
X291723Y435741D01*
X291701Y435699D01*
X291672Y435662D01*
X291651Y435600D01*
X291620Y435541D01*
X291612Y435487D01*
X291600Y435450D01*
X291600Y435447D01*
X291601Y435410D01*
X291593Y435356D01*
X291593Y432816D01*
X291604Y432751D01*
X291606Y432685D01*
X291624Y432642D01*
X291632Y432595D01*
X291666Y432538D01*
X291691Y432478D01*
X291722Y432443D01*
X291747Y432402D01*
X291798Y432361D01*
X291842Y432312D01*
X291884Y432290D01*
X291921Y432261D01*
X291983Y432240D01*
X292042Y432209D01*
X292096Y432201D01*
X292133Y432189D01*
X292173Y432190D01*
X292227Y432182D01*
X296037Y432182D01*
X296102Y432193D01*
G37*
G36*
X26862Y432193D02*
X26862Y432193D01*
X26928Y432195D01*
X26971Y432213D01*
X27018Y432221D01*
X27075Y432255D01*
X27135Y432280D01*
X27170Y432311D01*
X27211Y432336D01*
X27253Y432387D01*
X27301Y432431D01*
X27323Y432473D01*
X27352Y432510D01*
X27373Y432572D01*
X27404Y432631D01*
X27412Y432685D01*
X27424Y432722D01*
X27423Y432762D01*
X27431Y432816D01*
X27431Y435356D01*
X27420Y435421D01*
X27418Y435487D01*
X27400Y435530D01*
X27392Y435577D01*
X27358Y435634D01*
X27333Y435694D01*
X27302Y435729D01*
X27277Y435770D01*
X27226Y435812D01*
X27182Y435860D01*
X27140Y435882D01*
X27103Y435911D01*
X27041Y435932D01*
X26982Y435963D01*
X26928Y435971D01*
X26891Y435983D01*
X26851Y435982D01*
X26797Y435990D01*
X22987Y435990D01*
X22922Y435979D01*
X22856Y435977D01*
X22813Y435959D01*
X22766Y435951D01*
X22709Y435917D01*
X22649Y435892D01*
X22614Y435861D01*
X22573Y435836D01*
X22532Y435785D01*
X22483Y435741D01*
X22461Y435699D01*
X22432Y435662D01*
X22411Y435600D01*
X22380Y435541D01*
X22372Y435487D01*
X22360Y435450D01*
X22360Y435447D01*
X22361Y435410D01*
X22353Y435356D01*
X22353Y432816D01*
X22364Y432751D01*
X22366Y432685D01*
X22384Y432642D01*
X22392Y432595D01*
X22426Y432538D01*
X22451Y432478D01*
X22482Y432443D01*
X22507Y432402D01*
X22558Y432361D01*
X22602Y432312D01*
X22644Y432290D01*
X22681Y432261D01*
X22743Y432240D01*
X22802Y432209D01*
X22856Y432201D01*
X22893Y432189D01*
X22933Y432190D01*
X22987Y432182D01*
X26797Y432182D01*
X26862Y432193D01*
G37*
G36*
X322010Y333641D02*
X322010Y333641D01*
X322076Y333643D01*
X322119Y333661D01*
X322166Y333669D01*
X322223Y333703D01*
X322283Y333728D01*
X322318Y333759D01*
X322359Y333784D01*
X322401Y333835D01*
X322449Y333879D01*
X322471Y333921D01*
X322500Y333958D01*
X322521Y334020D01*
X322552Y334079D01*
X322560Y334133D01*
X322572Y334170D01*
X322571Y334210D01*
X322579Y334264D01*
X322579Y336804D01*
X322568Y336869D01*
X322566Y336935D01*
X322548Y336978D01*
X322540Y337025D01*
X322506Y337082D01*
X322481Y337142D01*
X322450Y337177D01*
X322425Y337218D01*
X322374Y337260D01*
X322330Y337308D01*
X322288Y337330D01*
X322251Y337359D01*
X322189Y337380D01*
X322130Y337411D01*
X322076Y337419D01*
X322039Y337431D01*
X321999Y337430D01*
X321945Y337438D01*
X318135Y337438D01*
X318070Y337427D01*
X318004Y337425D01*
X317961Y337407D01*
X317914Y337399D01*
X317857Y337365D01*
X317797Y337340D01*
X317762Y337309D01*
X317721Y337284D01*
X317680Y337233D01*
X317631Y337189D01*
X317609Y337147D01*
X317580Y337110D01*
X317559Y337048D01*
X317528Y336989D01*
X317520Y336935D01*
X317508Y336898D01*
X317508Y336895D01*
X317509Y336858D01*
X317501Y336804D01*
X317501Y334264D01*
X317512Y334199D01*
X317514Y334133D01*
X317532Y334090D01*
X317540Y334043D01*
X317574Y333986D01*
X317599Y333926D01*
X317630Y333891D01*
X317655Y333850D01*
X317706Y333809D01*
X317750Y333760D01*
X317792Y333738D01*
X317829Y333709D01*
X317891Y333688D01*
X317950Y333657D01*
X318004Y333649D01*
X318041Y333637D01*
X318081Y333638D01*
X318135Y333630D01*
X321945Y333630D01*
X322010Y333641D01*
G37*
G36*
X62930Y333641D02*
X62930Y333641D01*
X62996Y333643D01*
X63039Y333661D01*
X63086Y333669D01*
X63143Y333703D01*
X63203Y333728D01*
X63238Y333759D01*
X63279Y333784D01*
X63321Y333835D01*
X63369Y333879D01*
X63391Y333921D01*
X63420Y333958D01*
X63441Y334020D01*
X63472Y334079D01*
X63480Y334133D01*
X63492Y334170D01*
X63491Y334210D01*
X63499Y334264D01*
X63499Y336804D01*
X63488Y336869D01*
X63486Y336935D01*
X63468Y336978D01*
X63460Y337025D01*
X63426Y337082D01*
X63401Y337142D01*
X63370Y337177D01*
X63345Y337218D01*
X63294Y337260D01*
X63250Y337308D01*
X63208Y337330D01*
X63171Y337359D01*
X63109Y337380D01*
X63050Y337411D01*
X62996Y337419D01*
X62959Y337431D01*
X62919Y337430D01*
X62865Y337438D01*
X59055Y337438D01*
X58990Y337427D01*
X58924Y337425D01*
X58881Y337407D01*
X58834Y337399D01*
X58777Y337365D01*
X58717Y337340D01*
X58682Y337309D01*
X58641Y337284D01*
X58600Y337233D01*
X58551Y337189D01*
X58529Y337147D01*
X58500Y337110D01*
X58479Y337048D01*
X58448Y336989D01*
X58440Y336935D01*
X58428Y336898D01*
X58428Y336895D01*
X58429Y336858D01*
X58421Y336804D01*
X58421Y334264D01*
X58432Y334199D01*
X58434Y334133D01*
X58452Y334090D01*
X58460Y334043D01*
X58494Y333986D01*
X58519Y333926D01*
X58550Y333891D01*
X58575Y333850D01*
X58626Y333809D01*
X58670Y333760D01*
X58712Y333738D01*
X58749Y333709D01*
X58811Y333688D01*
X58870Y333657D01*
X58924Y333649D01*
X58961Y333637D01*
X59001Y333638D01*
X59055Y333630D01*
X62865Y333630D01*
X62930Y333641D01*
G37*
G36*
X581090Y333641D02*
X581090Y333641D01*
X581156Y333643D01*
X581199Y333661D01*
X581246Y333669D01*
X581303Y333703D01*
X581363Y333728D01*
X581398Y333759D01*
X581439Y333784D01*
X581481Y333835D01*
X581529Y333879D01*
X581551Y333921D01*
X581580Y333958D01*
X581601Y334020D01*
X581632Y334079D01*
X581640Y334133D01*
X581652Y334170D01*
X581651Y334210D01*
X581659Y334264D01*
X581659Y336804D01*
X581648Y336869D01*
X581646Y336935D01*
X581628Y336978D01*
X581620Y337025D01*
X581586Y337082D01*
X581561Y337142D01*
X581530Y337177D01*
X581505Y337218D01*
X581454Y337260D01*
X581410Y337308D01*
X581368Y337330D01*
X581331Y337359D01*
X581269Y337380D01*
X581210Y337411D01*
X581156Y337419D01*
X581119Y337431D01*
X581079Y337430D01*
X581025Y337438D01*
X577215Y337438D01*
X577150Y337427D01*
X577084Y337425D01*
X577041Y337407D01*
X576994Y337399D01*
X576937Y337365D01*
X576877Y337340D01*
X576842Y337309D01*
X576801Y337284D01*
X576760Y337233D01*
X576711Y337189D01*
X576689Y337147D01*
X576660Y337110D01*
X576639Y337048D01*
X576608Y336989D01*
X576600Y336935D01*
X576588Y336898D01*
X576588Y336895D01*
X576589Y336858D01*
X576581Y336804D01*
X576581Y334264D01*
X576592Y334199D01*
X576594Y334133D01*
X576612Y334090D01*
X576620Y334043D01*
X576654Y333986D01*
X576679Y333926D01*
X576710Y333891D01*
X576735Y333850D01*
X576786Y333809D01*
X576830Y333760D01*
X576872Y333738D01*
X576909Y333709D01*
X576971Y333688D01*
X577030Y333657D01*
X577084Y333649D01*
X577121Y333637D01*
X577161Y333638D01*
X577215Y333630D01*
X581025Y333630D01*
X581090Y333641D01*
G37*
G36*
X840170Y333641D02*
X840170Y333641D01*
X840236Y333643D01*
X840279Y333661D01*
X840326Y333669D01*
X840383Y333703D01*
X840443Y333728D01*
X840478Y333759D01*
X840519Y333784D01*
X840561Y333835D01*
X840609Y333879D01*
X840631Y333921D01*
X840660Y333958D01*
X840681Y334020D01*
X840712Y334079D01*
X840720Y334133D01*
X840732Y334170D01*
X840731Y334210D01*
X840739Y334264D01*
X840739Y336804D01*
X840728Y336869D01*
X840726Y336935D01*
X840708Y336978D01*
X840700Y337025D01*
X840666Y337082D01*
X840641Y337142D01*
X840610Y337177D01*
X840585Y337218D01*
X840534Y337260D01*
X840490Y337308D01*
X840448Y337330D01*
X840411Y337359D01*
X840349Y337380D01*
X840290Y337411D01*
X840236Y337419D01*
X840199Y337431D01*
X840159Y337430D01*
X840105Y337438D01*
X836295Y337438D01*
X836230Y337427D01*
X836164Y337425D01*
X836121Y337407D01*
X836074Y337399D01*
X836017Y337365D01*
X835957Y337340D01*
X835922Y337309D01*
X835881Y337284D01*
X835840Y337233D01*
X835791Y337189D01*
X835769Y337147D01*
X835740Y337110D01*
X835719Y337048D01*
X835688Y336989D01*
X835680Y336935D01*
X835668Y336898D01*
X835668Y336895D01*
X835669Y336858D01*
X835661Y336804D01*
X835661Y334264D01*
X835672Y334199D01*
X835674Y334133D01*
X835692Y334090D01*
X835700Y334043D01*
X835734Y333986D01*
X835759Y333926D01*
X835790Y333891D01*
X835815Y333850D01*
X835866Y333809D01*
X835910Y333760D01*
X835952Y333738D01*
X835989Y333709D01*
X836051Y333688D01*
X836110Y333657D01*
X836164Y333649D01*
X836201Y333637D01*
X836241Y333638D01*
X836295Y333630D01*
X840105Y333630D01*
X840170Y333641D01*
G37*
G36*
X1002222Y320941D02*
X1002222Y320941D01*
X1002288Y320943D01*
X1002331Y320961D01*
X1002378Y320969D01*
X1002435Y321003D01*
X1002495Y321028D01*
X1002530Y321059D01*
X1002571Y321084D01*
X1002613Y321135D01*
X1002661Y321179D01*
X1002683Y321221D01*
X1002712Y321258D01*
X1002733Y321320D01*
X1002764Y321379D01*
X1002772Y321433D01*
X1002784Y321470D01*
X1002783Y321510D01*
X1002791Y321564D01*
X1002791Y324104D01*
X1002780Y324169D01*
X1002778Y324235D01*
X1002760Y324278D01*
X1002752Y324325D01*
X1002718Y324382D01*
X1002693Y324442D01*
X1002662Y324477D01*
X1002637Y324518D01*
X1002586Y324560D01*
X1002542Y324608D01*
X1002500Y324630D01*
X1002463Y324659D01*
X1002401Y324680D01*
X1002342Y324711D01*
X1002288Y324719D01*
X1002251Y324731D01*
X1002211Y324730D01*
X1002157Y324738D01*
X998347Y324738D01*
X998282Y324727D01*
X998216Y324725D01*
X998173Y324707D01*
X998126Y324699D01*
X998069Y324665D01*
X998009Y324640D01*
X997974Y324609D01*
X997933Y324584D01*
X997892Y324533D01*
X997843Y324489D01*
X997821Y324447D01*
X997792Y324410D01*
X997771Y324348D01*
X997740Y324289D01*
X997732Y324235D01*
X997720Y324198D01*
X997720Y324195D01*
X997721Y324158D01*
X997713Y324104D01*
X997713Y321564D01*
X997724Y321499D01*
X997726Y321433D01*
X997744Y321390D01*
X997752Y321343D01*
X997786Y321286D01*
X997811Y321226D01*
X997842Y321191D01*
X997867Y321150D01*
X997918Y321109D01*
X997962Y321060D01*
X998004Y321038D01*
X998041Y321009D01*
X998103Y320988D01*
X998162Y320957D01*
X998216Y320949D01*
X998253Y320937D01*
X998293Y320938D01*
X998347Y320930D01*
X1002157Y320930D01*
X1002222Y320941D01*
G37*
G36*
X484062Y320941D02*
X484062Y320941D01*
X484128Y320943D01*
X484171Y320961D01*
X484218Y320969D01*
X484275Y321003D01*
X484335Y321028D01*
X484370Y321059D01*
X484411Y321084D01*
X484453Y321135D01*
X484501Y321179D01*
X484523Y321221D01*
X484552Y321258D01*
X484573Y321320D01*
X484604Y321379D01*
X484612Y321433D01*
X484624Y321470D01*
X484623Y321510D01*
X484631Y321564D01*
X484631Y324104D01*
X484620Y324169D01*
X484618Y324235D01*
X484600Y324278D01*
X484592Y324325D01*
X484558Y324382D01*
X484533Y324442D01*
X484502Y324477D01*
X484477Y324518D01*
X484426Y324560D01*
X484382Y324608D01*
X484340Y324630D01*
X484303Y324659D01*
X484241Y324680D01*
X484182Y324711D01*
X484128Y324719D01*
X484091Y324731D01*
X484051Y324730D01*
X483997Y324738D01*
X480187Y324738D01*
X480122Y324727D01*
X480056Y324725D01*
X480013Y324707D01*
X479966Y324699D01*
X479909Y324665D01*
X479849Y324640D01*
X479814Y324609D01*
X479773Y324584D01*
X479732Y324533D01*
X479683Y324489D01*
X479661Y324447D01*
X479632Y324410D01*
X479611Y324348D01*
X479580Y324289D01*
X479572Y324235D01*
X479560Y324198D01*
X479560Y324195D01*
X479561Y324158D01*
X479553Y324104D01*
X479553Y321564D01*
X479564Y321499D01*
X479566Y321433D01*
X479584Y321390D01*
X479592Y321343D01*
X479626Y321286D01*
X479651Y321226D01*
X479682Y321191D01*
X479707Y321150D01*
X479758Y321109D01*
X479802Y321060D01*
X479844Y321038D01*
X479881Y321009D01*
X479943Y320988D01*
X480002Y320957D01*
X480056Y320949D01*
X480093Y320937D01*
X480133Y320938D01*
X480187Y320930D01*
X483997Y320930D01*
X484062Y320941D01*
G37*
G36*
X743142Y320941D02*
X743142Y320941D01*
X743208Y320943D01*
X743251Y320961D01*
X743298Y320969D01*
X743355Y321003D01*
X743415Y321028D01*
X743450Y321059D01*
X743491Y321084D01*
X743533Y321135D01*
X743581Y321179D01*
X743603Y321221D01*
X743632Y321258D01*
X743653Y321320D01*
X743684Y321379D01*
X743692Y321433D01*
X743704Y321470D01*
X743703Y321510D01*
X743711Y321564D01*
X743711Y324104D01*
X743700Y324169D01*
X743698Y324235D01*
X743680Y324278D01*
X743672Y324325D01*
X743638Y324382D01*
X743613Y324442D01*
X743582Y324477D01*
X743557Y324518D01*
X743506Y324560D01*
X743462Y324608D01*
X743420Y324630D01*
X743383Y324659D01*
X743321Y324680D01*
X743262Y324711D01*
X743208Y324719D01*
X743171Y324731D01*
X743131Y324730D01*
X743077Y324738D01*
X739267Y324738D01*
X739202Y324727D01*
X739136Y324725D01*
X739093Y324707D01*
X739046Y324699D01*
X738989Y324665D01*
X738929Y324640D01*
X738894Y324609D01*
X738853Y324584D01*
X738812Y324533D01*
X738763Y324489D01*
X738741Y324447D01*
X738712Y324410D01*
X738691Y324348D01*
X738660Y324289D01*
X738652Y324235D01*
X738640Y324198D01*
X738640Y324195D01*
X738641Y324158D01*
X738633Y324104D01*
X738633Y321564D01*
X738644Y321499D01*
X738646Y321433D01*
X738664Y321390D01*
X738672Y321343D01*
X738706Y321286D01*
X738731Y321226D01*
X738762Y321191D01*
X738787Y321150D01*
X738838Y321109D01*
X738882Y321060D01*
X738924Y321038D01*
X738961Y321009D01*
X739023Y320988D01*
X739082Y320957D01*
X739136Y320949D01*
X739173Y320937D01*
X739213Y320938D01*
X739267Y320930D01*
X743077Y320930D01*
X743142Y320941D01*
G37*
G36*
X224982Y320941D02*
X224982Y320941D01*
X225048Y320943D01*
X225091Y320961D01*
X225138Y320969D01*
X225195Y321003D01*
X225255Y321028D01*
X225290Y321059D01*
X225331Y321084D01*
X225373Y321135D01*
X225421Y321179D01*
X225443Y321221D01*
X225472Y321258D01*
X225493Y321320D01*
X225524Y321379D01*
X225532Y321433D01*
X225544Y321470D01*
X225543Y321510D01*
X225551Y321564D01*
X225551Y324104D01*
X225540Y324169D01*
X225538Y324235D01*
X225520Y324278D01*
X225512Y324325D01*
X225478Y324382D01*
X225453Y324442D01*
X225422Y324477D01*
X225397Y324518D01*
X225346Y324560D01*
X225302Y324608D01*
X225260Y324630D01*
X225223Y324659D01*
X225161Y324680D01*
X225102Y324711D01*
X225048Y324719D01*
X225011Y324731D01*
X224971Y324730D01*
X224917Y324738D01*
X221107Y324738D01*
X221042Y324727D01*
X220976Y324725D01*
X220933Y324707D01*
X220886Y324699D01*
X220829Y324665D01*
X220769Y324640D01*
X220734Y324609D01*
X220693Y324584D01*
X220652Y324533D01*
X220603Y324489D01*
X220581Y324447D01*
X220552Y324410D01*
X220531Y324348D01*
X220500Y324289D01*
X220492Y324235D01*
X220480Y324198D01*
X220480Y324195D01*
X220481Y324158D01*
X220473Y324104D01*
X220473Y321564D01*
X220484Y321499D01*
X220486Y321433D01*
X220504Y321390D01*
X220512Y321343D01*
X220546Y321286D01*
X220571Y321226D01*
X220602Y321191D01*
X220627Y321150D01*
X220678Y321109D01*
X220722Y321060D01*
X220764Y321038D01*
X220801Y321009D01*
X220863Y320988D01*
X220922Y320957D01*
X220976Y320949D01*
X221013Y320937D01*
X221053Y320938D01*
X221107Y320930D01*
X224917Y320930D01*
X224982Y320941D01*
G37*
G36*
X555182Y173113D02*
X555182Y173113D01*
X555248Y173115D01*
X555291Y173133D01*
X555338Y173141D01*
X555395Y173175D01*
X555455Y173200D01*
X555490Y173231D01*
X555531Y173256D01*
X555573Y173307D01*
X555621Y173351D01*
X555643Y173393D01*
X555672Y173430D01*
X555693Y173492D01*
X555724Y173551D01*
X555732Y173605D01*
X555744Y173642D01*
X555743Y173682D01*
X555751Y173736D01*
X555751Y176276D01*
X555740Y176341D01*
X555738Y176407D01*
X555720Y176450D01*
X555712Y176497D01*
X555678Y176554D01*
X555653Y176614D01*
X555622Y176649D01*
X555597Y176690D01*
X555546Y176732D01*
X555502Y176780D01*
X555460Y176802D01*
X555423Y176831D01*
X555361Y176852D01*
X555302Y176883D01*
X555248Y176891D01*
X555211Y176903D01*
X555171Y176902D01*
X555117Y176910D01*
X551307Y176910D01*
X551242Y176899D01*
X551176Y176897D01*
X551133Y176879D01*
X551086Y176871D01*
X551029Y176837D01*
X550969Y176812D01*
X550934Y176781D01*
X550893Y176756D01*
X550852Y176705D01*
X550803Y176661D01*
X550781Y176619D01*
X550752Y176582D01*
X550731Y176520D01*
X550700Y176461D01*
X550692Y176407D01*
X550680Y176370D01*
X550680Y176367D01*
X550681Y176330D01*
X550673Y176276D01*
X550673Y173736D01*
X550684Y173671D01*
X550686Y173605D01*
X550704Y173562D01*
X550712Y173515D01*
X550746Y173458D01*
X550771Y173398D01*
X550802Y173363D01*
X550827Y173322D01*
X550878Y173281D01*
X550922Y173232D01*
X550964Y173210D01*
X551001Y173181D01*
X551063Y173160D01*
X551122Y173129D01*
X551176Y173121D01*
X551213Y173109D01*
X551253Y173110D01*
X551307Y173102D01*
X555117Y173102D01*
X555182Y173113D01*
G37*
G36*
X814262Y173113D02*
X814262Y173113D01*
X814328Y173115D01*
X814371Y173133D01*
X814418Y173141D01*
X814475Y173175D01*
X814535Y173200D01*
X814570Y173231D01*
X814611Y173256D01*
X814653Y173307D01*
X814701Y173351D01*
X814723Y173393D01*
X814752Y173430D01*
X814773Y173492D01*
X814804Y173551D01*
X814812Y173605D01*
X814824Y173642D01*
X814823Y173682D01*
X814831Y173736D01*
X814831Y176276D01*
X814820Y176341D01*
X814818Y176407D01*
X814800Y176450D01*
X814792Y176497D01*
X814758Y176554D01*
X814733Y176614D01*
X814702Y176649D01*
X814677Y176690D01*
X814626Y176732D01*
X814582Y176780D01*
X814540Y176802D01*
X814503Y176831D01*
X814441Y176852D01*
X814382Y176883D01*
X814328Y176891D01*
X814291Y176903D01*
X814251Y176902D01*
X814197Y176910D01*
X810387Y176910D01*
X810322Y176899D01*
X810256Y176897D01*
X810213Y176879D01*
X810166Y176871D01*
X810109Y176837D01*
X810049Y176812D01*
X810014Y176781D01*
X809973Y176756D01*
X809932Y176705D01*
X809883Y176661D01*
X809861Y176619D01*
X809832Y176582D01*
X809811Y176520D01*
X809780Y176461D01*
X809772Y176407D01*
X809760Y176370D01*
X809760Y176367D01*
X809761Y176330D01*
X809753Y176276D01*
X809753Y173736D01*
X809764Y173671D01*
X809766Y173605D01*
X809784Y173562D01*
X809792Y173515D01*
X809826Y173458D01*
X809851Y173398D01*
X809882Y173363D01*
X809907Y173322D01*
X809958Y173281D01*
X810002Y173232D01*
X810044Y173210D01*
X810081Y173181D01*
X810143Y173160D01*
X810202Y173129D01*
X810256Y173121D01*
X810293Y173109D01*
X810333Y173110D01*
X810387Y173102D01*
X814197Y173102D01*
X814262Y173113D01*
G37*
G36*
X296102Y173113D02*
X296102Y173113D01*
X296168Y173115D01*
X296211Y173133D01*
X296258Y173141D01*
X296315Y173175D01*
X296375Y173200D01*
X296410Y173231D01*
X296451Y173256D01*
X296493Y173307D01*
X296541Y173351D01*
X296563Y173393D01*
X296592Y173430D01*
X296613Y173492D01*
X296644Y173551D01*
X296652Y173605D01*
X296664Y173642D01*
X296663Y173682D01*
X296671Y173736D01*
X296671Y176276D01*
X296660Y176341D01*
X296658Y176407D01*
X296640Y176450D01*
X296632Y176497D01*
X296598Y176554D01*
X296573Y176614D01*
X296542Y176649D01*
X296517Y176690D01*
X296466Y176732D01*
X296422Y176780D01*
X296380Y176802D01*
X296343Y176831D01*
X296281Y176852D01*
X296222Y176883D01*
X296168Y176891D01*
X296131Y176903D01*
X296091Y176902D01*
X296037Y176910D01*
X292227Y176910D01*
X292162Y176899D01*
X292096Y176897D01*
X292053Y176879D01*
X292006Y176871D01*
X291949Y176837D01*
X291889Y176812D01*
X291854Y176781D01*
X291813Y176756D01*
X291772Y176705D01*
X291723Y176661D01*
X291701Y176619D01*
X291672Y176582D01*
X291651Y176520D01*
X291620Y176461D01*
X291612Y176407D01*
X291600Y176370D01*
X291600Y176367D01*
X291601Y176330D01*
X291593Y176276D01*
X291593Y173736D01*
X291604Y173671D01*
X291606Y173605D01*
X291624Y173562D01*
X291632Y173515D01*
X291666Y173458D01*
X291691Y173398D01*
X291722Y173363D01*
X291747Y173322D01*
X291798Y173281D01*
X291842Y173232D01*
X291884Y173210D01*
X291921Y173181D01*
X291983Y173160D01*
X292042Y173129D01*
X292096Y173121D01*
X292133Y173109D01*
X292173Y173110D01*
X292227Y173102D01*
X296037Y173102D01*
X296102Y173113D01*
G37*
G36*
X804102Y173113D02*
X804102Y173113D01*
X804168Y173115D01*
X804211Y173133D01*
X804258Y173141D01*
X804315Y173175D01*
X804375Y173200D01*
X804410Y173231D01*
X804451Y173256D01*
X804493Y173307D01*
X804541Y173351D01*
X804563Y173393D01*
X804592Y173430D01*
X804613Y173492D01*
X804644Y173551D01*
X804652Y173605D01*
X804664Y173642D01*
X804663Y173682D01*
X804671Y173736D01*
X804671Y176276D01*
X804660Y176341D01*
X804658Y176407D01*
X804640Y176450D01*
X804632Y176497D01*
X804598Y176554D01*
X804573Y176614D01*
X804542Y176649D01*
X804517Y176690D01*
X804466Y176732D01*
X804422Y176780D01*
X804380Y176802D01*
X804343Y176831D01*
X804281Y176852D01*
X804222Y176883D01*
X804168Y176891D01*
X804131Y176903D01*
X804091Y176902D01*
X804037Y176910D01*
X800227Y176910D01*
X800162Y176899D01*
X800096Y176897D01*
X800053Y176879D01*
X800006Y176871D01*
X799949Y176837D01*
X799889Y176812D01*
X799854Y176781D01*
X799813Y176756D01*
X799772Y176705D01*
X799723Y176661D01*
X799701Y176619D01*
X799672Y176582D01*
X799651Y176520D01*
X799620Y176461D01*
X799612Y176407D01*
X799600Y176370D01*
X799600Y176367D01*
X799601Y176330D01*
X799593Y176276D01*
X799593Y173736D01*
X799604Y173671D01*
X799606Y173605D01*
X799624Y173562D01*
X799632Y173515D01*
X799666Y173458D01*
X799691Y173398D01*
X799722Y173363D01*
X799747Y173322D01*
X799798Y173281D01*
X799842Y173232D01*
X799884Y173210D01*
X799921Y173181D01*
X799983Y173160D01*
X800042Y173129D01*
X800096Y173121D01*
X800133Y173109D01*
X800173Y173110D01*
X800227Y173102D01*
X804037Y173102D01*
X804102Y173113D01*
G37*
G36*
X545022Y173113D02*
X545022Y173113D01*
X545088Y173115D01*
X545131Y173133D01*
X545178Y173141D01*
X545235Y173175D01*
X545295Y173200D01*
X545330Y173231D01*
X545371Y173256D01*
X545413Y173307D01*
X545461Y173351D01*
X545483Y173393D01*
X545512Y173430D01*
X545533Y173492D01*
X545564Y173551D01*
X545572Y173605D01*
X545584Y173642D01*
X545583Y173682D01*
X545591Y173736D01*
X545591Y176276D01*
X545580Y176341D01*
X545578Y176407D01*
X545560Y176450D01*
X545552Y176497D01*
X545518Y176554D01*
X545493Y176614D01*
X545462Y176649D01*
X545437Y176690D01*
X545386Y176732D01*
X545342Y176780D01*
X545300Y176802D01*
X545263Y176831D01*
X545201Y176852D01*
X545142Y176883D01*
X545088Y176891D01*
X545051Y176903D01*
X545011Y176902D01*
X544957Y176910D01*
X541147Y176910D01*
X541082Y176899D01*
X541016Y176897D01*
X540973Y176879D01*
X540926Y176871D01*
X540869Y176837D01*
X540809Y176812D01*
X540774Y176781D01*
X540733Y176756D01*
X540692Y176705D01*
X540643Y176661D01*
X540621Y176619D01*
X540592Y176582D01*
X540571Y176520D01*
X540540Y176461D01*
X540532Y176407D01*
X540520Y176370D01*
X540520Y176367D01*
X540521Y176330D01*
X540513Y176276D01*
X540513Y173736D01*
X540524Y173671D01*
X540526Y173605D01*
X540544Y173562D01*
X540552Y173515D01*
X540586Y173458D01*
X540611Y173398D01*
X540642Y173363D01*
X540667Y173322D01*
X540718Y173281D01*
X540762Y173232D01*
X540804Y173210D01*
X540841Y173181D01*
X540903Y173160D01*
X540962Y173129D01*
X541016Y173121D01*
X541053Y173109D01*
X541093Y173110D01*
X541147Y173102D01*
X544957Y173102D01*
X545022Y173113D01*
G37*
G36*
X285942Y173113D02*
X285942Y173113D01*
X286008Y173115D01*
X286051Y173133D01*
X286098Y173141D01*
X286155Y173175D01*
X286215Y173200D01*
X286250Y173231D01*
X286291Y173256D01*
X286333Y173307D01*
X286381Y173351D01*
X286403Y173393D01*
X286432Y173430D01*
X286453Y173492D01*
X286484Y173551D01*
X286492Y173605D01*
X286504Y173642D01*
X286503Y173682D01*
X286511Y173736D01*
X286511Y176276D01*
X286500Y176341D01*
X286498Y176407D01*
X286480Y176450D01*
X286472Y176497D01*
X286438Y176554D01*
X286413Y176614D01*
X286382Y176649D01*
X286357Y176690D01*
X286306Y176732D01*
X286262Y176780D01*
X286220Y176802D01*
X286183Y176831D01*
X286121Y176852D01*
X286062Y176883D01*
X286008Y176891D01*
X285971Y176903D01*
X285931Y176902D01*
X285877Y176910D01*
X282067Y176910D01*
X282002Y176899D01*
X281936Y176897D01*
X281893Y176879D01*
X281846Y176871D01*
X281789Y176837D01*
X281729Y176812D01*
X281694Y176781D01*
X281653Y176756D01*
X281612Y176705D01*
X281563Y176661D01*
X281541Y176619D01*
X281512Y176582D01*
X281491Y176520D01*
X281460Y176461D01*
X281452Y176407D01*
X281440Y176370D01*
X281440Y176367D01*
X281441Y176330D01*
X281433Y176276D01*
X281433Y173736D01*
X281444Y173671D01*
X281446Y173605D01*
X281464Y173562D01*
X281472Y173515D01*
X281506Y173458D01*
X281531Y173398D01*
X281562Y173363D01*
X281587Y173322D01*
X281638Y173281D01*
X281682Y173232D01*
X281724Y173210D01*
X281761Y173181D01*
X281823Y173160D01*
X281882Y173129D01*
X281936Y173121D01*
X281973Y173109D01*
X282013Y173110D01*
X282067Y173102D01*
X285877Y173102D01*
X285942Y173113D01*
G37*
G36*
X37022Y173113D02*
X37022Y173113D01*
X37088Y173115D01*
X37131Y173133D01*
X37178Y173141D01*
X37235Y173175D01*
X37295Y173200D01*
X37330Y173231D01*
X37371Y173256D01*
X37413Y173307D01*
X37461Y173351D01*
X37483Y173393D01*
X37512Y173430D01*
X37533Y173492D01*
X37564Y173551D01*
X37572Y173605D01*
X37584Y173642D01*
X37583Y173682D01*
X37591Y173736D01*
X37591Y176276D01*
X37580Y176341D01*
X37578Y176407D01*
X37560Y176450D01*
X37552Y176497D01*
X37518Y176554D01*
X37493Y176614D01*
X37462Y176649D01*
X37437Y176690D01*
X37386Y176732D01*
X37342Y176780D01*
X37300Y176802D01*
X37263Y176831D01*
X37201Y176852D01*
X37142Y176883D01*
X37088Y176891D01*
X37051Y176903D01*
X37011Y176902D01*
X36957Y176910D01*
X33147Y176910D01*
X33082Y176899D01*
X33016Y176897D01*
X32973Y176879D01*
X32926Y176871D01*
X32869Y176837D01*
X32809Y176812D01*
X32774Y176781D01*
X32733Y176756D01*
X32692Y176705D01*
X32643Y176661D01*
X32621Y176619D01*
X32592Y176582D01*
X32571Y176520D01*
X32540Y176461D01*
X32532Y176407D01*
X32520Y176370D01*
X32520Y176367D01*
X32521Y176330D01*
X32513Y176276D01*
X32513Y173736D01*
X32524Y173671D01*
X32526Y173605D01*
X32544Y173562D01*
X32552Y173515D01*
X32586Y173458D01*
X32611Y173398D01*
X32642Y173363D01*
X32667Y173322D01*
X32718Y173281D01*
X32762Y173232D01*
X32804Y173210D01*
X32841Y173181D01*
X32903Y173160D01*
X32962Y173129D01*
X33016Y173121D01*
X33053Y173109D01*
X33093Y173110D01*
X33147Y173102D01*
X36957Y173102D01*
X37022Y173113D01*
G37*
G36*
X26862Y173113D02*
X26862Y173113D01*
X26928Y173115D01*
X26971Y173133D01*
X27018Y173141D01*
X27075Y173175D01*
X27135Y173200D01*
X27170Y173231D01*
X27211Y173256D01*
X27253Y173307D01*
X27301Y173351D01*
X27323Y173393D01*
X27352Y173430D01*
X27373Y173492D01*
X27404Y173551D01*
X27412Y173605D01*
X27424Y173642D01*
X27423Y173682D01*
X27431Y173736D01*
X27431Y176276D01*
X27420Y176341D01*
X27418Y176407D01*
X27400Y176450D01*
X27392Y176497D01*
X27358Y176554D01*
X27333Y176614D01*
X27302Y176649D01*
X27277Y176690D01*
X27226Y176732D01*
X27182Y176780D01*
X27140Y176802D01*
X27103Y176831D01*
X27041Y176852D01*
X26982Y176883D01*
X26928Y176891D01*
X26891Y176903D01*
X26851Y176902D01*
X26797Y176910D01*
X22987Y176910D01*
X22922Y176899D01*
X22856Y176897D01*
X22813Y176879D01*
X22766Y176871D01*
X22709Y176837D01*
X22649Y176812D01*
X22614Y176781D01*
X22573Y176756D01*
X22532Y176705D01*
X22483Y176661D01*
X22461Y176619D01*
X22432Y176582D01*
X22411Y176520D01*
X22380Y176461D01*
X22372Y176407D01*
X22360Y176370D01*
X22360Y176367D01*
X22361Y176330D01*
X22353Y176276D01*
X22353Y173736D01*
X22364Y173671D01*
X22366Y173605D01*
X22384Y173562D01*
X22392Y173515D01*
X22426Y173458D01*
X22451Y173398D01*
X22482Y173363D01*
X22507Y173322D01*
X22558Y173281D01*
X22602Y173232D01*
X22644Y173210D01*
X22681Y173181D01*
X22743Y173160D01*
X22802Y173129D01*
X22856Y173121D01*
X22893Y173109D01*
X22933Y173110D01*
X22987Y173102D01*
X26797Y173102D01*
X26862Y173113D01*
G37*
G36*
X581090Y74561D02*
X581090Y74561D01*
X581156Y74563D01*
X581199Y74581D01*
X581246Y74589D01*
X581303Y74623D01*
X581363Y74648D01*
X581398Y74679D01*
X581439Y74704D01*
X581481Y74755D01*
X581529Y74799D01*
X581551Y74841D01*
X581580Y74878D01*
X581601Y74940D01*
X581632Y74999D01*
X581640Y75053D01*
X581652Y75090D01*
X581651Y75130D01*
X581659Y75184D01*
X581659Y77724D01*
X581648Y77789D01*
X581646Y77855D01*
X581628Y77898D01*
X581620Y77945D01*
X581586Y78002D01*
X581561Y78062D01*
X581530Y78097D01*
X581505Y78138D01*
X581454Y78180D01*
X581410Y78228D01*
X581368Y78250D01*
X581331Y78279D01*
X581269Y78300D01*
X581210Y78331D01*
X581156Y78339D01*
X581119Y78351D01*
X581079Y78350D01*
X581025Y78358D01*
X577215Y78358D01*
X577150Y78347D01*
X577084Y78345D01*
X577041Y78327D01*
X576994Y78319D01*
X576937Y78285D01*
X576877Y78260D01*
X576842Y78229D01*
X576801Y78204D01*
X576760Y78153D01*
X576711Y78109D01*
X576689Y78067D01*
X576660Y78030D01*
X576639Y77968D01*
X576608Y77909D01*
X576600Y77855D01*
X576588Y77818D01*
X576588Y77815D01*
X576589Y77778D01*
X576581Y77724D01*
X576581Y75184D01*
X576592Y75119D01*
X576594Y75053D01*
X576612Y75010D01*
X576620Y74963D01*
X576654Y74906D01*
X576679Y74846D01*
X576710Y74811D01*
X576735Y74770D01*
X576786Y74729D01*
X576830Y74680D01*
X576872Y74658D01*
X576909Y74629D01*
X576971Y74608D01*
X577030Y74577D01*
X577084Y74569D01*
X577121Y74557D01*
X577161Y74558D01*
X577215Y74550D01*
X581025Y74550D01*
X581090Y74561D01*
G37*
G36*
X840170Y74561D02*
X840170Y74561D01*
X840236Y74563D01*
X840279Y74581D01*
X840326Y74589D01*
X840383Y74623D01*
X840443Y74648D01*
X840478Y74679D01*
X840519Y74704D01*
X840561Y74755D01*
X840609Y74799D01*
X840631Y74841D01*
X840660Y74878D01*
X840681Y74940D01*
X840712Y74999D01*
X840720Y75053D01*
X840732Y75090D01*
X840731Y75130D01*
X840739Y75184D01*
X840739Y77724D01*
X840728Y77789D01*
X840726Y77855D01*
X840708Y77898D01*
X840700Y77945D01*
X840666Y78002D01*
X840641Y78062D01*
X840610Y78097D01*
X840585Y78138D01*
X840534Y78180D01*
X840490Y78228D01*
X840448Y78250D01*
X840411Y78279D01*
X840349Y78300D01*
X840290Y78331D01*
X840236Y78339D01*
X840199Y78351D01*
X840159Y78350D01*
X840105Y78358D01*
X836295Y78358D01*
X836230Y78347D01*
X836164Y78345D01*
X836121Y78327D01*
X836074Y78319D01*
X836017Y78285D01*
X835957Y78260D01*
X835922Y78229D01*
X835881Y78204D01*
X835840Y78153D01*
X835791Y78109D01*
X835769Y78067D01*
X835740Y78030D01*
X835719Y77968D01*
X835688Y77909D01*
X835680Y77855D01*
X835668Y77818D01*
X835668Y77815D01*
X835669Y77778D01*
X835661Y77724D01*
X835661Y75184D01*
X835672Y75119D01*
X835674Y75053D01*
X835692Y75010D01*
X835700Y74963D01*
X835734Y74906D01*
X835759Y74846D01*
X835790Y74811D01*
X835815Y74770D01*
X835866Y74729D01*
X835910Y74680D01*
X835952Y74658D01*
X835989Y74629D01*
X836051Y74608D01*
X836110Y74577D01*
X836164Y74569D01*
X836201Y74557D01*
X836241Y74558D01*
X836295Y74550D01*
X840105Y74550D01*
X840170Y74561D01*
G37*
G36*
X322010Y74561D02*
X322010Y74561D01*
X322076Y74563D01*
X322119Y74581D01*
X322166Y74589D01*
X322223Y74623D01*
X322283Y74648D01*
X322318Y74679D01*
X322359Y74704D01*
X322401Y74755D01*
X322449Y74799D01*
X322471Y74841D01*
X322500Y74878D01*
X322521Y74940D01*
X322552Y74999D01*
X322560Y75053D01*
X322572Y75090D01*
X322571Y75130D01*
X322579Y75184D01*
X322579Y77724D01*
X322568Y77789D01*
X322566Y77855D01*
X322548Y77898D01*
X322540Y77945D01*
X322506Y78002D01*
X322481Y78062D01*
X322450Y78097D01*
X322425Y78138D01*
X322374Y78180D01*
X322330Y78228D01*
X322288Y78250D01*
X322251Y78279D01*
X322189Y78300D01*
X322130Y78331D01*
X322076Y78339D01*
X322039Y78351D01*
X321999Y78350D01*
X321945Y78358D01*
X318135Y78358D01*
X318070Y78347D01*
X318004Y78345D01*
X317961Y78327D01*
X317914Y78319D01*
X317857Y78285D01*
X317797Y78260D01*
X317762Y78229D01*
X317721Y78204D01*
X317680Y78153D01*
X317631Y78109D01*
X317609Y78067D01*
X317580Y78030D01*
X317559Y77968D01*
X317528Y77909D01*
X317520Y77855D01*
X317508Y77818D01*
X317508Y77815D01*
X317509Y77778D01*
X317501Y77724D01*
X317501Y75184D01*
X317512Y75119D01*
X317514Y75053D01*
X317532Y75010D01*
X317540Y74963D01*
X317574Y74906D01*
X317599Y74846D01*
X317630Y74811D01*
X317655Y74770D01*
X317706Y74729D01*
X317750Y74680D01*
X317792Y74658D01*
X317829Y74629D01*
X317891Y74608D01*
X317950Y74577D01*
X318004Y74569D01*
X318041Y74557D01*
X318081Y74558D01*
X318135Y74550D01*
X321945Y74550D01*
X322010Y74561D01*
G37*
G36*
X62930Y74561D02*
X62930Y74561D01*
X62996Y74563D01*
X63039Y74581D01*
X63086Y74589D01*
X63143Y74623D01*
X63203Y74648D01*
X63238Y74679D01*
X63279Y74704D01*
X63321Y74755D01*
X63369Y74799D01*
X63391Y74841D01*
X63420Y74878D01*
X63441Y74940D01*
X63472Y74999D01*
X63480Y75053D01*
X63492Y75090D01*
X63491Y75130D01*
X63499Y75184D01*
X63499Y77724D01*
X63488Y77789D01*
X63486Y77855D01*
X63468Y77898D01*
X63460Y77945D01*
X63426Y78002D01*
X63401Y78062D01*
X63370Y78097D01*
X63345Y78138D01*
X63294Y78180D01*
X63250Y78228D01*
X63208Y78250D01*
X63171Y78279D01*
X63109Y78300D01*
X63050Y78331D01*
X62996Y78339D01*
X62959Y78351D01*
X62919Y78350D01*
X62865Y78358D01*
X59055Y78358D01*
X58990Y78347D01*
X58924Y78345D01*
X58881Y78327D01*
X58834Y78319D01*
X58777Y78285D01*
X58717Y78260D01*
X58682Y78229D01*
X58641Y78204D01*
X58600Y78153D01*
X58551Y78109D01*
X58529Y78067D01*
X58500Y78030D01*
X58479Y77968D01*
X58448Y77909D01*
X58440Y77855D01*
X58428Y77818D01*
X58428Y77815D01*
X58429Y77778D01*
X58421Y77724D01*
X58421Y75184D01*
X58432Y75119D01*
X58434Y75053D01*
X58452Y75010D01*
X58460Y74963D01*
X58494Y74906D01*
X58519Y74846D01*
X58550Y74811D01*
X58575Y74770D01*
X58626Y74729D01*
X58670Y74680D01*
X58712Y74658D01*
X58749Y74629D01*
X58811Y74608D01*
X58870Y74577D01*
X58924Y74569D01*
X58961Y74557D01*
X59001Y74558D01*
X59055Y74550D01*
X62865Y74550D01*
X62930Y74561D01*
G37*
G36*
X743142Y61861D02*
X743142Y61861D01*
X743208Y61863D01*
X743251Y61881D01*
X743298Y61889D01*
X743355Y61923D01*
X743415Y61948D01*
X743450Y61979D01*
X743491Y62004D01*
X743533Y62055D01*
X743581Y62099D01*
X743603Y62141D01*
X743632Y62178D01*
X743653Y62240D01*
X743684Y62299D01*
X743692Y62353D01*
X743704Y62390D01*
X743703Y62430D01*
X743711Y62484D01*
X743711Y65024D01*
X743700Y65089D01*
X743698Y65155D01*
X743680Y65198D01*
X743672Y65245D01*
X743638Y65302D01*
X743613Y65362D01*
X743582Y65397D01*
X743557Y65438D01*
X743506Y65480D01*
X743462Y65528D01*
X743420Y65550D01*
X743383Y65579D01*
X743321Y65600D01*
X743262Y65631D01*
X743208Y65639D01*
X743171Y65651D01*
X743131Y65650D01*
X743077Y65658D01*
X739267Y65658D01*
X739202Y65647D01*
X739136Y65645D01*
X739093Y65627D01*
X739046Y65619D01*
X738989Y65585D01*
X738929Y65560D01*
X738894Y65529D01*
X738853Y65504D01*
X738812Y65453D01*
X738763Y65409D01*
X738741Y65367D01*
X738712Y65330D01*
X738691Y65268D01*
X738660Y65209D01*
X738652Y65155D01*
X738640Y65118D01*
X738640Y65115D01*
X738641Y65078D01*
X738633Y65024D01*
X738633Y62484D01*
X738644Y62419D01*
X738646Y62353D01*
X738664Y62310D01*
X738672Y62263D01*
X738706Y62206D01*
X738731Y62146D01*
X738762Y62111D01*
X738787Y62070D01*
X738838Y62029D01*
X738882Y61980D01*
X738924Y61958D01*
X738961Y61929D01*
X739023Y61908D01*
X739082Y61877D01*
X739136Y61869D01*
X739173Y61857D01*
X739213Y61858D01*
X739267Y61850D01*
X743077Y61850D01*
X743142Y61861D01*
G37*
G36*
X1002222Y61861D02*
X1002222Y61861D01*
X1002288Y61863D01*
X1002331Y61881D01*
X1002378Y61889D01*
X1002435Y61923D01*
X1002495Y61948D01*
X1002530Y61979D01*
X1002571Y62004D01*
X1002613Y62055D01*
X1002661Y62099D01*
X1002683Y62141D01*
X1002712Y62178D01*
X1002733Y62240D01*
X1002764Y62299D01*
X1002772Y62353D01*
X1002784Y62390D01*
X1002783Y62430D01*
X1002791Y62484D01*
X1002791Y65024D01*
X1002780Y65089D01*
X1002778Y65155D01*
X1002760Y65198D01*
X1002752Y65245D01*
X1002718Y65302D01*
X1002693Y65362D01*
X1002662Y65397D01*
X1002637Y65438D01*
X1002586Y65480D01*
X1002542Y65528D01*
X1002500Y65550D01*
X1002463Y65579D01*
X1002401Y65600D01*
X1002342Y65631D01*
X1002288Y65639D01*
X1002251Y65651D01*
X1002211Y65650D01*
X1002157Y65658D01*
X998347Y65658D01*
X998282Y65647D01*
X998216Y65645D01*
X998173Y65627D01*
X998126Y65619D01*
X998069Y65585D01*
X998009Y65560D01*
X997974Y65529D01*
X997933Y65504D01*
X997892Y65453D01*
X997843Y65409D01*
X997821Y65367D01*
X997792Y65330D01*
X997771Y65268D01*
X997740Y65209D01*
X997732Y65155D01*
X997720Y65118D01*
X997720Y65115D01*
X997721Y65078D01*
X997713Y65024D01*
X997713Y62484D01*
X997724Y62419D01*
X997726Y62353D01*
X997744Y62310D01*
X997752Y62263D01*
X997786Y62206D01*
X997811Y62146D01*
X997842Y62111D01*
X997867Y62070D01*
X997918Y62029D01*
X997962Y61980D01*
X998004Y61958D01*
X998041Y61929D01*
X998103Y61908D01*
X998162Y61877D01*
X998216Y61869D01*
X998253Y61857D01*
X998293Y61858D01*
X998347Y61850D01*
X1002157Y61850D01*
X1002222Y61861D01*
G37*
G36*
X484062Y61861D02*
X484062Y61861D01*
X484128Y61863D01*
X484171Y61881D01*
X484218Y61889D01*
X484275Y61923D01*
X484335Y61948D01*
X484370Y61979D01*
X484411Y62004D01*
X484453Y62055D01*
X484501Y62099D01*
X484523Y62141D01*
X484552Y62178D01*
X484573Y62240D01*
X484604Y62299D01*
X484612Y62353D01*
X484624Y62390D01*
X484623Y62430D01*
X484631Y62484D01*
X484631Y65024D01*
X484620Y65089D01*
X484618Y65155D01*
X484600Y65198D01*
X484592Y65245D01*
X484558Y65302D01*
X484533Y65362D01*
X484502Y65397D01*
X484477Y65438D01*
X484426Y65480D01*
X484382Y65528D01*
X484340Y65550D01*
X484303Y65579D01*
X484241Y65600D01*
X484182Y65631D01*
X484128Y65639D01*
X484091Y65651D01*
X484051Y65650D01*
X483997Y65658D01*
X480187Y65658D01*
X480122Y65647D01*
X480056Y65645D01*
X480013Y65627D01*
X479966Y65619D01*
X479909Y65585D01*
X479849Y65560D01*
X479814Y65529D01*
X479773Y65504D01*
X479732Y65453D01*
X479683Y65409D01*
X479661Y65367D01*
X479632Y65330D01*
X479611Y65268D01*
X479580Y65209D01*
X479572Y65155D01*
X479560Y65118D01*
X479560Y65115D01*
X479561Y65078D01*
X479553Y65024D01*
X479553Y62484D01*
X479564Y62419D01*
X479566Y62353D01*
X479584Y62310D01*
X479592Y62263D01*
X479626Y62206D01*
X479651Y62146D01*
X479682Y62111D01*
X479707Y62070D01*
X479758Y62029D01*
X479802Y61980D01*
X479844Y61958D01*
X479881Y61929D01*
X479943Y61908D01*
X480002Y61877D01*
X480056Y61869D01*
X480093Y61857D01*
X480133Y61858D01*
X480187Y61850D01*
X483997Y61850D01*
X484062Y61861D01*
G37*
G36*
X224982Y61861D02*
X224982Y61861D01*
X225048Y61863D01*
X225091Y61881D01*
X225138Y61889D01*
X225195Y61923D01*
X225255Y61948D01*
X225290Y61979D01*
X225331Y62004D01*
X225373Y62055D01*
X225421Y62099D01*
X225443Y62141D01*
X225472Y62178D01*
X225493Y62240D01*
X225524Y62299D01*
X225532Y62353D01*
X225544Y62390D01*
X225543Y62430D01*
X225551Y62484D01*
X225551Y65024D01*
X225540Y65089D01*
X225538Y65155D01*
X225520Y65198D01*
X225512Y65245D01*
X225478Y65302D01*
X225453Y65362D01*
X225422Y65397D01*
X225397Y65438D01*
X225346Y65480D01*
X225302Y65528D01*
X225260Y65550D01*
X225223Y65579D01*
X225161Y65600D01*
X225102Y65631D01*
X225048Y65639D01*
X225011Y65651D01*
X224971Y65650D01*
X224917Y65658D01*
X221107Y65658D01*
X221042Y65647D01*
X220976Y65645D01*
X220933Y65627D01*
X220886Y65619D01*
X220829Y65585D01*
X220769Y65560D01*
X220734Y65529D01*
X220693Y65504D01*
X220652Y65453D01*
X220603Y65409D01*
X220581Y65367D01*
X220552Y65330D01*
X220531Y65268D01*
X220500Y65209D01*
X220492Y65155D01*
X220480Y65118D01*
X220480Y65115D01*
X220481Y65078D01*
X220473Y65024D01*
X220473Y62484D01*
X220484Y62419D01*
X220486Y62353D01*
X220504Y62310D01*
X220512Y62263D01*
X220546Y62206D01*
X220571Y62146D01*
X220602Y62111D01*
X220627Y62070D01*
X220678Y62029D01*
X220722Y61980D01*
X220764Y61958D01*
X220801Y61929D01*
X220863Y61908D01*
X220922Y61877D01*
X220976Y61869D01*
X221013Y61857D01*
X221053Y61858D01*
X221107Y61850D01*
X224917Y61850D01*
X224982Y61861D01*
G37*
D10*
X25400Y25400D03*
X228600Y25400D03*
X228600Y228600D03*
X25400Y228600D03*
D11*
X228219Y63754D03*
X217805Y63754D03*
D12*
X63500Y12700D03*
X88900Y12700D03*
X114300Y12700D03*
X139700Y12700D03*
X165100Y12700D03*
D11*
X66167Y76454D03*
X55753Y76454D03*
X40386Y175006D03*
X29972Y175006D03*
X19558Y175006D03*
D12*
X190500Y12700D03*
D13*
X204470Y243840D03*
X12700Y50800D03*
D10*
X284480Y25400D03*
X487680Y25400D03*
X487680Y228600D03*
X284480Y228600D03*
D11*
X487299Y63754D03*
X476885Y63754D03*
D12*
X322580Y12700D03*
X347980Y12700D03*
X373380Y12700D03*
X398780Y12700D03*
X424180Y12700D03*
D11*
X325247Y76454D03*
X314833Y76454D03*
X299466Y175006D03*
X289052Y175006D03*
X278638Y175006D03*
D12*
X449580Y12700D03*
D13*
X463550Y243840D03*
X271780Y50800D03*
D10*
X543560Y25400D03*
X746760Y25400D03*
X746760Y228600D03*
X543560Y228600D03*
D11*
X746379Y63754D03*
X735965Y63754D03*
D12*
X581660Y12700D03*
X607060Y12700D03*
X632460Y12700D03*
X657860Y12700D03*
X683260Y12700D03*
D11*
X584327Y76454D03*
X573913Y76454D03*
X558546Y175006D03*
X548132Y175006D03*
X537718Y175006D03*
D12*
X708660Y12700D03*
D13*
X722630Y243840D03*
X530860Y50800D03*
D10*
X802640Y25400D03*
X1005840Y25400D03*
X1005840Y228600D03*
X802640Y228600D03*
D11*
X1005459Y63754D03*
X995045Y63754D03*
D12*
X840740Y12700D03*
X866140Y12700D03*
X891540Y12700D03*
X916940Y12700D03*
X942340Y12700D03*
D11*
X843407Y76454D03*
X832993Y76454D03*
X817626Y175006D03*
X807212Y175006D03*
X796798Y175006D03*
D12*
X967740Y12700D03*
D13*
X981710Y243840D03*
X789940Y50800D03*
D10*
X25400Y284480D03*
X228600Y284480D03*
X228600Y487680D03*
X25400Y487680D03*
D11*
X228219Y322834D03*
X217805Y322834D03*
D12*
X63500Y271780D03*
X88900Y271780D03*
X114300Y271780D03*
X139700Y271780D03*
X165100Y271780D03*
D11*
X66167Y335534D03*
X55753Y335534D03*
X40386Y434086D03*
X29972Y434086D03*
X19558Y434086D03*
D12*
X190500Y271780D03*
D13*
X204470Y502920D03*
X12700Y309880D03*
D10*
X284480Y284480D03*
X487680Y284480D03*
X487680Y487680D03*
X284480Y487680D03*
D11*
X487299Y322834D03*
X476885Y322834D03*
D12*
X322580Y271780D03*
X347980Y271780D03*
X373380Y271780D03*
X398780Y271780D03*
X424180Y271780D03*
D11*
X325247Y335534D03*
X314833Y335534D03*
X299466Y434086D03*
X289052Y434086D03*
X278638Y434086D03*
D12*
X449580Y271780D03*
D13*
X463550Y502920D03*
X271780Y309880D03*
D10*
X543560Y284480D03*
X746760Y284480D03*
X746760Y487680D03*
X543560Y487680D03*
D11*
X746379Y322834D03*
X735965Y322834D03*
D12*
X581660Y271780D03*
X607060Y271780D03*
X632460Y271780D03*
X657860Y271780D03*
X683260Y271780D03*
D11*
X584327Y335534D03*
X573913Y335534D03*
X558546Y434086D03*
X548132Y434086D03*
X537718Y434086D03*
D12*
X708660Y271780D03*
D13*
X722630Y502920D03*
X530860Y309880D03*
D10*
X802640Y284480D03*
X1005840Y284480D03*
X1005840Y487680D03*
X802640Y487680D03*
D11*
X1005459Y322834D03*
X995045Y322834D03*
D12*
X840740Y271780D03*
X866140Y271780D03*
X891540Y271780D03*
X916940Y271780D03*
X942340Y271780D03*
D11*
X843407Y335534D03*
X832993Y335534D03*
X817626Y434086D03*
X807212Y434086D03*
X796798Y434086D03*
D12*
X967740Y271780D03*
D13*
X981710Y502920D03*
X789940Y309880D03*
D10*
X25400Y543560D03*
X228600Y543560D03*
X228600Y746760D03*
X25400Y746760D03*
D11*
X228219Y581914D03*
X217805Y581914D03*
D12*
X63500Y530860D03*
X88900Y530860D03*
X114300Y530860D03*
X139700Y530860D03*
X165100Y530860D03*
D11*
X66167Y594614D03*
X55753Y594614D03*
X40386Y693166D03*
X29972Y693166D03*
X19558Y693166D03*
D12*
X190500Y530860D03*
D13*
X204470Y762000D03*
X12700Y568960D03*
D10*
X284480Y543560D03*
X487680Y543560D03*
X487680Y746760D03*
X284480Y746760D03*
D11*
X487299Y581914D03*
X476885Y581914D03*
D12*
X322580Y530860D03*
X347980Y530860D03*
X373380Y530860D03*
X398780Y530860D03*
X424180Y530860D03*
D11*
X325247Y594614D03*
X314833Y594614D03*
X299466Y693166D03*
X289052Y693166D03*
X278638Y693166D03*
D12*
X449580Y530860D03*
D13*
X463550Y762000D03*
X271780Y568960D03*
D10*
X543560Y543560D03*
X746760Y543560D03*
X746760Y746760D03*
X543560Y746760D03*
D11*
X746379Y581914D03*
X735965Y581914D03*
D12*
X581660Y530860D03*
X607060Y530860D03*
X632460Y530860D03*
X657860Y530860D03*
X683260Y530860D03*
D11*
X584327Y594614D03*
X573913Y594614D03*
X558546Y693166D03*
X548132Y693166D03*
X537718Y693166D03*
D12*
X708660Y530860D03*
D13*
X722630Y762000D03*
X530860Y568960D03*
D10*
X802640Y543560D03*
X1005840Y543560D03*
X1005840Y746760D03*
X802640Y746760D03*
D11*
X1005459Y581914D03*
X995045Y581914D03*
D12*
X840740Y530860D03*
X866140Y530860D03*
X891540Y530860D03*
X916940Y530860D03*
X942340Y530860D03*
D11*
X843407Y594614D03*
X832993Y594614D03*
X817626Y693166D03*
X807212Y693166D03*
X796798Y693166D03*
D12*
X967740Y530860D03*
D13*
X981710Y762000D03*
X789940Y568960D03*
D10*
X25400Y802640D03*
X228600Y802640D03*
X228600Y1005840D03*
X25400Y1005840D03*
D11*
X228219Y840994D03*
X217805Y840994D03*
D12*
X63500Y789940D03*
X88900Y789940D03*
X114300Y789940D03*
X139700Y789940D03*
X165100Y789940D03*
D11*
X66167Y853694D03*
X55753Y853694D03*
X40386Y952246D03*
X29972Y952246D03*
X19558Y952246D03*
D12*
X190500Y789940D03*
D13*
X204470Y1021080D03*
X12700Y828040D03*
D10*
X284480Y802640D03*
X487680Y802640D03*
X487680Y1005840D03*
X284480Y1005840D03*
D11*
X487299Y840994D03*
X476885Y840994D03*
D12*
X322580Y789940D03*
X347980Y789940D03*
X373380Y789940D03*
X398780Y789940D03*
X424180Y789940D03*
D11*
X325247Y853694D03*
X314833Y853694D03*
X299466Y952246D03*
X289052Y952246D03*
X278638Y952246D03*
D12*
X449580Y789940D03*
D13*
X463550Y1021080D03*
X271780Y828040D03*
D10*
X543560Y802640D03*
X746760Y802640D03*
X746760Y1005840D03*
X543560Y1005840D03*
D11*
X746379Y840994D03*
X735965Y840994D03*
D12*
X581660Y789940D03*
X607060Y789940D03*
X632460Y789940D03*
X657860Y789940D03*
X683260Y789940D03*
D11*
X584327Y853694D03*
X573913Y853694D03*
X558546Y952246D03*
X548132Y952246D03*
X537718Y952246D03*
D12*
X708660Y789940D03*
D13*
X722630Y1021080D03*
X530860Y828040D03*
D10*
X802640Y802640D03*
X1005840Y802640D03*
X1005840Y1005840D03*
X802640Y1005840D03*
D11*
X1005459Y840994D03*
X995045Y840994D03*
D12*
X840740Y789940D03*
X866140Y789940D03*
X891540Y789940D03*
X916940Y789940D03*
X942340Y789940D03*
D11*
X843407Y853694D03*
X832993Y853694D03*
X817626Y952246D03*
X807212Y952246D03*
X796798Y952246D03*
D12*
X967740Y789940D03*
D13*
X981710Y1021080D03*
X789940Y828040D03*
D10*
X25400Y1061720D03*
X228600Y1061720D03*
X228600Y1264920D03*
X25400Y1264920D03*
D11*
X228219Y1100074D03*
X217805Y1100074D03*
D12*
X63500Y1049020D03*
X88900Y1049020D03*
X114300Y1049020D03*
X139700Y1049020D03*
X165100Y1049020D03*
D11*
X66167Y1112774D03*
X55753Y1112774D03*
X40386Y1211326D03*
X29972Y1211326D03*
X19558Y1211326D03*
D12*
X190500Y1049020D03*
D13*
X204470Y1280160D03*
X12700Y1087120D03*
D10*
X284480Y1061720D03*
X487680Y1061720D03*
X487680Y1264920D03*
X284480Y1264920D03*
D11*
X487299Y1100074D03*
X476885Y1100074D03*
D12*
X322580Y1049020D03*
X347980Y1049020D03*
X373380Y1049020D03*
X398780Y1049020D03*
X424180Y1049020D03*
D11*
X325247Y1112774D03*
X314833Y1112774D03*
X299466Y1211326D03*
X289052Y1211326D03*
X278638Y1211326D03*
D12*
X449580Y1049020D03*
D13*
X463550Y1280160D03*
X271780Y1087120D03*
D10*
X543560Y1061720D03*
X746760Y1061720D03*
X746760Y1264920D03*
X543560Y1264920D03*
D11*
X746379Y1100074D03*
X735965Y1100074D03*
D12*
X581660Y1049020D03*
X607060Y1049020D03*
X632460Y1049020D03*
X657860Y1049020D03*
X683260Y1049020D03*
D11*
X584327Y1112774D03*
X573913Y1112774D03*
X558546Y1211326D03*
X548132Y1211326D03*
X537718Y1211326D03*
D12*
X708660Y1049020D03*
D13*
X722630Y1280160D03*
X530860Y1087120D03*
D10*
X802640Y1061720D03*
X1005840Y1061720D03*
X1005840Y1264920D03*
X802640Y1264920D03*
D11*
X1005459Y1100074D03*
X995045Y1100074D03*
D12*
X840740Y1049020D03*
X866140Y1049020D03*
X891540Y1049020D03*
X916940Y1049020D03*
X942340Y1049020D03*
D11*
X843407Y1112774D03*
X832993Y1112774D03*
X817626Y1211326D03*
X807212Y1211326D03*
X796798Y1211326D03*
D12*
X967740Y1049020D03*
D13*
X981710Y1280160D03*
X789940Y1087120D03*
D10*
X25400Y1320800D03*
X228600Y1320800D03*
X228600Y1524000D03*
X25400Y1524000D03*
D11*
X228219Y1359154D03*
X217805Y1359154D03*
D12*
X63500Y1308100D03*
X88900Y1308100D03*
X114300Y1308100D03*
X139700Y1308100D03*
X165100Y1308100D03*
D11*
X66167Y1371854D03*
X55753Y1371854D03*
X40386Y1470406D03*
X29972Y1470406D03*
X19558Y1470406D03*
D12*
X190500Y1308100D03*
D13*
X204470Y1539240D03*
X12700Y1346200D03*
D10*
X284480Y1320800D03*
X487680Y1320800D03*
X487680Y1524000D03*
X284480Y1524000D03*
D11*
X487299Y1359154D03*
X476885Y1359154D03*
D12*
X322580Y1308100D03*
X347980Y1308100D03*
X373380Y1308100D03*
X398780Y1308100D03*
X424180Y1308100D03*
D11*
X325247Y1371854D03*
X314833Y1371854D03*
X299466Y1470406D03*
X289052Y1470406D03*
X278638Y1470406D03*
D12*
X449580Y1308100D03*
D13*
X463550Y1539240D03*
X271780Y1346200D03*
D10*
X543560Y1320800D03*
X746760Y1320800D03*
X746760Y1524000D03*
X543560Y1524000D03*
D11*
X746379Y1359154D03*
X735965Y1359154D03*
D12*
X581660Y1308100D03*
X607060Y1308100D03*
X632460Y1308100D03*
X657860Y1308100D03*
X683260Y1308100D03*
D11*
X584327Y1371854D03*
X573913Y1371854D03*
X558546Y1470406D03*
X548132Y1470406D03*
X537718Y1470406D03*
D12*
X708660Y1308100D03*
D13*
X722630Y1539240D03*
X530860Y1346200D03*
D10*
X802640Y1320800D03*
X1005840Y1320800D03*
X1005840Y1524000D03*
X802640Y1524000D03*
D11*
X1005459Y1359154D03*
X995045Y1359154D03*
D12*
X840740Y1308100D03*
X866140Y1308100D03*
X891540Y1308100D03*
X916940Y1308100D03*
X942340Y1308100D03*
D11*
X843407Y1371854D03*
X832993Y1371854D03*
X817626Y1470406D03*
X807212Y1470406D03*
X796798Y1470406D03*
D12*
X967740Y1308100D03*
D13*
X981710Y1539240D03*
X789940Y1346200D03*
X68580Y1570355D03*
X962025Y1570355D03*
M02*
